M48
; DRILL file {KiCad (5.1.10)-1} date 05/23/22 16:21:40
; FORMAT={-:-/ absolute / metric / decimal}
; #@! TF.CreationDate,2022-05-23T16:21:40+02:00
; #@! TF.GenerationSoftware,Kicad,Pcbnew,(5.1.10)-1
; #@! TF.FileFunction,Plated,1,2,PTH
FMAT,2
METRIC
T1C0.800
T2C1.000
T3C1.190
T4C1.300
T5C1.500
%
G90
G05
T1
X-11.811Y-62.662
X-11.811Y-65.202
X-11.811Y-67.742
X-11.811Y-70.282
X-7.798Y-30.375
X-7.798Y-35.255
X-4.191Y-62.662
X-4.191Y-65.202
X-4.191Y-67.742
X-4.191Y-70.282
X7.01Y-12.04
X7.01Y-14.58
X7.01Y-17.12
X7.01Y-19.66
X7.01Y-22.2
X7.01Y-24.74
X7.01Y-27.28
X7.01Y-29.82
X7.01Y-32.36
X7.01Y-34.9
X7.01Y-37.44
X7.01Y-39.98
X7.01Y-42.52
X7.01Y-45.06
X14.63Y-12.04
X14.63Y-14.58
X14.63Y-17.12
X14.63Y-19.66
X14.63Y-22.2
X14.63Y-24.74
X14.63Y-27.28
X14.63Y-29.82
X14.63Y-32.36
X14.63Y-34.9
X14.63Y-37.44
X14.63Y-39.98
X14.63Y-42.52
X14.63Y-45.06
T2
X-15.138Y1.575
X-15.138Y-0.965
X-12.598Y1.575
X-12.598Y-0.965
X-10.058Y1.575
X-10.058Y-0.965
X-7.518Y1.575
X-7.518Y-0.965
X-7.468Y-7.468
X-7.468Y-10.008
X-7.468Y-12.548
X-7.468Y-15.088
X-7.468Y-17.628
X-4.978Y1.575
X-4.978Y-0.965
X-2.438Y1.575
X-2.438Y-0.965
X0.102Y1.575
X0.102Y-0.965
X2.642Y1.575
X2.642Y-0.965
X5.182Y1.575
X5.182Y-0.965
X7.722Y1.575
X7.722Y-0.965
X10.262Y1.575
X10.262Y-0.965
X11.201Y-64.262
X11.201Y-66.802
X11.201Y-69.342
X12.802Y1.575
X12.802Y-0.965
X15.342Y1.575
X15.342Y-0.965
X17.882Y1.575
X17.882Y-0.965
X20.422Y1.575
X20.422Y-0.965
X22.962Y1.575
X22.962Y-0.965
X25.4Y-58.039
X25.4Y-93.599
X25.502Y1.575
X25.502Y-0.965
X28.042Y1.575
X28.042Y-0.965
X30.48Y-58.039
X30.582Y1.575
X30.582Y-0.965
X33.122Y1.575
X33.122Y-0.965
X35.56Y-58.039
X35.56Y-93.599
X40.64Y-58.039
X40.64Y-93.599
T3
X-13.259Y-90.373
X-10.719Y-90.373
X-4.013Y-90.424
X-1.473Y-90.424
T4
X41.605Y-44.755
X41.605Y-49.835
X41.656Y-30.175
X41.656Y-35.255
X41.859Y-15.367
X41.859Y-20.447
X42.012Y-1.499
X42.012Y-6.579
T5
X22.02Y-88.519
X44.17Y-63.119
T0
M30
