%TF.GenerationSoftware,KiCad,Pcbnew,(5.1.10)-1*%
%TF.CreationDate,2022-05-23T16:21:35+02:00*%
%TF.ProjectId,Auto_Uart,4175746f-5f55-4617-9274-2e6b69636164,rev?*%
%TF.SameCoordinates,Original*%
%TF.FileFunction,Legend,Top*%
%TF.FilePolarity,Positive*%
%FSLAX46Y46*%
G04 Gerber Fmt 4.6, Leading zero omitted, Abs format (unit mm)*
G04 Created by KiCad (PCBNEW (5.1.10)-1) date 2022-05-23 16:21:35*
%MOMM*%
%LPD*%
G01*
G04 APERTURE LIST*
%ADD10C,0.120000*%
%ADD11C,0.200000*%
%ADD12C,0.103000*%
%ADD13C,0.150000*%
%ADD14C,0.254000*%
G04 APERTURE END LIST*
D10*
%TO.C,J1*%
X-8797600Y-18957600D02*
X-6137600Y-18957600D01*
X-8797600Y-8737600D02*
X-8797600Y-18957600D01*
X-6137600Y-8737600D02*
X-6137600Y-18957600D01*
X-8797600Y-8737600D02*
X-6137600Y-8737600D01*
X-8797600Y-7467600D02*
X-8797600Y-6137600D01*
X-8797600Y-6137600D02*
X-7467600Y-6137600D01*
D11*
%TO.C,PS1*%
X44170000Y-58039000D02*
X42276000Y-58039000D01*
X22020000Y-58039000D02*
X23800000Y-58039000D01*
X44170000Y-93599000D02*
X42276000Y-93599000D01*
X22020000Y-93599000D02*
X23800000Y-93599000D01*
X44170000Y-58039000D02*
X44170000Y-61412000D01*
X22020000Y-93599000D02*
X22020000Y-90303000D01*
D12*
X25319000Y-95049000D02*
X25319000Y-95049000D01*
X25319000Y-95152000D02*
X25319000Y-95152000D01*
D11*
X26775000Y-93599000D02*
X34197000Y-93599000D01*
X44170000Y-93599000D02*
X44170000Y-64821000D01*
X22020000Y-58039000D02*
X22020000Y-86817000D01*
D12*
X25319000Y-95049000D02*
G75*
G02*
X25319000Y-95152000I0J-51500D01*
G01*
X25319000Y-95152000D02*
G75*
G02*
X25319000Y-95049000I0J51500D01*
G01*
D10*
%TO.C,J7*%
X44191600Y-6578600D02*
G75*
G03*
X44191600Y-6578600I-2180000J0D01*
G01*
X44191600Y-1498600D02*
G75*
G03*
X44191600Y-1498600I-2180000J0D01*
G01*
X46811600Y-9178600D02*
X46811600Y1101400D01*
X44311600Y-9178600D02*
X44311600Y1101400D01*
X38111600Y-9178600D02*
X38111600Y1101400D01*
X36051600Y-9178600D02*
X36051600Y1101400D01*
X47371600Y-9178600D02*
X47371600Y1101400D01*
X36051600Y-9178600D02*
X47371600Y-9178600D01*
X36051600Y1101400D02*
X47371600Y1101400D01*
X40623600Y-4924600D02*
X40730600Y-5031600D01*
X43558600Y-7860600D02*
X43665600Y-7966600D01*
X40357600Y-5190600D02*
X40464600Y-5297600D01*
X43292600Y-8126600D02*
X43399600Y-8232600D01*
X40623600Y155400D02*
X41019600Y-239600D01*
X43285600Y-2505600D02*
X43665600Y-2885600D01*
X40357600Y-110600D02*
X40737600Y-490600D01*
X43003600Y-2756600D02*
X43399600Y-3151600D01*
X46871600Y-9418600D02*
X47611600Y-9418600D01*
X47611600Y-9418600D02*
X47611600Y-8918600D01*
%TO.C,J5*%
X43836000Y-35255200D02*
G75*
G03*
X43836000Y-35255200I-2180000J0D01*
G01*
X43836000Y-30175200D02*
G75*
G03*
X43836000Y-30175200I-2180000J0D01*
G01*
X46456000Y-37855200D02*
X46456000Y-27575200D01*
X43956000Y-37855200D02*
X43956000Y-27575200D01*
X37756000Y-37855200D02*
X37756000Y-27575200D01*
X35696000Y-37855200D02*
X35696000Y-27575200D01*
X47016000Y-37855200D02*
X47016000Y-27575200D01*
X35696000Y-37855200D02*
X47016000Y-37855200D01*
X35696000Y-27575200D02*
X47016000Y-27575200D01*
X40268000Y-33601200D02*
X40375000Y-33708200D01*
X43203000Y-36537200D02*
X43310000Y-36643200D01*
X40002000Y-33867200D02*
X40109000Y-33974200D01*
X42937000Y-36803200D02*
X43044000Y-36909200D01*
X40268000Y-28521200D02*
X40664000Y-28916200D01*
X42930000Y-31182200D02*
X43310000Y-31562200D01*
X40002000Y-28787200D02*
X40382000Y-29167200D01*
X42648000Y-31433200D02*
X43044000Y-31828200D01*
X46516000Y-38095200D02*
X47256000Y-38095200D01*
X47256000Y-38095200D02*
X47256000Y-37595200D01*
%TO.C,U1*%
X4641400Y-72713000D02*
X4641400Y-60992000D01*
X13261400Y-72713000D02*
X13261400Y-60992000D01*
X4641400Y-72713000D02*
X13261400Y-72713000D01*
X4641400Y-60992000D02*
X13261400Y-60992000D01*
X12261400Y-72953000D02*
X13501400Y-72953000D01*
X13501400Y-72953000D02*
X13501400Y-71713000D01*
%TO.C,IC1*%
X-7001000Y-71611800D02*
X-5751000Y-71611800D01*
X-5751000Y-71611800D02*
X-5751000Y-61331800D01*
X-5751000Y-61331800D02*
X-10251000Y-61331800D01*
X-10251000Y-61331800D02*
X-10251000Y-71611800D01*
X-10251000Y-71611800D02*
X-9001000Y-71611800D01*
X-2751000Y-71671800D02*
X-2751000Y-61271800D01*
X-2751000Y-61271800D02*
X-13251000Y-61271800D01*
X-13251000Y-61271800D02*
X-13251000Y-71671800D01*
X-13251000Y-71671800D02*
X-2751000Y-71671800D01*
X-9001000Y-71611800D02*
G75*
G02*
X-7001000Y-71611800I1000000J0D01*
G01*
%TO.C,C1*%
X204800Y-66206648D02*
X204800Y-66729152D01*
X1674800Y-66206648D02*
X1674800Y-66729152D01*
%TO.C,C2*%
X-7146000Y-42162800D02*
X-8846000Y-42162800D01*
X-12666000Y-42162800D02*
X-10966000Y-42162800D01*
X-12666000Y-46618363D02*
X-12666000Y-42162800D01*
X-7146000Y-46618363D02*
X-7146000Y-42162800D01*
X-8210437Y-47682800D02*
X-8846000Y-47682800D01*
X-11601563Y-47682800D02*
X-10966000Y-47682800D01*
X-11601563Y-47682800D02*
X-12666000Y-46618363D01*
X-8210437Y-47682800D02*
X-7146000Y-46618363D01*
X-11591000Y-48547800D02*
X-11591000Y-47922800D01*
X-11903500Y-48235300D02*
X-11278500Y-48235300D01*
%TO.C,C3*%
X-1393648Y-36831600D02*
X-1916152Y-36831600D01*
X-1393648Y-38301600D02*
X-1916152Y-38301600D01*
%TO.C,C4*%
X1966952Y-43203800D02*
X1444448Y-43203800D01*
X1966952Y-41733800D02*
X1444448Y-41733800D01*
%TO.C,C5*%
X-3706800Y-45977352D02*
X-3706800Y-45454848D01*
X-2236800Y-45977352D02*
X-2236800Y-45454848D01*
%TO.C,C6*%
X-1988452Y-27332000D02*
X-1465948Y-27332000D01*
X-1988452Y-28802000D02*
X-1465948Y-28802000D01*
%TO.C,C7*%
X-5841400Y-82857600D02*
X-4641400Y-82857600D01*
X-1321400Y-82857600D02*
X-2521400Y-82857600D01*
X-1321400Y-79402037D02*
X-1321400Y-82857600D01*
X-5841400Y-79402037D02*
X-5841400Y-82857600D01*
X-4776963Y-78337600D02*
X-4641400Y-78337600D01*
X-2385837Y-78337600D02*
X-2521400Y-78337600D01*
X-2385837Y-78337600D02*
X-1321400Y-79402037D01*
X-4776963Y-78337600D02*
X-5841400Y-79402037D01*
X-2021400Y-77597600D02*
X-2021400Y-78097600D01*
X-1771400Y-77847600D02*
X-2271400Y-77847600D01*
%TO.C,C8*%
X12446600Y-82828800D02*
X13646600Y-82828800D01*
X16966600Y-82828800D02*
X15766600Y-82828800D01*
X16966600Y-79373237D02*
X16966600Y-82828800D01*
X12446600Y-79373237D02*
X12446600Y-82828800D01*
X13511037Y-78308800D02*
X13646600Y-78308800D01*
X15902163Y-78308800D02*
X15766600Y-78308800D01*
X15902163Y-78308800D02*
X16966600Y-79373237D01*
X13511037Y-78308800D02*
X12446600Y-79373237D01*
X16266600Y-77568800D02*
X16266600Y-78068800D01*
X16516600Y-77818800D02*
X16016600Y-77818800D01*
%TO.C,C9*%
X9353800Y-77869600D02*
X8853800Y-77869600D01*
X9103800Y-77619600D02*
X9103800Y-78119600D01*
X6348237Y-78359600D02*
X5283800Y-79424037D01*
X8739363Y-78359600D02*
X9803800Y-79424037D01*
X8739363Y-78359600D02*
X8603800Y-78359600D01*
X6348237Y-78359600D02*
X6483800Y-78359600D01*
X5283800Y-79424037D02*
X5283800Y-82879600D01*
X9803800Y-79424037D02*
X9803800Y-82879600D01*
X9803800Y-82879600D02*
X8603800Y-82879600D01*
X5283800Y-82879600D02*
X6483800Y-82879600D01*
%TO.C,C10*%
X9518400Y-56245800D02*
X10018400Y-56245800D01*
X9768400Y-56495800D02*
X9768400Y-55995800D01*
X12523963Y-55755800D02*
X13588400Y-54691363D01*
X10132837Y-55755800D02*
X9068400Y-54691363D01*
X10132837Y-55755800D02*
X10268400Y-55755800D01*
X12523963Y-55755800D02*
X12388400Y-55755800D01*
X13588400Y-54691363D02*
X13588400Y-51235800D01*
X9068400Y-54691363D02*
X9068400Y-51235800D01*
X9068400Y-51235800D02*
X10268400Y-51235800D01*
X13588400Y-51235800D02*
X12388400Y-51235800D01*
%TO.C,C11*%
X25195200Y-13414552D02*
X25195200Y-12892048D01*
X23725200Y-13414552D02*
X23725200Y-12892048D01*
%TO.C,C12*%
X20496200Y-33372248D02*
X20496200Y-33894752D01*
X19026200Y-33372248D02*
X19026200Y-33894752D01*
%TO.C,C13*%
X27803900Y-30139300D02*
X27178900Y-30139300D01*
X27491400Y-29826800D02*
X27491400Y-30451800D01*
X24110837Y-30691800D02*
X23046400Y-31756237D01*
X27501963Y-30691800D02*
X28566400Y-31756237D01*
X27501963Y-30691800D02*
X26866400Y-30691800D01*
X24110837Y-30691800D02*
X24746400Y-30691800D01*
X23046400Y-31756237D02*
X23046400Y-36211800D01*
X28566400Y-31756237D02*
X28566400Y-36211800D01*
X28566400Y-36211800D02*
X26866400Y-36211800D01*
X23046400Y-36211800D02*
X24746400Y-36211800D01*
%TO.C,IC2*%
X9820400Y-10709600D02*
X8570400Y-10709600D01*
X8570400Y-10709600D02*
X8570400Y-46389600D01*
X8570400Y-46389600D02*
X13070400Y-46389600D01*
X13070400Y-46389600D02*
X13070400Y-10709600D01*
X13070400Y-10709600D02*
X11820400Y-10709600D01*
X5570400Y-10649600D02*
X5570400Y-46449600D01*
X5570400Y-46449600D02*
X16070400Y-46449600D01*
X16070400Y-46449600D02*
X16070400Y-10649600D01*
X16070400Y-10649600D02*
X5570400Y-10649600D01*
X11820400Y-10709600D02*
G75*
G02*
X9820400Y-10709600I-1000000J0D01*
G01*
%TO.C,J2*%
X-93200Y-93454000D02*
X-93200Y-87434000D01*
X-93200Y-87434000D02*
X-5393200Y-87434000D01*
X-5393200Y-87434000D02*
X-5393200Y-93454000D01*
X-5393200Y-93454000D02*
X-93200Y-93454000D01*
X196800Y-92424000D02*
X196800Y-88424000D01*
X-1473200Y-87434000D02*
X-1473200Y-88434000D01*
X-1473200Y-88434000D02*
X-4013200Y-88434000D01*
X-4013200Y-88434000D02*
X-4013200Y-87434000D01*
X-1473200Y-88434000D02*
X-1723200Y-88964000D01*
X-1723200Y-88964000D02*
X-3763200Y-88964000D01*
X-3763200Y-88964000D02*
X-4013200Y-88434000D01*
X-1723200Y-87434000D02*
X-1723200Y-88434000D01*
X-3763200Y-87434000D02*
X-3763200Y-88434000D01*
X-673200Y-93454000D02*
X-673200Y-92854000D01*
X-673200Y-92854000D02*
X-2273200Y-92854000D01*
X-2273200Y-92854000D02*
X-2273200Y-93454000D01*
X-3213200Y-93454000D02*
X-3213200Y-92854000D01*
X-3213200Y-92854000D02*
X-4813200Y-92854000D01*
X-4813200Y-92854000D02*
X-4813200Y-93454000D01*
%TO.C,J3*%
X-14058800Y-92803200D02*
X-14058800Y-93403200D01*
X-12458800Y-92803200D02*
X-14058800Y-92803200D01*
X-12458800Y-93403200D02*
X-12458800Y-92803200D01*
X-11518800Y-92803200D02*
X-11518800Y-93403200D01*
X-9918800Y-92803200D02*
X-11518800Y-92803200D01*
X-9918800Y-93403200D02*
X-9918800Y-92803200D01*
X-13008800Y-87383200D02*
X-13008800Y-88383200D01*
X-10968800Y-87383200D02*
X-10968800Y-88383200D01*
X-13008800Y-88913200D02*
X-13258800Y-88383200D01*
X-10968800Y-88913200D02*
X-13008800Y-88913200D01*
X-10718800Y-88383200D02*
X-10968800Y-88913200D01*
X-13258800Y-88383200D02*
X-13258800Y-87383200D01*
X-10718800Y-88383200D02*
X-13258800Y-88383200D01*
X-10718800Y-87383200D02*
X-10718800Y-88383200D01*
X-9048800Y-92373200D02*
X-9048800Y-88373200D01*
X-14638800Y-93403200D02*
X-9338800Y-93403200D01*
X-14638800Y-87383200D02*
X-14638800Y-93403200D01*
X-9338800Y-87383200D02*
X-14638800Y-87383200D01*
X-9338800Y-93403200D02*
X-9338800Y-87383200D01*
%TO.C,J4*%
X47205200Y-52674800D02*
X47205200Y-52174800D01*
X46465200Y-52674800D02*
X47205200Y-52674800D01*
X42597200Y-46012800D02*
X42993200Y-46407800D01*
X39951200Y-43366800D02*
X40331200Y-43746800D01*
X42879200Y-45761800D02*
X43259200Y-46141800D01*
X40217200Y-43100800D02*
X40613200Y-43495800D01*
X42886200Y-51382800D02*
X42993200Y-51488800D01*
X39951200Y-48446800D02*
X40058200Y-48553800D01*
X43152200Y-51116800D02*
X43259200Y-51222800D01*
X40217200Y-48180800D02*
X40324200Y-48287800D01*
X35645200Y-42154800D02*
X46965200Y-42154800D01*
X35645200Y-52434800D02*
X46965200Y-52434800D01*
X46965200Y-52434800D02*
X46965200Y-42154800D01*
X35645200Y-52434800D02*
X35645200Y-42154800D01*
X37705200Y-52434800D02*
X37705200Y-42154800D01*
X43905200Y-52434800D02*
X43905200Y-42154800D01*
X46405200Y-52434800D02*
X46405200Y-42154800D01*
X43785200Y-44754800D02*
G75*
G03*
X43785200Y-44754800I-2180000J0D01*
G01*
X43785200Y-49834800D02*
G75*
G03*
X43785200Y-49834800I-2180000J0D01*
G01*
%TO.C,J6*%
X47459200Y-23287000D02*
X47459200Y-22787000D01*
X46719200Y-23287000D02*
X47459200Y-23287000D01*
X42851200Y-16625000D02*
X43247200Y-17020000D01*
X40205200Y-13979000D02*
X40585200Y-14359000D01*
X43133200Y-16374000D02*
X43513200Y-16754000D01*
X40471200Y-13713000D02*
X40867200Y-14108000D01*
X43140200Y-21995000D02*
X43247200Y-22101000D01*
X40205200Y-19059000D02*
X40312200Y-19166000D01*
X43406200Y-21729000D02*
X43513200Y-21835000D01*
X40471200Y-18793000D02*
X40578200Y-18900000D01*
X35899200Y-12767000D02*
X47219200Y-12767000D01*
X35899200Y-23047000D02*
X47219200Y-23047000D01*
X47219200Y-23047000D02*
X47219200Y-12767000D01*
X35899200Y-23047000D02*
X35899200Y-12767000D01*
X37959200Y-23047000D02*
X37959200Y-12767000D01*
X44159200Y-23047000D02*
X44159200Y-12767000D01*
X46659200Y-23047000D02*
X46659200Y-12767000D01*
X44039200Y-15367000D02*
G75*
G03*
X44039200Y-15367000I-2180000J0D01*
G01*
X44039200Y-20447000D02*
G75*
G03*
X44039200Y-20447000I-2180000J0D01*
G01*
%TO.C,R1*%
X-1998736Y-7770800D02*
X-2452864Y-7770800D01*
X-1998736Y-6300800D02*
X-2452864Y-6300800D01*
%TO.C,R2*%
X-1947936Y-9780600D02*
X-2402064Y-9780600D01*
X-1947936Y-11250600D02*
X-2402064Y-11250600D01*
%TO.C,R3*%
X-662000Y-32605736D02*
X-662000Y-33059864D01*
X-2132000Y-32605736D02*
X-2132000Y-33059864D01*
%TO.C,Y1*%
X-10322800Y-36015200D02*
X-10322800Y-29615200D01*
X-5272800Y-36015200D02*
X-5272800Y-29615200D01*
X-5272800Y-36015200D02*
G75*
G02*
X-10322800Y-36015200I-2525000J0D01*
G01*
X-5272800Y-29615200D02*
G75*
G03*
X-10322800Y-29615200I-2525000J0D01*
G01*
%TO.C,J1*%
D13*
X-7800933Y-4589980D02*
X-7800933Y-5304266D01*
X-7848552Y-5447123D01*
X-7943790Y-5542361D01*
X-8086647Y-5589980D01*
X-8181885Y-5589980D01*
X-6800933Y-5589980D02*
X-7372361Y-5589980D01*
X-7086647Y-5589980D02*
X-7086647Y-4589980D01*
X-7181885Y-4732838D01*
X-7277123Y-4828076D01*
X-7372361Y-4875695D01*
%TO.C,PS1*%
D14*
X21085023Y-63137142D02*
X19815023Y-63137142D01*
X19815023Y-62653333D01*
X19875500Y-62532380D01*
X19935976Y-62471904D01*
X20056928Y-62411428D01*
X20238357Y-62411428D01*
X20359309Y-62471904D01*
X20419785Y-62532380D01*
X20480261Y-62653333D01*
X20480261Y-63137142D01*
X21024547Y-61927619D02*
X21085023Y-61746190D01*
X21085023Y-61443809D01*
X21024547Y-61322857D01*
X20964071Y-61262380D01*
X20843119Y-61201904D01*
X20722166Y-61201904D01*
X20601214Y-61262380D01*
X20540738Y-61322857D01*
X20480261Y-61443809D01*
X20419785Y-61685714D01*
X20359309Y-61806666D01*
X20298833Y-61867142D01*
X20177880Y-61927619D01*
X20056928Y-61927619D01*
X19935976Y-61867142D01*
X19875500Y-61806666D01*
X19815023Y-61685714D01*
X19815023Y-61383333D01*
X19875500Y-61201904D01*
X21085023Y-59992380D02*
X21085023Y-60718095D01*
X21085023Y-60355238D02*
X19815023Y-60355238D01*
X19996452Y-60476190D01*
X20117404Y-60597142D01*
X20177880Y-60718095D01*
%TO.C,J7*%
D13*
X34503980Y-4371933D02*
X35218266Y-4371933D01*
X35361123Y-4419552D01*
X35456361Y-4514790D01*
X35503980Y-4657647D01*
X35503980Y-4752885D01*
X34503980Y-3990980D02*
X34503980Y-3324314D01*
X35503980Y-3752885D01*
%TO.C,J5*%
X34148380Y-33048533D02*
X34862666Y-33048533D01*
X35005523Y-33096152D01*
X35100761Y-33191390D01*
X35148380Y-33334247D01*
X35148380Y-33429485D01*
X34148380Y-32096152D02*
X34148380Y-32572342D01*
X34624571Y-32619961D01*
X34576952Y-32572342D01*
X34529333Y-32477104D01*
X34529333Y-32239009D01*
X34576952Y-32143771D01*
X34624571Y-32096152D01*
X34719809Y-32048533D01*
X34957904Y-32048533D01*
X35053142Y-32096152D01*
X35100761Y-32143771D01*
X35148380Y-32239009D01*
X35148380Y-32477104D01*
X35100761Y-32572342D01*
X35053142Y-32619961D01*
%TO.C,U1*%
X3198880Y-71945404D02*
X4008404Y-71945404D01*
X4103642Y-71897785D01*
X4151261Y-71850166D01*
X4198880Y-71754928D01*
X4198880Y-71564452D01*
X4151261Y-71469214D01*
X4103642Y-71421595D01*
X4008404Y-71373976D01*
X3198880Y-71373976D01*
X4198880Y-70373976D02*
X4198880Y-70945404D01*
X4198880Y-70659690D02*
X3198880Y-70659690D01*
X3341738Y-70754928D01*
X3436976Y-70850166D01*
X3484595Y-70945404D01*
%TO.C,IC1*%
X-8977190Y-73064180D02*
X-8977190Y-72064180D01*
X-7929571Y-72968942D02*
X-7977190Y-73016561D01*
X-8120047Y-73064180D01*
X-8215285Y-73064180D01*
X-8358142Y-73016561D01*
X-8453380Y-72921323D01*
X-8501000Y-72826085D01*
X-8548619Y-72635609D01*
X-8548619Y-72492752D01*
X-8501000Y-72302276D01*
X-8453380Y-72207038D01*
X-8358142Y-72111800D01*
X-8215285Y-72064180D01*
X-8120047Y-72064180D01*
X-7977190Y-72111800D01*
X-7929571Y-72159419D01*
X-6977190Y-73064180D02*
X-7548619Y-73064180D01*
X-7262904Y-73064180D02*
X-7262904Y-72064180D01*
X-7358142Y-72207038D01*
X-7453380Y-72302276D01*
X-7548619Y-72349895D01*
%TO.C,C1*%
X3151142Y-66634566D02*
X3198761Y-66682185D01*
X3246380Y-66825042D01*
X3246380Y-66920280D01*
X3198761Y-67063138D01*
X3103523Y-67158376D01*
X3008285Y-67205995D01*
X2817809Y-67253614D01*
X2674952Y-67253614D01*
X2484476Y-67205995D01*
X2389238Y-67158376D01*
X2294000Y-67063138D01*
X2246380Y-66920280D01*
X2246380Y-66825042D01*
X2294000Y-66682185D01*
X2341619Y-66634566D01*
X3246380Y-65682185D02*
X3246380Y-66253614D01*
X3246380Y-65967900D02*
X2246380Y-65967900D01*
X2389238Y-66063138D01*
X2484476Y-66158376D01*
X2532095Y-66253614D01*
%TO.C,C2*%
X-13248857Y-45089466D02*
X-13201238Y-45137085D01*
X-13153619Y-45279942D01*
X-13153619Y-45375180D01*
X-13201238Y-45518038D01*
X-13296476Y-45613276D01*
X-13391714Y-45660895D01*
X-13582190Y-45708514D01*
X-13725047Y-45708514D01*
X-13915523Y-45660895D01*
X-14010761Y-45613276D01*
X-14106000Y-45518038D01*
X-14153619Y-45375180D01*
X-14153619Y-45279942D01*
X-14106000Y-45137085D01*
X-14058380Y-45089466D01*
X-14058380Y-44708514D02*
X-14106000Y-44660895D01*
X-14153619Y-44565657D01*
X-14153619Y-44327561D01*
X-14106000Y-44232323D01*
X-14058380Y-44184704D01*
X-13963142Y-44137085D01*
X-13867904Y-44137085D01*
X-13725047Y-44184704D01*
X-13153619Y-44756133D01*
X-13153619Y-44137085D01*
%TO.C,C3*%
X-1821566Y-39603742D02*
X-1869185Y-39651361D01*
X-2012042Y-39698980D01*
X-2107280Y-39698980D01*
X-2250138Y-39651361D01*
X-2345376Y-39556123D01*
X-2392995Y-39460885D01*
X-2440614Y-39270409D01*
X-2440614Y-39127552D01*
X-2392995Y-38937076D01*
X-2345376Y-38841838D01*
X-2250138Y-38746600D01*
X-2107280Y-38698980D01*
X-2012042Y-38698980D01*
X-1869185Y-38746600D01*
X-1821566Y-38794219D01*
X-1488233Y-38698980D02*
X-869185Y-38698980D01*
X-1202519Y-39079933D01*
X-1059661Y-39079933D01*
X-964423Y-39127552D01*
X-916804Y-39175171D01*
X-869185Y-39270409D01*
X-869185Y-39508504D01*
X-916804Y-39603742D01*
X-964423Y-39651361D01*
X-1059661Y-39698980D01*
X-1345376Y-39698980D01*
X-1440614Y-39651361D01*
X-1488233Y-39603742D01*
%TO.C,C4*%
X1539033Y-44505942D02*
X1491414Y-44553561D01*
X1348557Y-44601180D01*
X1253319Y-44601180D01*
X1110461Y-44553561D01*
X1015223Y-44458323D01*
X967604Y-44363085D01*
X919985Y-44172609D01*
X919985Y-44029752D01*
X967604Y-43839276D01*
X1015223Y-43744038D01*
X1110461Y-43648800D01*
X1253319Y-43601180D01*
X1348557Y-43601180D01*
X1491414Y-43648800D01*
X1539033Y-43696419D01*
X2396176Y-43934514D02*
X2396176Y-44601180D01*
X2158080Y-43553561D02*
X1919985Y-44267847D01*
X2539033Y-44267847D01*
%TO.C,C5*%
X-4294657Y-45882766D02*
X-4247038Y-45930385D01*
X-4199419Y-46073242D01*
X-4199419Y-46168480D01*
X-4247038Y-46311338D01*
X-4342276Y-46406576D01*
X-4437514Y-46454195D01*
X-4627990Y-46501814D01*
X-4770847Y-46501814D01*
X-4961323Y-46454195D01*
X-5056561Y-46406576D01*
X-5151800Y-46311338D01*
X-5199419Y-46168480D01*
X-5199419Y-46073242D01*
X-5151800Y-45930385D01*
X-5104180Y-45882766D01*
X-5199419Y-44978004D02*
X-5199419Y-45454195D01*
X-4723228Y-45501814D01*
X-4770847Y-45454195D01*
X-4818466Y-45358957D01*
X-4818466Y-45120861D01*
X-4770847Y-45025623D01*
X-4723228Y-44978004D01*
X-4627990Y-44930385D01*
X-4389895Y-44930385D01*
X-4294657Y-44978004D01*
X-4247038Y-45025623D01*
X-4199419Y-45120861D01*
X-4199419Y-45358957D01*
X-4247038Y-45454195D01*
X-4294657Y-45501814D01*
%TO.C,C6*%
X-1893866Y-26744142D02*
X-1941485Y-26791761D01*
X-2084342Y-26839380D01*
X-2179580Y-26839380D01*
X-2322438Y-26791761D01*
X-2417676Y-26696523D01*
X-2465295Y-26601285D01*
X-2512914Y-26410809D01*
X-2512914Y-26267952D01*
X-2465295Y-26077476D01*
X-2417676Y-25982238D01*
X-2322438Y-25887000D01*
X-2179580Y-25839380D01*
X-2084342Y-25839380D01*
X-1941485Y-25887000D01*
X-1893866Y-25934619D01*
X-1036723Y-25839380D02*
X-1227200Y-25839380D01*
X-1322438Y-25887000D01*
X-1370057Y-25934619D01*
X-1465295Y-26077476D01*
X-1512914Y-26267952D01*
X-1512914Y-26648904D01*
X-1465295Y-26744142D01*
X-1417676Y-26791761D01*
X-1322438Y-26839380D01*
X-1131961Y-26839380D01*
X-1036723Y-26791761D01*
X-989104Y-26744142D01*
X-941485Y-26648904D01*
X-941485Y-26410809D01*
X-989104Y-26315571D01*
X-1036723Y-26267952D01*
X-1131961Y-26220333D01*
X-1322438Y-26220333D01*
X-1417676Y-26267952D01*
X-1465295Y-26315571D01*
X-1512914Y-26410809D01*
%TO.C,C7*%
X-24257Y-80764266D02*
X23361Y-80811885D01*
X70980Y-80954742D01*
X70980Y-81049980D01*
X23361Y-81192838D01*
X-71876Y-81288076D01*
X-167114Y-81335695D01*
X-357590Y-81383314D01*
X-500447Y-81383314D01*
X-690923Y-81335695D01*
X-786161Y-81288076D01*
X-881400Y-81192838D01*
X-929019Y-81049980D01*
X-929019Y-80954742D01*
X-881400Y-80811885D01*
X-833780Y-80764266D01*
X-929019Y-80430933D02*
X-929019Y-79764266D01*
X70980Y-80192838D01*
%TO.C,C8*%
X18263742Y-80735466D02*
X18311361Y-80783085D01*
X18358980Y-80925942D01*
X18358980Y-81021180D01*
X18311361Y-81164038D01*
X18216123Y-81259276D01*
X18120885Y-81306895D01*
X17930409Y-81354514D01*
X17787552Y-81354514D01*
X17597076Y-81306895D01*
X17501838Y-81259276D01*
X17406600Y-81164038D01*
X17358980Y-81021180D01*
X17358980Y-80925942D01*
X17406600Y-80783085D01*
X17454219Y-80735466D01*
X17787552Y-80164038D02*
X17739933Y-80259276D01*
X17692314Y-80306895D01*
X17597076Y-80354514D01*
X17549457Y-80354514D01*
X17454219Y-80306895D01*
X17406600Y-80259276D01*
X17358980Y-80164038D01*
X17358980Y-79973561D01*
X17406600Y-79878323D01*
X17454219Y-79830704D01*
X17549457Y-79783085D01*
X17597076Y-79783085D01*
X17692314Y-79830704D01*
X17739933Y-79878323D01*
X17787552Y-79973561D01*
X17787552Y-80164038D01*
X17835171Y-80259276D01*
X17882790Y-80306895D01*
X17978028Y-80354514D01*
X18168504Y-80354514D01*
X18263742Y-80306895D01*
X18311361Y-80259276D01*
X18358980Y-80164038D01*
X18358980Y-79973561D01*
X18311361Y-79878323D01*
X18263742Y-79830704D01*
X18168504Y-79783085D01*
X17978028Y-79783085D01*
X17882790Y-79830704D01*
X17835171Y-79878323D01*
X17787552Y-79973561D01*
%TO.C,C9*%
X11100942Y-80786266D02*
X11148561Y-80833885D01*
X11196180Y-80976742D01*
X11196180Y-81071980D01*
X11148561Y-81214838D01*
X11053323Y-81310076D01*
X10958085Y-81357695D01*
X10767609Y-81405314D01*
X10624752Y-81405314D01*
X10434276Y-81357695D01*
X10339038Y-81310076D01*
X10243800Y-81214838D01*
X10196180Y-81071980D01*
X10196180Y-80976742D01*
X10243800Y-80833885D01*
X10291419Y-80786266D01*
X11196180Y-80310076D02*
X11196180Y-80119600D01*
X11148561Y-80024361D01*
X11100942Y-79976742D01*
X10958085Y-79881504D01*
X10767609Y-79833885D01*
X10386657Y-79833885D01*
X10291419Y-79881504D01*
X10243800Y-79929123D01*
X10196180Y-80024361D01*
X10196180Y-80214838D01*
X10243800Y-80310076D01*
X10291419Y-80357695D01*
X10386657Y-80405314D01*
X10624752Y-80405314D01*
X10719990Y-80357695D01*
X10767609Y-80310076D01*
X10815228Y-80214838D01*
X10815228Y-80024361D01*
X10767609Y-79929123D01*
X10719990Y-79881504D01*
X10624752Y-79833885D01*
%TO.C,C10*%
X8485542Y-54138657D02*
X8533161Y-54186276D01*
X8580780Y-54329133D01*
X8580780Y-54424371D01*
X8533161Y-54567228D01*
X8437923Y-54662466D01*
X8342685Y-54710085D01*
X8152209Y-54757704D01*
X8009352Y-54757704D01*
X7818876Y-54710085D01*
X7723638Y-54662466D01*
X7628400Y-54567228D01*
X7580780Y-54424371D01*
X7580780Y-54329133D01*
X7628400Y-54186276D01*
X7676019Y-54138657D01*
X8580780Y-53186276D02*
X8580780Y-53757704D01*
X8580780Y-53471990D02*
X7580780Y-53471990D01*
X7723638Y-53567228D01*
X7818876Y-53662466D01*
X7866495Y-53757704D01*
X7580780Y-52567228D02*
X7580780Y-52471990D01*
X7628400Y-52376752D01*
X7676019Y-52329133D01*
X7771257Y-52281514D01*
X7961733Y-52233895D01*
X8199828Y-52233895D01*
X8390304Y-52281514D01*
X8485542Y-52329133D01*
X8533161Y-52376752D01*
X8580780Y-52471990D01*
X8580780Y-52567228D01*
X8533161Y-52662466D01*
X8485542Y-52710085D01*
X8390304Y-52757704D01*
X8199828Y-52805323D01*
X7961733Y-52805323D01*
X7771257Y-52757704D01*
X7676019Y-52710085D01*
X7628400Y-52662466D01*
X7580780Y-52567228D01*
%TO.C,C11*%
X23137342Y-13796157D02*
X23184961Y-13843776D01*
X23232580Y-13986633D01*
X23232580Y-14081871D01*
X23184961Y-14224728D01*
X23089723Y-14319966D01*
X22994485Y-14367585D01*
X22804009Y-14415204D01*
X22661152Y-14415204D01*
X22470676Y-14367585D01*
X22375438Y-14319966D01*
X22280200Y-14224728D01*
X22232580Y-14081871D01*
X22232580Y-13986633D01*
X22280200Y-13843776D01*
X22327819Y-13796157D01*
X23232580Y-12843776D02*
X23232580Y-13415204D01*
X23232580Y-13129490D02*
X22232580Y-13129490D01*
X22375438Y-13224728D01*
X22470676Y-13319966D01*
X22518295Y-13415204D01*
X23232580Y-11891395D02*
X23232580Y-12462823D01*
X23232580Y-12177109D02*
X22232580Y-12177109D01*
X22375438Y-12272347D01*
X22470676Y-12367585D01*
X22518295Y-12462823D01*
%TO.C,C12*%
X22201142Y-34297857D02*
X22248761Y-34345476D01*
X22296380Y-34488333D01*
X22296380Y-34583571D01*
X22248761Y-34726428D01*
X22153523Y-34821666D01*
X22058285Y-34869285D01*
X21867809Y-34916904D01*
X21724952Y-34916904D01*
X21534476Y-34869285D01*
X21439238Y-34821666D01*
X21344000Y-34726428D01*
X21296380Y-34583571D01*
X21296380Y-34488333D01*
X21344000Y-34345476D01*
X21391619Y-34297857D01*
X22296380Y-33345476D02*
X22296380Y-33916904D01*
X22296380Y-33631190D02*
X21296380Y-33631190D01*
X21439238Y-33726428D01*
X21534476Y-33821666D01*
X21582095Y-33916904D01*
X21391619Y-32964523D02*
X21344000Y-32916904D01*
X21296380Y-32821666D01*
X21296380Y-32583571D01*
X21344000Y-32488333D01*
X21391619Y-32440714D01*
X21486857Y-32393095D01*
X21582095Y-32393095D01*
X21724952Y-32440714D01*
X22296380Y-33012142D01*
X22296380Y-32393095D01*
%TO.C,C13*%
X30075142Y-34094657D02*
X30122761Y-34142276D01*
X30170380Y-34285133D01*
X30170380Y-34380371D01*
X30122761Y-34523228D01*
X30027523Y-34618466D01*
X29932285Y-34666085D01*
X29741809Y-34713704D01*
X29598952Y-34713704D01*
X29408476Y-34666085D01*
X29313238Y-34618466D01*
X29218000Y-34523228D01*
X29170380Y-34380371D01*
X29170380Y-34285133D01*
X29218000Y-34142276D01*
X29265619Y-34094657D01*
X30170380Y-33142276D02*
X30170380Y-33713704D01*
X30170380Y-33427990D02*
X29170380Y-33427990D01*
X29313238Y-33523228D01*
X29408476Y-33618466D01*
X29456095Y-33713704D01*
X29170380Y-32808942D02*
X29170380Y-32189895D01*
X29551333Y-32523228D01*
X29551333Y-32380371D01*
X29598952Y-32285133D01*
X29646571Y-32237514D01*
X29741809Y-32189895D01*
X29979904Y-32189895D01*
X30075142Y-32237514D01*
X30122761Y-32285133D01*
X30170380Y-32380371D01*
X30170380Y-32666085D01*
X30122761Y-32761323D01*
X30075142Y-32808942D01*
%TO.C,IC2*%
X13755809Y-9786880D02*
X13755809Y-8786880D01*
X14803428Y-9691642D02*
X14755809Y-9739261D01*
X14612952Y-9786880D01*
X14517714Y-9786880D01*
X14374857Y-9739261D01*
X14279619Y-9644023D01*
X14232000Y-9548785D01*
X14184380Y-9358309D01*
X14184380Y-9215452D01*
X14232000Y-9024976D01*
X14279619Y-8929738D01*
X14374857Y-8834500D01*
X14517714Y-8786880D01*
X14612952Y-8786880D01*
X14755809Y-8834500D01*
X14803428Y-8882119D01*
X15184380Y-8882119D02*
X15232000Y-8834500D01*
X15327238Y-8786880D01*
X15565333Y-8786880D01*
X15660571Y-8834500D01*
X15708190Y-8882119D01*
X15755809Y-8977357D01*
X15755809Y-9072595D01*
X15708190Y-9215452D01*
X15136761Y-9786880D01*
X15755809Y-9786880D01*
%TO.C,J2*%
X-3076533Y-93996380D02*
X-3076533Y-94710666D01*
X-3124152Y-94853523D01*
X-3219390Y-94948761D01*
X-3362247Y-94996380D01*
X-3457485Y-94996380D01*
X-2647961Y-94091619D02*
X-2600342Y-94044000D01*
X-2505104Y-93996380D01*
X-2267009Y-93996380D01*
X-2171771Y-94044000D01*
X-2124152Y-94091619D01*
X-2076533Y-94186857D01*
X-2076533Y-94282095D01*
X-2124152Y-94424952D01*
X-2695580Y-94996380D01*
X-2076533Y-94996380D01*
%TO.C,J3*%
X-12322133Y-93945580D02*
X-12322133Y-94659866D01*
X-12369752Y-94802723D01*
X-12464990Y-94897961D01*
X-12607847Y-94945580D01*
X-12703085Y-94945580D01*
X-11941180Y-93945580D02*
X-11322133Y-93945580D01*
X-11655466Y-94326533D01*
X-11512609Y-94326533D01*
X-11417371Y-94374152D01*
X-11369752Y-94421771D01*
X-11322133Y-94517009D01*
X-11322133Y-94755104D01*
X-11369752Y-94850342D01*
X-11417371Y-94897961D01*
X-11512609Y-94945580D01*
X-11798323Y-94945580D01*
X-11893561Y-94897961D01*
X-11941180Y-94850342D01*
%TO.C,J4*%
X34097580Y-47628133D02*
X34811866Y-47628133D01*
X34954723Y-47675752D01*
X35049961Y-47770990D01*
X35097580Y-47913847D01*
X35097580Y-48009085D01*
X34430914Y-46723371D02*
X35097580Y-46723371D01*
X34049961Y-46961466D02*
X34764247Y-47199561D01*
X34764247Y-46580514D01*
%TO.C,J6*%
X34351580Y-18240333D02*
X35065866Y-18240333D01*
X35208723Y-18287952D01*
X35303961Y-18383190D01*
X35351580Y-18526047D01*
X35351580Y-18621285D01*
X34351580Y-17335571D02*
X34351580Y-17526047D01*
X34399200Y-17621285D01*
X34446819Y-17668904D01*
X34589676Y-17764142D01*
X34780152Y-17811761D01*
X35161104Y-17811761D01*
X35256342Y-17764142D01*
X35303961Y-17716523D01*
X35351580Y-17621285D01*
X35351580Y-17430809D01*
X35303961Y-17335571D01*
X35256342Y-17287952D01*
X35161104Y-17240333D01*
X34923009Y-17240333D01*
X34827771Y-17287952D01*
X34780152Y-17335571D01*
X34732533Y-17430809D01*
X34732533Y-17621285D01*
X34780152Y-17716523D01*
X34827771Y-17764142D01*
X34923009Y-17811761D01*
%TO.C,R1*%
X849333Y-7500880D02*
X515999Y-7024690D01*
X277904Y-7500880D02*
X277904Y-6500880D01*
X658857Y-6500880D01*
X754095Y-6548500D01*
X801714Y-6596119D01*
X849333Y-6691357D01*
X849333Y-6834214D01*
X801714Y-6929452D01*
X754095Y-6977071D01*
X658857Y-7024690D01*
X277904Y-7024690D01*
X1801714Y-7500880D02*
X1230285Y-7500880D01*
X1515999Y-7500880D02*
X1515999Y-6500880D01*
X1420761Y-6643738D01*
X1325523Y-6738976D01*
X1230285Y-6786595D01*
%TO.C,R2*%
X-2325666Y-12961880D02*
X-2659000Y-12485690D01*
X-2897095Y-12961880D02*
X-2897095Y-11961880D01*
X-2516142Y-11961880D01*
X-2420904Y-12009500D01*
X-2373285Y-12057119D01*
X-2325666Y-12152357D01*
X-2325666Y-12295214D01*
X-2373285Y-12390452D01*
X-2420904Y-12438071D01*
X-2516142Y-12485690D01*
X-2897095Y-12485690D01*
X-1944714Y-12057119D02*
X-1897095Y-12009500D01*
X-1801857Y-11961880D01*
X-1563761Y-11961880D01*
X-1468523Y-12009500D01*
X-1420904Y-12057119D01*
X-1373285Y-12152357D01*
X-1373285Y-12247595D01*
X-1420904Y-12390452D01*
X-1992333Y-12961880D01*
X-1373285Y-12961880D01*
%TO.C,R3*%
X705380Y-32999466D02*
X229190Y-33332800D01*
X705380Y-33570895D02*
X-294619Y-33570895D01*
X-294619Y-33189942D01*
X-247000Y-33094704D01*
X-199380Y-33047085D01*
X-104142Y-32999466D01*
X38714Y-32999466D01*
X133952Y-33047085D01*
X181571Y-33094704D01*
X229190Y-33189942D01*
X229190Y-33570895D01*
X-294619Y-32666133D02*
X-294619Y-32047085D01*
X86333Y-32380419D01*
X86333Y-32237561D01*
X133952Y-32142323D01*
X181571Y-32094704D01*
X276809Y-32047085D01*
X514904Y-32047085D01*
X610142Y-32094704D01*
X657761Y-32142323D01*
X705380Y-32237561D01*
X705380Y-32523276D01*
X657761Y-32618514D01*
X610142Y-32666133D01*
%TO.C,Y1*%
X-11346609Y-33291390D02*
X-10870419Y-33291390D01*
X-11870419Y-33624723D02*
X-11346609Y-33291390D01*
X-11870419Y-32958057D01*
X-10870419Y-32100914D02*
X-10870419Y-32672342D01*
X-10870419Y-32386628D02*
X-11870419Y-32386628D01*
X-11727561Y-32481866D01*
X-11632323Y-32577104D01*
X-11584704Y-32672342D01*
%TD*%
M02*
