%TF.GenerationSoftware,KiCad,Pcbnew,(5.1.10)-1*%
%TF.CreationDate,2022-05-23T16:21:35+02:00*%
%TF.ProjectId,Auto_Uart,4175746f-5f55-4617-9274-2e6b69636164,rev?*%
%TF.SameCoordinates,Original*%
%TF.FileFunction,Copper,L2,Bot*%
%TF.FilePolarity,Positive*%
%FSLAX46Y46*%
G04 Gerber Fmt 4.6, Leading zero omitted, Abs format (unit mm)*
G04 Created by KiCad (PCBNEW (5.1.10)-1) date 2022-05-23 16:21:35*
%MOMM*%
%LPD*%
G01*
G04 APERTURE LIST*
%TA.AperFunction,ComponentPad*%
%ADD10O,1.700000X1.700000*%
%TD*%
%TA.AperFunction,ComponentPad*%
%ADD11R,1.700000X1.700000*%
%TD*%
%TA.AperFunction,ComponentPad*%
%ADD12C,2.000000*%
%TD*%
%TA.AperFunction,ComponentPad*%
%ADD13C,2.500000*%
%TD*%
%TA.AperFunction,ComponentPad*%
%ADD14R,2.600000X2.600000*%
%TD*%
%TA.AperFunction,ComponentPad*%
%ADD15C,2.600000*%
%TD*%
%TA.AperFunction,ComponentPad*%
%ADD16R,2.300000X1.500000*%
%TD*%
%TA.AperFunction,ComponentPad*%
%ADD17O,2.300000X1.500000*%
%TD*%
%TA.AperFunction,ComponentPad*%
%ADD18R,2.400000X1.600000*%
%TD*%
%TA.AperFunction,ComponentPad*%
%ADD19O,2.400000X1.600000*%
%TD*%
%TA.AperFunction,ComponentPad*%
%ADD20O,1.740000X2.190000*%
%TD*%
%TA.AperFunction,ComponentPad*%
%ADD21C,1.500000*%
%TD*%
%TA.AperFunction,Conductor*%
%ADD22C,0.254000*%
%TD*%
%TA.AperFunction,Conductor*%
%ADD23C,0.100000*%
%TD*%
G04 APERTURE END LIST*
D10*
%TO.P,J1,5*%
%TO.N,/PGC*%
X-7467600Y-17627600D03*
%TO.P,J1,4*%
%TO.N,/PGD*%
X-7467600Y-15087600D03*
%TO.P,J1,3*%
%TO.N,GND*%
X-7467600Y-12547600D03*
%TO.P,J1,2*%
%TO.N,+3V3*%
X-7467600Y-10007600D03*
D11*
%TO.P,J1,1*%
%TO.N,Net-(J1-Pad1)*%
X-7467600Y-7467600D03*
%TD*%
D12*
%TO.P,PS1,1*%
%TO.N,+6V*%
X25400000Y-93599000D03*
%TO.P,PS1,2*%
%TO.N,GND*%
X35560000Y-93599000D03*
%TO.P,PS1,3*%
X40640000Y-93599000D03*
%TO.P,PS1,4*%
%TO.N,Net-(PS1-Pad4)*%
X40640000Y-58039000D03*
%TO.P,PS1,5*%
%TO.N,GND*%
X35560000Y-58039000D03*
%TO.P,PS1,6*%
%TO.N,Net-(PS1-Pad6)*%
X30480000Y-58039000D03*
%TO.P,PS1,7*%
%TO.N,+5V*%
X25400000Y-58039000D03*
D13*
%TO.P,PS1,10*%
%TO.N,GND*%
X22020000Y-88519000D03*
%TO.P,PS1,11*%
X44170000Y-63119000D03*
%TD*%
D14*
%TO.P,J7,1*%
%TO.N,+5V*%
X42011600Y-6578600D03*
D15*
%TO.P,J7,2*%
%TO.N,GND*%
X42011600Y-1498600D03*
%TD*%
D14*
%TO.P,J5,1*%
%TO.N,+6V*%
X41656000Y-35255200D03*
D15*
%TO.P,J5,2*%
%TO.N,GND*%
X41656000Y-30175200D03*
%TD*%
D16*
%TO.P,U1,1*%
%TO.N,+5V*%
X11201400Y-69342000D03*
D17*
%TO.P,U1,2*%
%TO.N,GND*%
X11201400Y-66802000D03*
%TO.P,U1,3*%
%TO.N,+3V3*%
X11201400Y-64262000D03*
%TD*%
D18*
%TO.P,IC1,1*%
%TO.N,/TXD*%
X-4191000Y-70281800D03*
D19*
%TO.P,IC1,5*%
%TO.N,+3V3*%
X-11811000Y-62661800D03*
%TO.P,IC1,2*%
%TO.N,GND*%
X-4191000Y-67741800D03*
%TO.P,IC1,6*%
%TO.N,Net-(IC1-Pad6)*%
X-11811000Y-65201800D03*
%TO.P,IC1,3*%
%TO.N,+5V*%
X-4191000Y-65201800D03*
%TO.P,IC1,7*%
%TO.N,Net-(IC1-Pad7)*%
X-11811000Y-67741800D03*
%TO.P,IC1,4*%
%TO.N,/RXD*%
X-4191000Y-62661800D03*
%TO.P,IC1,8*%
%TO.N,GND*%
X-11811000Y-70281800D03*
%TD*%
D18*
%TO.P,IC2,1*%
%TO.N,/MCLR*%
X7010400Y-12039600D03*
D19*
%TO.P,IC2,15*%
%TO.N,/RXD*%
X14630400Y-45059600D03*
%TO.P,IC2,2*%
%TO.N,Net-(IC2-Pad2)*%
X7010400Y-14579600D03*
%TO.P,IC2,16*%
%TO.N,Net-(IC2-Pad16)*%
X14630400Y-42519600D03*
%TO.P,IC2,3*%
%TO.N,Net-(IC2-Pad3)*%
X7010400Y-17119600D03*
%TO.P,IC2,17*%
%TO.N,Net-(IC2-Pad17)*%
X14630400Y-39979600D03*
%TO.P,IC2,4*%
%TO.N,/PGD*%
X7010400Y-19659600D03*
%TO.P,IC2,18*%
%TO.N,Net-(IC2-Pad18)*%
X14630400Y-37439600D03*
%TO.P,IC2,5*%
%TO.N,/PGC*%
X7010400Y-22199600D03*
%TO.P,IC2,19*%
%TO.N,GND*%
X14630400Y-34899600D03*
%TO.P,IC2,6*%
%TO.N,Net-(IC2-Pad6)*%
X7010400Y-24739600D03*
%TO.P,IC2,20*%
%TO.N,Net-(C12-Pad1)*%
X14630400Y-32359600D03*
%TO.P,IC2,7*%
%TO.N,Net-(IC2-Pad7)*%
X7010400Y-27279600D03*
%TO.P,IC2,21*%
%TO.N,Net-(IC2-Pad21)*%
X14630400Y-29819600D03*
%TO.P,IC2,8*%
%TO.N,GND*%
X7010400Y-29819600D03*
%TO.P,IC2,22*%
%TO.N,Net-(IC2-Pad22)*%
X14630400Y-27279600D03*
%TO.P,IC2,9*%
%TO.N,Net-(C6-Pad1)*%
X7010400Y-32359600D03*
%TO.P,IC2,23*%
%TO.N,Net-(IC2-Pad23)*%
X14630400Y-24739600D03*
%TO.P,IC2,10*%
%TO.N,Net-(C3-Pad2)*%
X7010400Y-34899600D03*
%TO.P,IC2,24*%
%TO.N,Net-(IC2-Pad24)*%
X14630400Y-22199600D03*
%TO.P,IC2,11*%
%TO.N,/Uart_RXD*%
X7010400Y-37439600D03*
%TO.P,IC2,25*%
%TO.N,Net-(IC2-Pad25)*%
X14630400Y-19659600D03*
%TO.P,IC2,12*%
%TO.N,/Uart_TXD*%
X7010400Y-39979600D03*
%TO.P,IC2,26*%
%TO.N,Net-(IC2-Pad26)*%
X14630400Y-17119600D03*
%TO.P,IC2,13*%
%TO.N,+3V3*%
X7010400Y-42519600D03*
%TO.P,IC2,27*%
%TO.N,GND*%
X14630400Y-14579600D03*
%TO.P,IC2,14*%
%TO.N,/TXD*%
X7010400Y-45059600D03*
%TO.P,IC2,28*%
%TO.N,+3V3*%
X14630400Y-12039600D03*
%TD*%
%TO.P,J2,1*%
%TO.N,Net-(IC1-Pad7)*%
%TA.AperFunction,ComponentPad*%
G36*
G01*
X-603200Y-89578999D02*
X-603200Y-91269001D01*
G75*
G02*
X-853199Y-91519000I-249999J0D01*
G01*
X-2093201Y-91519000D01*
G75*
G02*
X-2343200Y-91269001I0J249999D01*
G01*
X-2343200Y-89578999D01*
G75*
G02*
X-2093201Y-89329000I249999J0D01*
G01*
X-853199Y-89329000D01*
G75*
G02*
X-603200Y-89578999I0J-249999D01*
G01*
G37*
%TD.AperFunction*%
D20*
%TO.P,J2,2*%
%TO.N,Net-(IC1-Pad6)*%
X-4013200Y-90424000D03*
%TD*%
%TO.P,J3,2*%
%TO.N,Net-(IC1-Pad6)*%
X-13258800Y-90373200D03*
%TO.P,J3,1*%
%TO.N,Net-(IC1-Pad7)*%
%TA.AperFunction,ComponentPad*%
G36*
G01*
X-9848800Y-89528199D02*
X-9848800Y-91218201D01*
G75*
G02*
X-10098799Y-91468200I-249999J0D01*
G01*
X-11338801Y-91468200D01*
G75*
G02*
X-11588800Y-91218201I0J249999D01*
G01*
X-11588800Y-89528199D01*
G75*
G02*
X-11338801Y-89278200I249999J0D01*
G01*
X-10098799Y-89278200D01*
G75*
G02*
X-9848800Y-89528199I0J-249999D01*
G01*
G37*
%TD.AperFunction*%
%TD*%
D15*
%TO.P,J4,2*%
%TO.N,GND*%
X41605200Y-44754800D03*
D14*
%TO.P,J4,1*%
%TO.N,+6V*%
X41605200Y-49834800D03*
%TD*%
D15*
%TO.P,J6,2*%
%TO.N,GND*%
X41859200Y-15367000D03*
D14*
%TO.P,J6,1*%
%TO.N,+5V*%
X41859200Y-20447000D03*
%TD*%
D21*
%TO.P,Y1,1*%
%TO.N,Net-(C3-Pad2)*%
X-7797800Y-35255200D03*
%TO.P,Y1,2*%
%TO.N,Net-(C6-Pad1)*%
X-7797800Y-30375200D03*
%TD*%
D11*
%TO.P,J8,1*%
%TO.N,Net-(J8-Pad1)*%
X33121600Y1574800D03*
D10*
%TO.P,J8,2*%
%TO.N,+5V*%
X33121600Y-965200D03*
%TO.P,J8,3*%
%TO.N,Net-(J8-Pad3)*%
X30581600Y1574800D03*
%TO.P,J8,4*%
%TO.N,+5V*%
X30581600Y-965200D03*
%TO.P,J8,5*%
%TO.N,Net-(J8-Pad5)*%
X28041600Y1574800D03*
%TO.P,J8,6*%
%TO.N,GND*%
X28041600Y-965200D03*
%TO.P,J8,7*%
%TO.N,Net-(J8-Pad7)*%
X25501600Y1574800D03*
%TO.P,J8,8*%
%TO.N,/Uart_TXD*%
X25501600Y-965200D03*
%TO.P,J8,9*%
%TO.N,GND*%
X22961600Y1574800D03*
%TO.P,J8,10*%
%TO.N,/Uart_RXD*%
X22961600Y-965200D03*
%TO.P,J8,11*%
%TO.N,Net-(J8-Pad11)*%
X20421600Y1574800D03*
%TO.P,J8,12*%
%TO.N,Net-(J8-Pad12)*%
X20421600Y-965200D03*
%TO.P,J8,13*%
%TO.N,Net-(J8-Pad13)*%
X17881600Y1574800D03*
%TO.P,J8,14*%
%TO.N,GND*%
X17881600Y-965200D03*
%TO.P,J8,15*%
%TO.N,Net-(J8-Pad15)*%
X15341600Y1574800D03*
%TO.P,J8,16*%
%TO.N,Net-(J8-Pad16)*%
X15341600Y-965200D03*
%TO.P,J8,17*%
%TO.N,Net-(J8-Pad17)*%
X12801600Y1574800D03*
%TO.P,J8,18*%
%TO.N,Net-(J8-Pad18)*%
X12801600Y-965200D03*
%TO.P,J8,19*%
%TO.N,Net-(J8-Pad19)*%
X10261600Y1574800D03*
%TO.P,J8,20*%
%TO.N,GND*%
X10261600Y-965200D03*
%TO.P,J8,21*%
%TO.N,Net-(J8-Pad21)*%
X7721600Y1574800D03*
%TO.P,J8,22*%
%TO.N,Net-(J8-Pad22)*%
X7721600Y-965200D03*
%TO.P,J8,23*%
%TO.N,Net-(J8-Pad23)*%
X5181600Y1574800D03*
%TO.P,J8,24*%
%TO.N,Net-(J8-Pad24)*%
X5181600Y-965200D03*
%TO.P,J8,25*%
%TO.N,GND*%
X2641600Y1574800D03*
%TO.P,J8,26*%
%TO.N,Net-(J8-Pad26)*%
X2641600Y-965200D03*
%TO.P,J8,27*%
%TO.N,Net-(J8-Pad27)*%
X101600Y1574800D03*
%TO.P,J8,28*%
%TO.N,Net-(J8-Pad28)*%
X101600Y-965200D03*
%TO.P,J8,29*%
%TO.N,Net-(J8-Pad29)*%
X-2438400Y1574800D03*
%TO.P,J8,30*%
%TO.N,GND*%
X-2438400Y-965200D03*
%TO.P,J8,31*%
%TO.N,Net-(J8-Pad31)*%
X-4978400Y1574800D03*
%TO.P,J8,32*%
%TO.N,Net-(J8-Pad32)*%
X-4978400Y-965200D03*
%TO.P,J8,33*%
%TO.N,Net-(J8-Pad33)*%
X-7518400Y1574800D03*
%TO.P,J8,34*%
%TO.N,GND*%
X-7518400Y-965200D03*
%TO.P,J8,35*%
%TO.N,Net-(J8-Pad35)*%
X-10058400Y1574800D03*
%TO.P,J8,36*%
%TO.N,Net-(J8-Pad36)*%
X-10058400Y-965200D03*
%TO.P,J8,37*%
%TO.N,Net-(J8-Pad37)*%
X-12598400Y1574800D03*
%TO.P,J8,38*%
%TO.N,Net-(J8-Pad38)*%
X-12598400Y-965200D03*
%TO.P,J8,39*%
%TO.N,GND*%
X-15138400Y1574800D03*
%TO.P,J8,40*%
%TO.N,Net-(J8-Pad40)*%
X-15138400Y-965200D03*
%TD*%
D22*
%TO.N,GND*%
X47346001Y-95733000D02*
X-17374000Y-95733000D01*
X-17374000Y-92172372D01*
X12751000Y-92172372D01*
X12751000Y-92612628D01*
X12836890Y-93044425D01*
X13005369Y-93451169D01*
X13249962Y-93817229D01*
X13561271Y-94128538D01*
X13927331Y-94373131D01*
X14334075Y-94541610D01*
X14765872Y-94627500D01*
X15206128Y-94627500D01*
X15637925Y-94541610D01*
X16044669Y-94373131D01*
X16410729Y-94128538D01*
X16722038Y-93817229D01*
X16966631Y-93451169D01*
X16972099Y-93437967D01*
X23765000Y-93437967D01*
X23765000Y-93760033D01*
X23827832Y-94075912D01*
X23951082Y-94373463D01*
X24130013Y-94641252D01*
X24357748Y-94868987D01*
X24625537Y-95047918D01*
X24923088Y-95171168D01*
X25238967Y-95234000D01*
X25561033Y-95234000D01*
X25876912Y-95171168D01*
X26174463Y-95047918D01*
X26442252Y-94868987D01*
X26576826Y-94734413D01*
X34604192Y-94734413D01*
X34699956Y-94998814D01*
X34989571Y-95139704D01*
X35301108Y-95221384D01*
X35622595Y-95240718D01*
X35941675Y-95196961D01*
X36246088Y-95091795D01*
X36420044Y-94998814D01*
X36515808Y-94734413D01*
X39684192Y-94734413D01*
X39779956Y-94998814D01*
X40069571Y-95139704D01*
X40381108Y-95221384D01*
X40702595Y-95240718D01*
X41021675Y-95196961D01*
X41326088Y-95091795D01*
X41500044Y-94998814D01*
X41595808Y-94734413D01*
X40640000Y-93778605D01*
X39684192Y-94734413D01*
X36515808Y-94734413D01*
X35560000Y-93778605D01*
X34604192Y-94734413D01*
X26576826Y-94734413D01*
X26669987Y-94641252D01*
X26848918Y-94373463D01*
X26972168Y-94075912D01*
X27035000Y-93760033D01*
X27035000Y-93661595D01*
X33918282Y-93661595D01*
X33962039Y-93980675D01*
X34067205Y-94285088D01*
X34160186Y-94459044D01*
X34424587Y-94554808D01*
X35380395Y-93599000D01*
X35739605Y-93599000D01*
X36695413Y-94554808D01*
X36959814Y-94459044D01*
X37100704Y-94169429D01*
X37182384Y-93857892D01*
X37194189Y-93661595D01*
X38998282Y-93661595D01*
X39042039Y-93980675D01*
X39147205Y-94285088D01*
X39240186Y-94459044D01*
X39504587Y-94554808D01*
X40460395Y-93599000D01*
X40819605Y-93599000D01*
X41775413Y-94554808D01*
X42039814Y-94459044D01*
X42180704Y-94169429D01*
X42262384Y-93857892D01*
X42281718Y-93536405D01*
X42237961Y-93217325D01*
X42132795Y-92912912D01*
X42039814Y-92738956D01*
X41775413Y-92643192D01*
X40819605Y-93599000D01*
X40460395Y-93599000D01*
X39504587Y-92643192D01*
X39240186Y-92738956D01*
X39099296Y-93028571D01*
X39017616Y-93340108D01*
X38998282Y-93661595D01*
X37194189Y-93661595D01*
X37201718Y-93536405D01*
X37157961Y-93217325D01*
X37052795Y-92912912D01*
X36959814Y-92738956D01*
X36695413Y-92643192D01*
X35739605Y-93599000D01*
X35380395Y-93599000D01*
X34424587Y-92643192D01*
X34160186Y-92738956D01*
X34019296Y-93028571D01*
X33937616Y-93340108D01*
X33918282Y-93661595D01*
X27035000Y-93661595D01*
X27035000Y-93437967D01*
X26972168Y-93122088D01*
X26848918Y-92824537D01*
X26669987Y-92556748D01*
X26576826Y-92463587D01*
X34604192Y-92463587D01*
X35560000Y-93419395D01*
X36515808Y-92463587D01*
X39684192Y-92463587D01*
X40640000Y-93419395D01*
X41595808Y-92463587D01*
X41500044Y-92199186D01*
X41210429Y-92058296D01*
X40898892Y-91976616D01*
X40577405Y-91957282D01*
X40258325Y-92001039D01*
X39953912Y-92106205D01*
X39779956Y-92199186D01*
X39684192Y-92463587D01*
X36515808Y-92463587D01*
X36420044Y-92199186D01*
X36130429Y-92058296D01*
X35818892Y-91976616D01*
X35497405Y-91957282D01*
X35178325Y-92001039D01*
X34873912Y-92106205D01*
X34699956Y-92199186D01*
X34604192Y-92463587D01*
X26576826Y-92463587D01*
X26442252Y-92329013D01*
X26174463Y-92150082D01*
X25876912Y-92026832D01*
X25561033Y-91964000D01*
X25238967Y-91964000D01*
X24923088Y-92026832D01*
X24625537Y-92150082D01*
X24357748Y-92329013D01*
X24130013Y-92556748D01*
X23951082Y-92824537D01*
X23827832Y-93122088D01*
X23765000Y-93437967D01*
X16972099Y-93437967D01*
X17135110Y-93044425D01*
X17221000Y-92612628D01*
X17221000Y-92172372D01*
X17135110Y-91740575D01*
X16966631Y-91333831D01*
X16722038Y-90967771D01*
X16410729Y-90656462D01*
X16044669Y-90411869D01*
X15637925Y-90243390D01*
X15206128Y-90157500D01*
X14765872Y-90157500D01*
X14334075Y-90243390D01*
X13927331Y-90411869D01*
X13561271Y-90656462D01*
X13249962Y-90967771D01*
X13005369Y-91333831D01*
X12836890Y-91740575D01*
X12751000Y-92172372D01*
X-17374000Y-92172372D01*
X-17374000Y-90074264D01*
X-14763800Y-90074264D01*
X-14763800Y-90672135D01*
X-14742024Y-90893231D01*
X-14655966Y-91176924D01*
X-14516217Y-91438378D01*
X-14328145Y-91667545D01*
X-14098979Y-91855617D01*
X-13837525Y-91995366D01*
X-13553832Y-92081424D01*
X-13258800Y-92110482D01*
X-12963769Y-92081424D01*
X-12680076Y-91995366D01*
X-12418622Y-91855617D01*
X-12189455Y-91667545D01*
X-12135734Y-91602086D01*
X-12077205Y-91711587D01*
X-11966762Y-91846162D01*
X-11832187Y-91956605D01*
X-11678651Y-92038672D01*
X-11512055Y-92089208D01*
X-11338801Y-92106272D01*
X-10098799Y-92106272D01*
X-9925545Y-92089208D01*
X-9758949Y-92038672D01*
X-9605413Y-91956605D01*
X-9470838Y-91846162D01*
X-9360395Y-91711587D01*
X-9278328Y-91558051D01*
X-9227792Y-91391455D01*
X-9210728Y-91218201D01*
X-9210728Y-90125064D01*
X-5518200Y-90125064D01*
X-5518200Y-90722935D01*
X-5496424Y-90944031D01*
X-5410366Y-91227724D01*
X-5270617Y-91489178D01*
X-5082545Y-91718345D01*
X-4853379Y-91906417D01*
X-4591925Y-92046166D01*
X-4308232Y-92132224D01*
X-4013200Y-92161282D01*
X-3718169Y-92132224D01*
X-3434476Y-92046166D01*
X-3173022Y-91906417D01*
X-2943855Y-91718345D01*
X-2890134Y-91652886D01*
X-2831605Y-91762387D01*
X-2721162Y-91896962D01*
X-2586587Y-92007405D01*
X-2433051Y-92089472D01*
X-2266455Y-92140008D01*
X-2093201Y-92157072D01*
X-853199Y-92157072D01*
X-679945Y-92140008D01*
X-513349Y-92089472D01*
X-359813Y-92007405D01*
X-225238Y-91896962D01*
X-114795Y-91762387D01*
X-32728Y-91608851D01*
X17808Y-91442255D01*
X34872Y-91269001D01*
X34872Y-89832605D01*
X20886000Y-89832605D01*
X21011914Y-90122577D01*
X21344126Y-90288433D01*
X21702312Y-90386290D01*
X22072706Y-90412389D01*
X22441075Y-90365725D01*
X22793262Y-90248094D01*
X23028086Y-90122577D01*
X23154000Y-89832605D01*
X22020000Y-88698605D01*
X20886000Y-89832605D01*
X34872Y-89832605D01*
X34872Y-89578999D01*
X17808Y-89405745D01*
X-32728Y-89239149D01*
X-114795Y-89085613D01*
X-225238Y-88951038D01*
X-359813Y-88840595D01*
X-513349Y-88758528D01*
X-679945Y-88707992D01*
X-853199Y-88690928D01*
X-2093201Y-88690928D01*
X-2266455Y-88707992D01*
X-2433051Y-88758528D01*
X-2586587Y-88840595D01*
X-2721162Y-88951038D01*
X-2831605Y-89085613D01*
X-2890134Y-89195114D01*
X-2943855Y-89129655D01*
X-3173021Y-88941583D01*
X-3434475Y-88801834D01*
X-3718168Y-88715776D01*
X-4013200Y-88686718D01*
X-4308231Y-88715776D01*
X-4591924Y-88801834D01*
X-4853378Y-88941583D01*
X-5082545Y-89129655D01*
X-5270617Y-89358821D01*
X-5410366Y-89620275D01*
X-5496424Y-89903968D01*
X-5518200Y-90125064D01*
X-9210728Y-90125064D01*
X-9210728Y-89528199D01*
X-9227792Y-89354945D01*
X-9278328Y-89188349D01*
X-9360395Y-89034813D01*
X-9470838Y-88900238D01*
X-9605413Y-88789795D01*
X-9758949Y-88707728D01*
X-9925545Y-88657192D01*
X-10098799Y-88640128D01*
X-11338801Y-88640128D01*
X-11512055Y-88657192D01*
X-11678651Y-88707728D01*
X-11832187Y-88789795D01*
X-11966762Y-88900238D01*
X-12077205Y-89034813D01*
X-12135734Y-89144314D01*
X-12189455Y-89078855D01*
X-12418621Y-88890783D01*
X-12680075Y-88751034D01*
X-12963768Y-88664976D01*
X-13258800Y-88635918D01*
X-13553831Y-88664976D01*
X-13837524Y-88751034D01*
X-14098978Y-88890783D01*
X-14328145Y-89078855D01*
X-14516217Y-89308021D01*
X-14655966Y-89569475D01*
X-14742024Y-89853168D01*
X-14763800Y-90074264D01*
X-17374000Y-90074264D01*
X-17374000Y-88571706D01*
X20126611Y-88571706D01*
X20173275Y-88940075D01*
X20290906Y-89292262D01*
X20416423Y-89527086D01*
X20706395Y-89653000D01*
X21840395Y-88519000D01*
X22199605Y-88519000D01*
X23333605Y-89653000D01*
X23623577Y-89527086D01*
X23789433Y-89194874D01*
X23887290Y-88836688D01*
X23913389Y-88466294D01*
X23866725Y-88097925D01*
X23749094Y-87745738D01*
X23623577Y-87510914D01*
X23333605Y-87385000D01*
X22199605Y-88519000D01*
X21840395Y-88519000D01*
X20706395Y-87385000D01*
X20416423Y-87510914D01*
X20250567Y-87843126D01*
X20152710Y-88201312D01*
X20126611Y-88571706D01*
X-17374000Y-88571706D01*
X-17374000Y-87205395D01*
X20886000Y-87205395D01*
X22020000Y-88339395D01*
X23154000Y-87205395D01*
X23028086Y-86915423D01*
X22695874Y-86749567D01*
X22337688Y-86651710D01*
X21967294Y-86625611D01*
X21598925Y-86672275D01*
X21246738Y-86789906D01*
X21011914Y-86915423D01*
X20886000Y-87205395D01*
X-17374000Y-87205395D01*
X-17374000Y-70630839D01*
X-13602904Y-70630839D01*
X-13585367Y-70713618D01*
X-13474715Y-70973446D01*
X-13315500Y-71206695D01*
X-13113839Y-71404401D01*
X-12877483Y-71558966D01*
X-12615514Y-71664450D01*
X-12338000Y-71716800D01*
X-11938000Y-71716800D01*
X-11938000Y-70408800D01*
X-11684000Y-70408800D01*
X-11684000Y-71716800D01*
X-11284000Y-71716800D01*
X-11006486Y-71664450D01*
X-10744517Y-71558966D01*
X-10508161Y-71404401D01*
X-10306500Y-71206695D01*
X-10147285Y-70973446D01*
X-10036633Y-70713618D01*
X-10019096Y-70630839D01*
X-10141085Y-70408800D01*
X-11684000Y-70408800D01*
X-11938000Y-70408800D01*
X-13480915Y-70408800D01*
X-13602904Y-70630839D01*
X-17374000Y-70630839D01*
X-17374000Y-62661800D01*
X-13652943Y-62661800D01*
X-13625236Y-62943109D01*
X-13543182Y-63213608D01*
X-13409932Y-63462901D01*
X-13230608Y-63681408D01*
X-13012101Y-63860732D01*
X-12879142Y-63931800D01*
X-13012101Y-64002868D01*
X-13230608Y-64182192D01*
X-13409932Y-64400699D01*
X-13543182Y-64649992D01*
X-13625236Y-64920491D01*
X-13652943Y-65201800D01*
X-13625236Y-65483109D01*
X-13543182Y-65753608D01*
X-13409932Y-66002901D01*
X-13230608Y-66221408D01*
X-13012101Y-66400732D01*
X-12879142Y-66471800D01*
X-13012101Y-66542868D01*
X-13230608Y-66722192D01*
X-13409932Y-66940699D01*
X-13543182Y-67189992D01*
X-13625236Y-67460491D01*
X-13652943Y-67741800D01*
X-13625236Y-68023109D01*
X-13543182Y-68293608D01*
X-13409932Y-68542901D01*
X-13230608Y-68761408D01*
X-13012101Y-68940732D01*
X-12884259Y-69009065D01*
X-13113839Y-69159199D01*
X-13315500Y-69356905D01*
X-13474715Y-69590154D01*
X-13585367Y-69849982D01*
X-13602904Y-69932761D01*
X-13480915Y-70154800D01*
X-11938000Y-70154800D01*
X-11938000Y-70134800D01*
X-11684000Y-70134800D01*
X-11684000Y-70154800D01*
X-10141085Y-70154800D01*
X-10019096Y-69932761D01*
X-10036633Y-69849982D01*
X-10147285Y-69590154D01*
X-10221247Y-69481800D01*
X-6029072Y-69481800D01*
X-6029072Y-71081800D01*
X-6016812Y-71206282D01*
X-5980502Y-71325980D01*
X-5921537Y-71436294D01*
X-5842185Y-71532985D01*
X-5745494Y-71612337D01*
X-5635180Y-71671302D01*
X-5515482Y-71707612D01*
X-5391000Y-71719872D01*
X-2991000Y-71719872D01*
X-2866518Y-71707612D01*
X-2746820Y-71671302D01*
X-2636506Y-71612337D01*
X-2539815Y-71532985D01*
X-2460463Y-71436294D01*
X-2401498Y-71325980D01*
X-2365188Y-71206282D01*
X-2352928Y-71081800D01*
X-2352928Y-69481800D01*
X-2365188Y-69357318D01*
X-2401498Y-69237620D01*
X-2460463Y-69127306D01*
X-2539815Y-69030615D01*
X-2636506Y-68951263D01*
X-2746820Y-68892298D01*
X-2866518Y-68855988D01*
X-2878387Y-68854819D01*
X-2686500Y-68666695D01*
X-2635514Y-68592000D01*
X9413328Y-68592000D01*
X9413328Y-70092000D01*
X9425588Y-70216482D01*
X9461898Y-70336180D01*
X9520863Y-70446494D01*
X9600215Y-70543185D01*
X9696906Y-70622537D01*
X9807220Y-70681502D01*
X9926918Y-70717812D01*
X10051400Y-70730072D01*
X12351400Y-70730072D01*
X12475882Y-70717812D01*
X12595580Y-70681502D01*
X12705894Y-70622537D01*
X12802585Y-70543185D01*
X12881937Y-70446494D01*
X12940902Y-70336180D01*
X12977212Y-70216482D01*
X12989472Y-70092000D01*
X12989472Y-68592000D01*
X12977212Y-68467518D01*
X12940902Y-68347820D01*
X12881937Y-68237506D01*
X12802585Y-68140815D01*
X12705894Y-68061463D01*
X12595580Y-68002498D01*
X12475882Y-67966188D01*
X12366526Y-67955418D01*
X12476461Y-67883028D01*
X12670545Y-67691540D01*
X12823542Y-67465868D01*
X12929573Y-67214684D01*
X12943718Y-67143185D01*
X12821056Y-66929000D01*
X11328400Y-66929000D01*
X11328400Y-66949000D01*
X11074400Y-66949000D01*
X11074400Y-66929000D01*
X9581744Y-66929000D01*
X9459082Y-67143185D01*
X9473227Y-67214684D01*
X9579258Y-67465868D01*
X9732255Y-67691540D01*
X9926339Y-67883028D01*
X10036274Y-67955418D01*
X9926918Y-67966188D01*
X9807220Y-68002498D01*
X9696906Y-68061463D01*
X9600215Y-68140815D01*
X9520863Y-68237506D01*
X9461898Y-68347820D01*
X9425588Y-68467518D01*
X9413328Y-68592000D01*
X-2635514Y-68592000D01*
X-2527285Y-68433446D01*
X-2416633Y-68173618D01*
X-2399096Y-68090839D01*
X-2521085Y-67868800D01*
X-4064000Y-67868800D01*
X-4064000Y-67888800D01*
X-4318000Y-67888800D01*
X-4318000Y-67868800D01*
X-5860915Y-67868800D01*
X-5982904Y-68090839D01*
X-5965367Y-68173618D01*
X-5854715Y-68433446D01*
X-5695500Y-68666695D01*
X-5503613Y-68854819D01*
X-5515482Y-68855988D01*
X-5635180Y-68892298D01*
X-5745494Y-68951263D01*
X-5842185Y-69030615D01*
X-5921537Y-69127306D01*
X-5980502Y-69237620D01*
X-6016812Y-69357318D01*
X-6029072Y-69481800D01*
X-10221247Y-69481800D01*
X-10306500Y-69356905D01*
X-10508161Y-69159199D01*
X-10737741Y-69009065D01*
X-10609899Y-68940732D01*
X-10391392Y-68761408D01*
X-10212068Y-68542901D01*
X-10078818Y-68293608D01*
X-9996764Y-68023109D01*
X-9969057Y-67741800D01*
X-9996764Y-67460491D01*
X-10078818Y-67189992D01*
X-10212068Y-66940699D01*
X-10391392Y-66722192D01*
X-10609899Y-66542868D01*
X-10742858Y-66471800D01*
X-10609899Y-66400732D01*
X-10391392Y-66221408D01*
X-10212068Y-66002901D01*
X-10078818Y-65753608D01*
X-9996764Y-65483109D01*
X-9969057Y-65201800D01*
X-9996764Y-64920491D01*
X-10078818Y-64649992D01*
X-10212068Y-64400699D01*
X-10391392Y-64182192D01*
X-10609899Y-64002868D01*
X-10742858Y-63931800D01*
X-10609899Y-63860732D01*
X-10391392Y-63681408D01*
X-10212068Y-63462901D01*
X-10078818Y-63213608D01*
X-9996764Y-62943109D01*
X-9969057Y-62661800D01*
X-6032943Y-62661800D01*
X-6005236Y-62943109D01*
X-5923182Y-63213608D01*
X-5789932Y-63462901D01*
X-5610608Y-63681408D01*
X-5392101Y-63860732D01*
X-5259142Y-63931800D01*
X-5392101Y-64002868D01*
X-5610608Y-64182192D01*
X-5789932Y-64400699D01*
X-5923182Y-64649992D01*
X-6005236Y-64920491D01*
X-6032943Y-65201800D01*
X-6005236Y-65483109D01*
X-5923182Y-65753608D01*
X-5789932Y-66002901D01*
X-5610608Y-66221408D01*
X-5392101Y-66400732D01*
X-5264259Y-66469065D01*
X-5493839Y-66619199D01*
X-5695500Y-66816905D01*
X-5854715Y-67050154D01*
X-5965367Y-67309982D01*
X-5982904Y-67392761D01*
X-5860915Y-67614800D01*
X-4318000Y-67614800D01*
X-4318000Y-67594800D01*
X-4064000Y-67594800D01*
X-4064000Y-67614800D01*
X-2521085Y-67614800D01*
X-2399096Y-67392761D01*
X-2416633Y-67309982D01*
X-2527285Y-67050154D01*
X-2686500Y-66816905D01*
X-2888161Y-66619199D01*
X-3117741Y-66469065D01*
X-2989899Y-66400732D01*
X-2771392Y-66221408D01*
X-2592068Y-66002901D01*
X-2458818Y-65753608D01*
X-2376764Y-65483109D01*
X-2349057Y-65201800D01*
X-2376764Y-64920491D01*
X-2458818Y-64649992D01*
X-2592068Y-64400699D01*
X-2705895Y-64262000D01*
X9409699Y-64262000D01*
X9436440Y-64533507D01*
X9515636Y-64794581D01*
X9644243Y-65035188D01*
X9817319Y-65246081D01*
X10028212Y-65419157D01*
X10243978Y-65534486D01*
X10154051Y-65571028D01*
X9926339Y-65720972D01*
X9732255Y-65912460D01*
X9579258Y-66138132D01*
X9473227Y-66389316D01*
X9459082Y-66460815D01*
X9581744Y-66675000D01*
X11074400Y-66675000D01*
X11074400Y-66655000D01*
X11328400Y-66655000D01*
X11328400Y-66675000D01*
X12821056Y-66675000D01*
X12943718Y-66460815D01*
X12929573Y-66389316D01*
X12823542Y-66138132D01*
X12670545Y-65912460D01*
X12476461Y-65720972D01*
X12248749Y-65571028D01*
X12158822Y-65534486D01*
X12374588Y-65419157D01*
X12585481Y-65246081D01*
X12758557Y-65035188D01*
X12887164Y-64794581D01*
X12966360Y-64533507D01*
X12976297Y-64432605D01*
X43036000Y-64432605D01*
X43161914Y-64722577D01*
X43494126Y-64888433D01*
X43852312Y-64986290D01*
X44222706Y-65012389D01*
X44591075Y-64965725D01*
X44943262Y-64848094D01*
X45178086Y-64722577D01*
X45304000Y-64432605D01*
X44170000Y-63298605D01*
X43036000Y-64432605D01*
X12976297Y-64432605D01*
X12993101Y-64262000D01*
X12966360Y-63990493D01*
X12887164Y-63729419D01*
X12758557Y-63488812D01*
X12585481Y-63277919D01*
X12456061Y-63171706D01*
X42276611Y-63171706D01*
X42323275Y-63540075D01*
X42440906Y-63892262D01*
X42566423Y-64127086D01*
X42856395Y-64253000D01*
X43990395Y-63119000D01*
X44349605Y-63119000D01*
X45483605Y-64253000D01*
X45773577Y-64127086D01*
X45939433Y-63794874D01*
X46037290Y-63436688D01*
X46063389Y-63066294D01*
X46016725Y-62697925D01*
X45899094Y-62345738D01*
X45773577Y-62110914D01*
X45483605Y-61985000D01*
X44349605Y-63119000D01*
X43990395Y-63119000D01*
X42856395Y-61985000D01*
X42566423Y-62110914D01*
X42400567Y-62443126D01*
X42302710Y-62801312D01*
X42276611Y-63171706D01*
X12456061Y-63171706D01*
X12374588Y-63104843D01*
X12133981Y-62976236D01*
X11872907Y-62897040D01*
X11669437Y-62877000D01*
X10733363Y-62877000D01*
X10529893Y-62897040D01*
X10268819Y-62976236D01*
X10028212Y-63104843D01*
X9817319Y-63277919D01*
X9644243Y-63488812D01*
X9515636Y-63729419D01*
X9436440Y-63990493D01*
X9409699Y-64262000D01*
X-2705895Y-64262000D01*
X-2771392Y-64182192D01*
X-2989899Y-64002868D01*
X-3122858Y-63931800D01*
X-2989899Y-63860732D01*
X-2771392Y-63681408D01*
X-2592068Y-63462901D01*
X-2458818Y-63213608D01*
X-2376764Y-62943109D01*
X-2349057Y-62661800D01*
X-2376764Y-62380491D01*
X-2458818Y-62109992D01*
X-2592068Y-61860699D01*
X-2637454Y-61805395D01*
X43036000Y-61805395D01*
X44170000Y-62939395D01*
X45304000Y-61805395D01*
X45178086Y-61515423D01*
X44845874Y-61349567D01*
X44487688Y-61251710D01*
X44117294Y-61225611D01*
X43748925Y-61272275D01*
X43396738Y-61389906D01*
X43161914Y-61515423D01*
X43036000Y-61805395D01*
X-2637454Y-61805395D01*
X-2771392Y-61642192D01*
X-2989899Y-61462868D01*
X-3239192Y-61329618D01*
X-3509691Y-61247564D01*
X-3720508Y-61226800D01*
X-4661492Y-61226800D01*
X-4872309Y-61247564D01*
X-5142808Y-61329618D01*
X-5392101Y-61462868D01*
X-5610608Y-61642192D01*
X-5789932Y-61860699D01*
X-5923182Y-62109992D01*
X-6005236Y-62380491D01*
X-6032943Y-62661800D01*
X-9969057Y-62661800D01*
X-9996764Y-62380491D01*
X-10078818Y-62109992D01*
X-10212068Y-61860699D01*
X-10391392Y-61642192D01*
X-10609899Y-61462868D01*
X-10859192Y-61329618D01*
X-11129691Y-61247564D01*
X-11340508Y-61226800D01*
X-12281492Y-61226800D01*
X-12492309Y-61247564D01*
X-12762808Y-61329618D01*
X-13012101Y-61462868D01*
X-13230608Y-61642192D01*
X-13409932Y-61860699D01*
X-13543182Y-62109992D01*
X-13625236Y-62380491D01*
X-13652943Y-62661800D01*
X-17374000Y-62661800D01*
X-17374000Y-57877967D01*
X23765000Y-57877967D01*
X23765000Y-58200033D01*
X23827832Y-58515912D01*
X23951082Y-58813463D01*
X24130013Y-59081252D01*
X24357748Y-59308987D01*
X24625537Y-59487918D01*
X24923088Y-59611168D01*
X25238967Y-59674000D01*
X25561033Y-59674000D01*
X25876912Y-59611168D01*
X26174463Y-59487918D01*
X26442252Y-59308987D01*
X26669987Y-59081252D01*
X26848918Y-58813463D01*
X26972168Y-58515912D01*
X27035000Y-58200033D01*
X27035000Y-57877967D01*
X28845000Y-57877967D01*
X28845000Y-58200033D01*
X28907832Y-58515912D01*
X29031082Y-58813463D01*
X29210013Y-59081252D01*
X29437748Y-59308987D01*
X29705537Y-59487918D01*
X30003088Y-59611168D01*
X30318967Y-59674000D01*
X30641033Y-59674000D01*
X30956912Y-59611168D01*
X31254463Y-59487918D01*
X31522252Y-59308987D01*
X31656826Y-59174413D01*
X34604192Y-59174413D01*
X34699956Y-59438814D01*
X34989571Y-59579704D01*
X35301108Y-59661384D01*
X35622595Y-59680718D01*
X35941675Y-59636961D01*
X36246088Y-59531795D01*
X36420044Y-59438814D01*
X36515808Y-59174413D01*
X35560000Y-58218605D01*
X34604192Y-59174413D01*
X31656826Y-59174413D01*
X31749987Y-59081252D01*
X31928918Y-58813463D01*
X32052168Y-58515912D01*
X32115000Y-58200033D01*
X32115000Y-58101595D01*
X33918282Y-58101595D01*
X33962039Y-58420675D01*
X34067205Y-58725088D01*
X34160186Y-58899044D01*
X34424587Y-58994808D01*
X35380395Y-58039000D01*
X35739605Y-58039000D01*
X36695413Y-58994808D01*
X36959814Y-58899044D01*
X37100704Y-58609429D01*
X37182384Y-58297892D01*
X37201718Y-57976405D01*
X37188219Y-57877967D01*
X39005000Y-57877967D01*
X39005000Y-58200033D01*
X39067832Y-58515912D01*
X39191082Y-58813463D01*
X39370013Y-59081252D01*
X39597748Y-59308987D01*
X39865537Y-59487918D01*
X40163088Y-59611168D01*
X40478967Y-59674000D01*
X40801033Y-59674000D01*
X41116912Y-59611168D01*
X41414463Y-59487918D01*
X41682252Y-59308987D01*
X41909987Y-59081252D01*
X42088918Y-58813463D01*
X42212168Y-58515912D01*
X42275000Y-58200033D01*
X42275000Y-57877967D01*
X42212168Y-57562088D01*
X42088918Y-57264537D01*
X41909987Y-56996748D01*
X41682252Y-56769013D01*
X41414463Y-56590082D01*
X41116912Y-56466832D01*
X40801033Y-56404000D01*
X40478967Y-56404000D01*
X40163088Y-56466832D01*
X39865537Y-56590082D01*
X39597748Y-56769013D01*
X39370013Y-56996748D01*
X39191082Y-57264537D01*
X39067832Y-57562088D01*
X39005000Y-57877967D01*
X37188219Y-57877967D01*
X37157961Y-57657325D01*
X37052795Y-57352912D01*
X36959814Y-57178956D01*
X36695413Y-57083192D01*
X35739605Y-58039000D01*
X35380395Y-58039000D01*
X34424587Y-57083192D01*
X34160186Y-57178956D01*
X34019296Y-57468571D01*
X33937616Y-57780108D01*
X33918282Y-58101595D01*
X32115000Y-58101595D01*
X32115000Y-57877967D01*
X32052168Y-57562088D01*
X31928918Y-57264537D01*
X31749987Y-56996748D01*
X31656826Y-56903587D01*
X34604192Y-56903587D01*
X35560000Y-57859395D01*
X36515808Y-56903587D01*
X36420044Y-56639186D01*
X36130429Y-56498296D01*
X35818892Y-56416616D01*
X35497405Y-56397282D01*
X35178325Y-56441039D01*
X34873912Y-56546205D01*
X34699956Y-56639186D01*
X34604192Y-56903587D01*
X31656826Y-56903587D01*
X31522252Y-56769013D01*
X31254463Y-56590082D01*
X30956912Y-56466832D01*
X30641033Y-56404000D01*
X30318967Y-56404000D01*
X30003088Y-56466832D01*
X29705537Y-56590082D01*
X29437748Y-56769013D01*
X29210013Y-56996748D01*
X29031082Y-57264537D01*
X28907832Y-57562088D01*
X28845000Y-57877967D01*
X27035000Y-57877967D01*
X26972168Y-57562088D01*
X26848918Y-57264537D01*
X26669987Y-56996748D01*
X26442252Y-56769013D01*
X26174463Y-56590082D01*
X25876912Y-56466832D01*
X25561033Y-56404000D01*
X25238967Y-56404000D01*
X24923088Y-56466832D01*
X24625537Y-56590082D01*
X24357748Y-56769013D01*
X24130013Y-56996748D01*
X23951082Y-57264537D01*
X23827832Y-57562088D01*
X23765000Y-57877967D01*
X-17374000Y-57877967D01*
X-17374000Y-48534800D01*
X39667128Y-48534800D01*
X39667128Y-51134800D01*
X39679388Y-51259282D01*
X39715698Y-51378980D01*
X39774663Y-51489294D01*
X39854015Y-51585985D01*
X39950706Y-51665337D01*
X40061020Y-51724302D01*
X40180718Y-51760612D01*
X40305200Y-51772872D01*
X42905200Y-51772872D01*
X43029682Y-51760612D01*
X43149380Y-51724302D01*
X43259694Y-51665337D01*
X43356385Y-51585985D01*
X43435737Y-51489294D01*
X43494702Y-51378980D01*
X43531012Y-51259282D01*
X43543272Y-51134800D01*
X43543272Y-48534800D01*
X43531012Y-48410318D01*
X43494702Y-48290620D01*
X43435737Y-48180306D01*
X43356385Y-48083615D01*
X43259694Y-48004263D01*
X43149380Y-47945298D01*
X43029682Y-47908988D01*
X42905200Y-47896728D01*
X40305200Y-47896728D01*
X40180718Y-47908988D01*
X40061020Y-47945298D01*
X39950706Y-48004263D01*
X39854015Y-48083615D01*
X39774663Y-48180306D01*
X39715698Y-48290620D01*
X39679388Y-48410318D01*
X39667128Y-48534800D01*
X-17374000Y-48534800D01*
X-17374000Y-35118789D01*
X-9182800Y-35118789D01*
X-9182800Y-35391611D01*
X-9129575Y-35659189D01*
X-9025171Y-35911243D01*
X-8873599Y-36138086D01*
X-8680686Y-36330999D01*
X-8453843Y-36482571D01*
X-8201789Y-36586975D01*
X-7934211Y-36640200D01*
X-7661389Y-36640200D01*
X-7393811Y-36586975D01*
X-7141757Y-36482571D01*
X-6914914Y-36330999D01*
X-6722001Y-36138086D01*
X-6570429Y-35911243D01*
X-6466025Y-35659189D01*
X-6412800Y-35391611D01*
X-6412800Y-35118789D01*
X-6466025Y-34851211D01*
X-6570429Y-34599157D01*
X-6722001Y-34372314D01*
X-6914914Y-34179401D01*
X-7141757Y-34027829D01*
X-7393811Y-33923425D01*
X-7661389Y-33870200D01*
X-7934211Y-33870200D01*
X-8201789Y-33923425D01*
X-8453843Y-34027829D01*
X-8680686Y-34179401D01*
X-8873599Y-34372314D01*
X-9025171Y-34599157D01*
X-9129575Y-34851211D01*
X-9182800Y-35118789D01*
X-17374000Y-35118789D01*
X-17374000Y-32359600D01*
X5168457Y-32359600D01*
X5196164Y-32640909D01*
X5278218Y-32911408D01*
X5411468Y-33160701D01*
X5590792Y-33379208D01*
X5809299Y-33558532D01*
X5942258Y-33629600D01*
X5809299Y-33700668D01*
X5590792Y-33879992D01*
X5411468Y-34098499D01*
X5278218Y-34347792D01*
X5196164Y-34618291D01*
X5168457Y-34899600D01*
X5196164Y-35180909D01*
X5278218Y-35451408D01*
X5411468Y-35700701D01*
X5590792Y-35919208D01*
X5809299Y-36098532D01*
X5942258Y-36169600D01*
X5809299Y-36240668D01*
X5590792Y-36419992D01*
X5411468Y-36638499D01*
X5278218Y-36887792D01*
X5196164Y-37158291D01*
X5168457Y-37439600D01*
X5196164Y-37720909D01*
X5278218Y-37991408D01*
X5411468Y-38240701D01*
X5590792Y-38459208D01*
X5809299Y-38638532D01*
X5942258Y-38709600D01*
X5809299Y-38780668D01*
X5590792Y-38959992D01*
X5411468Y-39178499D01*
X5278218Y-39427792D01*
X5196164Y-39698291D01*
X5168457Y-39979600D01*
X5196164Y-40260909D01*
X5278218Y-40531408D01*
X5411468Y-40780701D01*
X5590792Y-40999208D01*
X5809299Y-41178532D01*
X5942258Y-41249600D01*
X5809299Y-41320668D01*
X5590792Y-41499992D01*
X5411468Y-41718499D01*
X5278218Y-41967792D01*
X5196164Y-42238291D01*
X5168457Y-42519600D01*
X5196164Y-42800909D01*
X5278218Y-43071408D01*
X5411468Y-43320701D01*
X5590792Y-43539208D01*
X5809299Y-43718532D01*
X5942258Y-43789600D01*
X5809299Y-43860668D01*
X5590792Y-44039992D01*
X5411468Y-44258499D01*
X5278218Y-44507792D01*
X5196164Y-44778291D01*
X5168457Y-45059600D01*
X5196164Y-45340909D01*
X5278218Y-45611408D01*
X5411468Y-45860701D01*
X5590792Y-46079208D01*
X5809299Y-46258532D01*
X6058592Y-46391782D01*
X6329091Y-46473836D01*
X6539908Y-46494600D01*
X7480892Y-46494600D01*
X7691709Y-46473836D01*
X7962208Y-46391782D01*
X8211501Y-46258532D01*
X8430008Y-46079208D01*
X8609332Y-45860701D01*
X8742582Y-45611408D01*
X8824636Y-45340909D01*
X8852343Y-45059600D01*
X8824636Y-44778291D01*
X8742582Y-44507792D01*
X8609332Y-44258499D01*
X8430008Y-44039992D01*
X8211501Y-43860668D01*
X8078542Y-43789600D01*
X8211501Y-43718532D01*
X8430008Y-43539208D01*
X8609332Y-43320701D01*
X8742582Y-43071408D01*
X8824636Y-42800909D01*
X8852343Y-42519600D01*
X8824636Y-42238291D01*
X8742582Y-41967792D01*
X8609332Y-41718499D01*
X8430008Y-41499992D01*
X8211501Y-41320668D01*
X8078542Y-41249600D01*
X8211501Y-41178532D01*
X8430008Y-40999208D01*
X8609332Y-40780701D01*
X8742582Y-40531408D01*
X8824636Y-40260909D01*
X8852343Y-39979600D01*
X8824636Y-39698291D01*
X8742582Y-39427792D01*
X8609332Y-39178499D01*
X8430008Y-38959992D01*
X8211501Y-38780668D01*
X8078542Y-38709600D01*
X8211501Y-38638532D01*
X8430008Y-38459208D01*
X8609332Y-38240701D01*
X8742582Y-37991408D01*
X8824636Y-37720909D01*
X8852343Y-37439600D01*
X12788457Y-37439600D01*
X12816164Y-37720909D01*
X12898218Y-37991408D01*
X13031468Y-38240701D01*
X13210792Y-38459208D01*
X13429299Y-38638532D01*
X13562258Y-38709600D01*
X13429299Y-38780668D01*
X13210792Y-38959992D01*
X13031468Y-39178499D01*
X12898218Y-39427792D01*
X12816164Y-39698291D01*
X12788457Y-39979600D01*
X12816164Y-40260909D01*
X12898218Y-40531408D01*
X13031468Y-40780701D01*
X13210792Y-40999208D01*
X13429299Y-41178532D01*
X13562258Y-41249600D01*
X13429299Y-41320668D01*
X13210792Y-41499992D01*
X13031468Y-41718499D01*
X12898218Y-41967792D01*
X12816164Y-42238291D01*
X12788457Y-42519600D01*
X12816164Y-42800909D01*
X12898218Y-43071408D01*
X13031468Y-43320701D01*
X13210792Y-43539208D01*
X13429299Y-43718532D01*
X13562258Y-43789600D01*
X13429299Y-43860668D01*
X13210792Y-44039992D01*
X13031468Y-44258499D01*
X12898218Y-44507792D01*
X12816164Y-44778291D01*
X12788457Y-45059600D01*
X12816164Y-45340909D01*
X12898218Y-45611408D01*
X13031468Y-45860701D01*
X13210792Y-46079208D01*
X13429299Y-46258532D01*
X13678592Y-46391782D01*
X13949091Y-46473836D01*
X14159908Y-46494600D01*
X15100892Y-46494600D01*
X15311709Y-46473836D01*
X15582208Y-46391782D01*
X15831501Y-46258532D01*
X16019769Y-46104024D01*
X40435581Y-46104024D01*
X40567517Y-46399112D01*
X40908245Y-46569959D01*
X41275757Y-46671050D01*
X41655929Y-46698501D01*
X42034151Y-46651257D01*
X42395890Y-46531133D01*
X42642883Y-46399112D01*
X42774819Y-46104024D01*
X41605200Y-44934405D01*
X40435581Y-46104024D01*
X16019769Y-46104024D01*
X16050008Y-46079208D01*
X16229332Y-45860701D01*
X16362582Y-45611408D01*
X16444636Y-45340909D01*
X16472343Y-45059600D01*
X16447319Y-44805529D01*
X39661499Y-44805529D01*
X39708743Y-45183751D01*
X39828867Y-45545490D01*
X39960888Y-45792483D01*
X40255976Y-45924419D01*
X41425595Y-44754800D01*
X41784805Y-44754800D01*
X42954424Y-45924419D01*
X43249512Y-45792483D01*
X43420359Y-45451755D01*
X43521450Y-45084243D01*
X43548901Y-44704071D01*
X43501657Y-44325849D01*
X43381533Y-43964110D01*
X43249512Y-43717117D01*
X42954424Y-43585181D01*
X41784805Y-44754800D01*
X41425595Y-44754800D01*
X40255976Y-43585181D01*
X39960888Y-43717117D01*
X39790041Y-44057845D01*
X39688950Y-44425357D01*
X39661499Y-44805529D01*
X16447319Y-44805529D01*
X16444636Y-44778291D01*
X16362582Y-44507792D01*
X16229332Y-44258499D01*
X16050008Y-44039992D01*
X15831501Y-43860668D01*
X15698542Y-43789600D01*
X15831501Y-43718532D01*
X16050008Y-43539208D01*
X16159676Y-43405576D01*
X40435581Y-43405576D01*
X41605200Y-44575195D01*
X42774819Y-43405576D01*
X42642883Y-43110488D01*
X42302155Y-42939641D01*
X41934643Y-42838550D01*
X41554471Y-42811099D01*
X41176249Y-42858343D01*
X40814510Y-42978467D01*
X40567517Y-43110488D01*
X40435581Y-43405576D01*
X16159676Y-43405576D01*
X16229332Y-43320701D01*
X16362582Y-43071408D01*
X16444636Y-42800909D01*
X16472343Y-42519600D01*
X16444636Y-42238291D01*
X16362582Y-41967792D01*
X16229332Y-41718499D01*
X16050008Y-41499992D01*
X15831501Y-41320668D01*
X15698542Y-41249600D01*
X15831501Y-41178532D01*
X16050008Y-40999208D01*
X16229332Y-40780701D01*
X16362582Y-40531408D01*
X16444636Y-40260909D01*
X16472343Y-39979600D01*
X16444636Y-39698291D01*
X16362582Y-39427792D01*
X16229332Y-39178499D01*
X16050008Y-38959992D01*
X15831501Y-38780668D01*
X15698542Y-38709600D01*
X15831501Y-38638532D01*
X16050008Y-38459208D01*
X16229332Y-38240701D01*
X16362582Y-37991408D01*
X16444636Y-37720909D01*
X16472343Y-37439600D01*
X16444636Y-37158291D01*
X16362582Y-36887792D01*
X16229332Y-36638499D01*
X16050008Y-36419992D01*
X15831501Y-36240668D01*
X15703659Y-36172335D01*
X15933239Y-36022201D01*
X16134900Y-35824495D01*
X16294115Y-35591246D01*
X16404767Y-35331418D01*
X16422304Y-35248639D01*
X16300315Y-35026600D01*
X14757400Y-35026600D01*
X14757400Y-35046600D01*
X14503400Y-35046600D01*
X14503400Y-35026600D01*
X12960485Y-35026600D01*
X12838496Y-35248639D01*
X12856033Y-35331418D01*
X12966685Y-35591246D01*
X13125900Y-35824495D01*
X13327561Y-36022201D01*
X13557141Y-36172335D01*
X13429299Y-36240668D01*
X13210792Y-36419992D01*
X13031468Y-36638499D01*
X12898218Y-36887792D01*
X12816164Y-37158291D01*
X12788457Y-37439600D01*
X8852343Y-37439600D01*
X8824636Y-37158291D01*
X8742582Y-36887792D01*
X8609332Y-36638499D01*
X8430008Y-36419992D01*
X8211501Y-36240668D01*
X8078542Y-36169600D01*
X8211501Y-36098532D01*
X8430008Y-35919208D01*
X8609332Y-35700701D01*
X8742582Y-35451408D01*
X8824636Y-35180909D01*
X8852343Y-34899600D01*
X8824636Y-34618291D01*
X8742582Y-34347792D01*
X8609332Y-34098499D01*
X8430008Y-33879992D01*
X8211501Y-33700668D01*
X8078542Y-33629600D01*
X8211501Y-33558532D01*
X8430008Y-33379208D01*
X8609332Y-33160701D01*
X8742582Y-32911408D01*
X8824636Y-32640909D01*
X8852343Y-32359600D01*
X8824636Y-32078291D01*
X8742582Y-31807792D01*
X8609332Y-31558499D01*
X8430008Y-31339992D01*
X8211501Y-31160668D01*
X8083659Y-31092335D01*
X8313239Y-30942201D01*
X8514900Y-30744495D01*
X8674115Y-30511246D01*
X8784767Y-30251418D01*
X8802304Y-30168639D01*
X8680315Y-29946600D01*
X7137400Y-29946600D01*
X7137400Y-29966600D01*
X6883400Y-29966600D01*
X6883400Y-29946600D01*
X5340485Y-29946600D01*
X5218496Y-30168639D01*
X5236033Y-30251418D01*
X5346685Y-30511246D01*
X5505900Y-30744495D01*
X5707561Y-30942201D01*
X5937141Y-31092335D01*
X5809299Y-31160668D01*
X5590792Y-31339992D01*
X5411468Y-31558499D01*
X5278218Y-31807792D01*
X5196164Y-32078291D01*
X5168457Y-32359600D01*
X-17374000Y-32359600D01*
X-17374000Y-30238789D01*
X-9182800Y-30238789D01*
X-9182800Y-30511611D01*
X-9129575Y-30779189D01*
X-9025171Y-31031243D01*
X-8873599Y-31258086D01*
X-8680686Y-31450999D01*
X-8453843Y-31602571D01*
X-8201789Y-31706975D01*
X-7934211Y-31760200D01*
X-7661389Y-31760200D01*
X-7393811Y-31706975D01*
X-7141757Y-31602571D01*
X-6914914Y-31450999D01*
X-6722001Y-31258086D01*
X-6570429Y-31031243D01*
X-6466025Y-30779189D01*
X-6412800Y-30511611D01*
X-6412800Y-30238789D01*
X-6466025Y-29971211D01*
X-6570429Y-29719157D01*
X-6722001Y-29492314D01*
X-6914914Y-29299401D01*
X-7141757Y-29147829D01*
X-7393811Y-29043425D01*
X-7661389Y-28990200D01*
X-7934211Y-28990200D01*
X-8201789Y-29043425D01*
X-8453843Y-29147829D01*
X-8680686Y-29299401D01*
X-8873599Y-29492314D01*
X-9025171Y-29719157D01*
X-9129575Y-29971211D01*
X-9182800Y-30238789D01*
X-17374000Y-30238789D01*
X-17374000Y-14941340D01*
X-8952600Y-14941340D01*
X-8952600Y-15233860D01*
X-8895532Y-15520758D01*
X-8783590Y-15791011D01*
X-8621075Y-16034232D01*
X-8414232Y-16241075D01*
X-8239840Y-16357600D01*
X-8414232Y-16474125D01*
X-8621075Y-16680968D01*
X-8783590Y-16924189D01*
X-8895532Y-17194442D01*
X-8952600Y-17481340D01*
X-8952600Y-17773860D01*
X-8895532Y-18060758D01*
X-8783590Y-18331011D01*
X-8621075Y-18574232D01*
X-8414232Y-18781075D01*
X-8171011Y-18943590D01*
X-7900758Y-19055532D01*
X-7613860Y-19112600D01*
X-7321340Y-19112600D01*
X-7034442Y-19055532D01*
X-6764189Y-18943590D01*
X-6520968Y-18781075D01*
X-6314125Y-18574232D01*
X-6151610Y-18331011D01*
X-6039668Y-18060758D01*
X-5982600Y-17773860D01*
X-5982600Y-17481340D01*
X-6039668Y-17194442D01*
X-6151610Y-16924189D01*
X-6314125Y-16680968D01*
X-6520968Y-16474125D01*
X-6695360Y-16357600D01*
X-6520968Y-16241075D01*
X-6314125Y-16034232D01*
X-6151610Y-15791011D01*
X-6039668Y-15520758D01*
X-5982600Y-15233860D01*
X-5982600Y-14941340D01*
X-6039668Y-14654442D01*
X-6070668Y-14579600D01*
X5168457Y-14579600D01*
X5196164Y-14860909D01*
X5278218Y-15131408D01*
X5411468Y-15380701D01*
X5590792Y-15599208D01*
X5809299Y-15778532D01*
X5942258Y-15849600D01*
X5809299Y-15920668D01*
X5590792Y-16099992D01*
X5411468Y-16318499D01*
X5278218Y-16567792D01*
X5196164Y-16838291D01*
X5168457Y-17119600D01*
X5196164Y-17400909D01*
X5278218Y-17671408D01*
X5411468Y-17920701D01*
X5590792Y-18139208D01*
X5809299Y-18318532D01*
X5942258Y-18389600D01*
X5809299Y-18460668D01*
X5590792Y-18639992D01*
X5411468Y-18858499D01*
X5278218Y-19107792D01*
X5196164Y-19378291D01*
X5168457Y-19659600D01*
X5196164Y-19940909D01*
X5278218Y-20211408D01*
X5411468Y-20460701D01*
X5590792Y-20679208D01*
X5809299Y-20858532D01*
X5942258Y-20929600D01*
X5809299Y-21000668D01*
X5590792Y-21179992D01*
X5411468Y-21398499D01*
X5278218Y-21647792D01*
X5196164Y-21918291D01*
X5168457Y-22199600D01*
X5196164Y-22480909D01*
X5278218Y-22751408D01*
X5411468Y-23000701D01*
X5590792Y-23219208D01*
X5809299Y-23398532D01*
X5942258Y-23469600D01*
X5809299Y-23540668D01*
X5590792Y-23719992D01*
X5411468Y-23938499D01*
X5278218Y-24187792D01*
X5196164Y-24458291D01*
X5168457Y-24739600D01*
X5196164Y-25020909D01*
X5278218Y-25291408D01*
X5411468Y-25540701D01*
X5590792Y-25759208D01*
X5809299Y-25938532D01*
X5942258Y-26009600D01*
X5809299Y-26080668D01*
X5590792Y-26259992D01*
X5411468Y-26478499D01*
X5278218Y-26727792D01*
X5196164Y-26998291D01*
X5168457Y-27279600D01*
X5196164Y-27560909D01*
X5278218Y-27831408D01*
X5411468Y-28080701D01*
X5590792Y-28299208D01*
X5809299Y-28478532D01*
X5937141Y-28546865D01*
X5707561Y-28696999D01*
X5505900Y-28894705D01*
X5346685Y-29127954D01*
X5236033Y-29387782D01*
X5218496Y-29470561D01*
X5340485Y-29692600D01*
X6883400Y-29692600D01*
X6883400Y-29672600D01*
X7137400Y-29672600D01*
X7137400Y-29692600D01*
X8680315Y-29692600D01*
X8802304Y-29470561D01*
X8784767Y-29387782D01*
X8674115Y-29127954D01*
X8514900Y-28894705D01*
X8313239Y-28696999D01*
X8083659Y-28546865D01*
X8211501Y-28478532D01*
X8430008Y-28299208D01*
X8609332Y-28080701D01*
X8742582Y-27831408D01*
X8824636Y-27560909D01*
X8852343Y-27279600D01*
X8824636Y-26998291D01*
X8742582Y-26727792D01*
X8609332Y-26478499D01*
X8430008Y-26259992D01*
X8211501Y-26080668D01*
X8078542Y-26009600D01*
X8211501Y-25938532D01*
X8430008Y-25759208D01*
X8609332Y-25540701D01*
X8742582Y-25291408D01*
X8824636Y-25020909D01*
X8852343Y-24739600D01*
X8824636Y-24458291D01*
X8742582Y-24187792D01*
X8609332Y-23938499D01*
X8430008Y-23719992D01*
X8211501Y-23540668D01*
X8078542Y-23469600D01*
X8211501Y-23398532D01*
X8430008Y-23219208D01*
X8609332Y-23000701D01*
X8742582Y-22751408D01*
X8824636Y-22480909D01*
X8852343Y-22199600D01*
X8824636Y-21918291D01*
X8742582Y-21647792D01*
X8609332Y-21398499D01*
X8430008Y-21179992D01*
X8211501Y-21000668D01*
X8078542Y-20929600D01*
X8211501Y-20858532D01*
X8430008Y-20679208D01*
X8609332Y-20460701D01*
X8742582Y-20211408D01*
X8824636Y-19940909D01*
X8852343Y-19659600D01*
X8824636Y-19378291D01*
X8742582Y-19107792D01*
X8609332Y-18858499D01*
X8430008Y-18639992D01*
X8211501Y-18460668D01*
X8078542Y-18389600D01*
X8211501Y-18318532D01*
X8430008Y-18139208D01*
X8609332Y-17920701D01*
X8742582Y-17671408D01*
X8824636Y-17400909D01*
X8852343Y-17119600D01*
X12788457Y-17119600D01*
X12816164Y-17400909D01*
X12898218Y-17671408D01*
X13031468Y-17920701D01*
X13210792Y-18139208D01*
X13429299Y-18318532D01*
X13562258Y-18389600D01*
X13429299Y-18460668D01*
X13210792Y-18639992D01*
X13031468Y-18858499D01*
X12898218Y-19107792D01*
X12816164Y-19378291D01*
X12788457Y-19659600D01*
X12816164Y-19940909D01*
X12898218Y-20211408D01*
X13031468Y-20460701D01*
X13210792Y-20679208D01*
X13429299Y-20858532D01*
X13562258Y-20929600D01*
X13429299Y-21000668D01*
X13210792Y-21179992D01*
X13031468Y-21398499D01*
X12898218Y-21647792D01*
X12816164Y-21918291D01*
X12788457Y-22199600D01*
X12816164Y-22480909D01*
X12898218Y-22751408D01*
X13031468Y-23000701D01*
X13210792Y-23219208D01*
X13429299Y-23398532D01*
X13562258Y-23469600D01*
X13429299Y-23540668D01*
X13210792Y-23719992D01*
X13031468Y-23938499D01*
X12898218Y-24187792D01*
X12816164Y-24458291D01*
X12788457Y-24739600D01*
X12816164Y-25020909D01*
X12898218Y-25291408D01*
X13031468Y-25540701D01*
X13210792Y-25759208D01*
X13429299Y-25938532D01*
X13562258Y-26009600D01*
X13429299Y-26080668D01*
X13210792Y-26259992D01*
X13031468Y-26478499D01*
X12898218Y-26727792D01*
X12816164Y-26998291D01*
X12788457Y-27279600D01*
X12816164Y-27560909D01*
X12898218Y-27831408D01*
X13031468Y-28080701D01*
X13210792Y-28299208D01*
X13429299Y-28478532D01*
X13562258Y-28549600D01*
X13429299Y-28620668D01*
X13210792Y-28799992D01*
X13031468Y-29018499D01*
X12898218Y-29267792D01*
X12816164Y-29538291D01*
X12788457Y-29819600D01*
X12816164Y-30100909D01*
X12898218Y-30371408D01*
X13031468Y-30620701D01*
X13210792Y-30839208D01*
X13429299Y-31018532D01*
X13562258Y-31089600D01*
X13429299Y-31160668D01*
X13210792Y-31339992D01*
X13031468Y-31558499D01*
X12898218Y-31807792D01*
X12816164Y-32078291D01*
X12788457Y-32359600D01*
X12816164Y-32640909D01*
X12898218Y-32911408D01*
X13031468Y-33160701D01*
X13210792Y-33379208D01*
X13429299Y-33558532D01*
X13557141Y-33626865D01*
X13327561Y-33776999D01*
X13125900Y-33974705D01*
X12966685Y-34207954D01*
X12856033Y-34467782D01*
X12838496Y-34550561D01*
X12960485Y-34772600D01*
X14503400Y-34772600D01*
X14503400Y-34752600D01*
X14757400Y-34752600D01*
X14757400Y-34772600D01*
X16300315Y-34772600D01*
X16422304Y-34550561D01*
X16404767Y-34467782D01*
X16294115Y-34207954D01*
X16134900Y-33974705D01*
X16115005Y-33955200D01*
X39717928Y-33955200D01*
X39717928Y-36555200D01*
X39730188Y-36679682D01*
X39766498Y-36799380D01*
X39825463Y-36909694D01*
X39904815Y-37006385D01*
X40001506Y-37085737D01*
X40111820Y-37144702D01*
X40231518Y-37181012D01*
X40356000Y-37193272D01*
X42956000Y-37193272D01*
X43080482Y-37181012D01*
X43200180Y-37144702D01*
X43310494Y-37085737D01*
X43407185Y-37006385D01*
X43486537Y-36909694D01*
X43545502Y-36799380D01*
X43581812Y-36679682D01*
X43594072Y-36555200D01*
X43594072Y-33955200D01*
X43581812Y-33830718D01*
X43545502Y-33711020D01*
X43486537Y-33600706D01*
X43407185Y-33504015D01*
X43310494Y-33424663D01*
X43200180Y-33365698D01*
X43080482Y-33329388D01*
X42956000Y-33317128D01*
X40356000Y-33317128D01*
X40231518Y-33329388D01*
X40111820Y-33365698D01*
X40001506Y-33424663D01*
X39904815Y-33504015D01*
X39825463Y-33600706D01*
X39766498Y-33711020D01*
X39730188Y-33830718D01*
X39717928Y-33955200D01*
X16115005Y-33955200D01*
X15933239Y-33776999D01*
X15703659Y-33626865D01*
X15831501Y-33558532D01*
X16050008Y-33379208D01*
X16229332Y-33160701D01*
X16362582Y-32911408D01*
X16444636Y-32640909D01*
X16472343Y-32359600D01*
X16444636Y-32078291D01*
X16362582Y-31807792D01*
X16229332Y-31558499D01*
X16201368Y-31524424D01*
X40486381Y-31524424D01*
X40618317Y-31819512D01*
X40959045Y-31990359D01*
X41326557Y-32091450D01*
X41706729Y-32118901D01*
X42084951Y-32071657D01*
X42446690Y-31951533D01*
X42693683Y-31819512D01*
X42825619Y-31524424D01*
X41656000Y-30354805D01*
X40486381Y-31524424D01*
X16201368Y-31524424D01*
X16050008Y-31339992D01*
X15831501Y-31160668D01*
X15698542Y-31089600D01*
X15831501Y-31018532D01*
X16050008Y-30839208D01*
X16229332Y-30620701D01*
X16362582Y-30371408D01*
X16406712Y-30225929D01*
X39712299Y-30225929D01*
X39759543Y-30604151D01*
X39879667Y-30965890D01*
X40011688Y-31212883D01*
X40306776Y-31344819D01*
X41476395Y-30175200D01*
X41835605Y-30175200D01*
X43005224Y-31344819D01*
X43300312Y-31212883D01*
X43471159Y-30872155D01*
X43572250Y-30504643D01*
X43599701Y-30124471D01*
X43552457Y-29746249D01*
X43432333Y-29384510D01*
X43300312Y-29137517D01*
X43005224Y-29005581D01*
X41835605Y-30175200D01*
X41476395Y-30175200D01*
X40306776Y-29005581D01*
X40011688Y-29137517D01*
X39840841Y-29478245D01*
X39739750Y-29845757D01*
X39712299Y-30225929D01*
X16406712Y-30225929D01*
X16444636Y-30100909D01*
X16472343Y-29819600D01*
X16444636Y-29538291D01*
X16362582Y-29267792D01*
X16229332Y-29018499D01*
X16071333Y-28825976D01*
X40486381Y-28825976D01*
X41656000Y-29995595D01*
X42825619Y-28825976D01*
X42693683Y-28530888D01*
X42352955Y-28360041D01*
X41985443Y-28258950D01*
X41605271Y-28231499D01*
X41227049Y-28278743D01*
X40865310Y-28398867D01*
X40618317Y-28530888D01*
X40486381Y-28825976D01*
X16071333Y-28825976D01*
X16050008Y-28799992D01*
X15831501Y-28620668D01*
X15698542Y-28549600D01*
X15831501Y-28478532D01*
X16050008Y-28299208D01*
X16229332Y-28080701D01*
X16362582Y-27831408D01*
X16444636Y-27560909D01*
X16472343Y-27279600D01*
X16444636Y-26998291D01*
X16362582Y-26727792D01*
X16229332Y-26478499D01*
X16050008Y-26259992D01*
X15831501Y-26080668D01*
X15698542Y-26009600D01*
X15831501Y-25938532D01*
X16050008Y-25759208D01*
X16229332Y-25540701D01*
X16362582Y-25291408D01*
X16444636Y-25020909D01*
X16472343Y-24739600D01*
X16444636Y-24458291D01*
X16362582Y-24187792D01*
X16229332Y-23938499D01*
X16050008Y-23719992D01*
X15831501Y-23540668D01*
X15698542Y-23469600D01*
X15831501Y-23398532D01*
X16050008Y-23219208D01*
X16229332Y-23000701D01*
X16362582Y-22751408D01*
X16444636Y-22480909D01*
X16472343Y-22199600D01*
X16444636Y-21918291D01*
X16362582Y-21647792D01*
X16229332Y-21398499D01*
X16050008Y-21179992D01*
X15831501Y-21000668D01*
X15698542Y-20929600D01*
X15831501Y-20858532D01*
X16050008Y-20679208D01*
X16229332Y-20460701D01*
X16362582Y-20211408D01*
X16444636Y-19940909D01*
X16472343Y-19659600D01*
X16444636Y-19378291D01*
X16374476Y-19147000D01*
X39921128Y-19147000D01*
X39921128Y-21747000D01*
X39933388Y-21871482D01*
X39969698Y-21991180D01*
X40028663Y-22101494D01*
X40108015Y-22198185D01*
X40204706Y-22277537D01*
X40315020Y-22336502D01*
X40434718Y-22372812D01*
X40559200Y-22385072D01*
X43159200Y-22385072D01*
X43283682Y-22372812D01*
X43403380Y-22336502D01*
X43513694Y-22277537D01*
X43610385Y-22198185D01*
X43689737Y-22101494D01*
X43748702Y-21991180D01*
X43785012Y-21871482D01*
X43797272Y-21747000D01*
X43797272Y-19147000D01*
X43785012Y-19022518D01*
X43748702Y-18902820D01*
X43689737Y-18792506D01*
X43610385Y-18695815D01*
X43513694Y-18616463D01*
X43403380Y-18557498D01*
X43283682Y-18521188D01*
X43159200Y-18508928D01*
X40559200Y-18508928D01*
X40434718Y-18521188D01*
X40315020Y-18557498D01*
X40204706Y-18616463D01*
X40108015Y-18695815D01*
X40028663Y-18792506D01*
X39969698Y-18902820D01*
X39933388Y-19022518D01*
X39921128Y-19147000D01*
X16374476Y-19147000D01*
X16362582Y-19107792D01*
X16229332Y-18858499D01*
X16050008Y-18639992D01*
X15831501Y-18460668D01*
X15698542Y-18389600D01*
X15831501Y-18318532D01*
X16050008Y-18139208D01*
X16229332Y-17920701D01*
X16362582Y-17671408D01*
X16444636Y-17400909D01*
X16472343Y-17119600D01*
X16444636Y-16838291D01*
X16407608Y-16716224D01*
X40689581Y-16716224D01*
X40821517Y-17011312D01*
X41162245Y-17182159D01*
X41529757Y-17283250D01*
X41909929Y-17310701D01*
X42288151Y-17263457D01*
X42649890Y-17143333D01*
X42896883Y-17011312D01*
X43028819Y-16716224D01*
X41859200Y-15546605D01*
X40689581Y-16716224D01*
X16407608Y-16716224D01*
X16362582Y-16567792D01*
X16229332Y-16318499D01*
X16050008Y-16099992D01*
X15831501Y-15920668D01*
X15703659Y-15852335D01*
X15933239Y-15702201D01*
X16134900Y-15504495D01*
X16194126Y-15417729D01*
X39915499Y-15417729D01*
X39962743Y-15795951D01*
X40082867Y-16157690D01*
X40214888Y-16404683D01*
X40509976Y-16536619D01*
X41679595Y-15367000D01*
X42038805Y-15367000D01*
X43208424Y-16536619D01*
X43503512Y-16404683D01*
X43674359Y-16063955D01*
X43775450Y-15696443D01*
X43802901Y-15316271D01*
X43755657Y-14938049D01*
X43635533Y-14576310D01*
X43503512Y-14329317D01*
X43208424Y-14197381D01*
X42038805Y-15367000D01*
X41679595Y-15367000D01*
X40509976Y-14197381D01*
X40214888Y-14329317D01*
X40044041Y-14670045D01*
X39942950Y-15037557D01*
X39915499Y-15417729D01*
X16194126Y-15417729D01*
X16294115Y-15271246D01*
X16404767Y-15011418D01*
X16422304Y-14928639D01*
X16300315Y-14706600D01*
X14757400Y-14706600D01*
X14757400Y-14726600D01*
X14503400Y-14726600D01*
X14503400Y-14706600D01*
X12960485Y-14706600D01*
X12838496Y-14928639D01*
X12856033Y-15011418D01*
X12966685Y-15271246D01*
X13125900Y-15504495D01*
X13327561Y-15702201D01*
X13557141Y-15852335D01*
X13429299Y-15920668D01*
X13210792Y-16099992D01*
X13031468Y-16318499D01*
X12898218Y-16567792D01*
X12816164Y-16838291D01*
X12788457Y-17119600D01*
X8852343Y-17119600D01*
X8824636Y-16838291D01*
X8742582Y-16567792D01*
X8609332Y-16318499D01*
X8430008Y-16099992D01*
X8211501Y-15920668D01*
X8078542Y-15849600D01*
X8211501Y-15778532D01*
X8430008Y-15599208D01*
X8609332Y-15380701D01*
X8742582Y-15131408D01*
X8824636Y-14860909D01*
X8852343Y-14579600D01*
X8824636Y-14298291D01*
X8742582Y-14027792D01*
X8609332Y-13778499D01*
X8430008Y-13559992D01*
X8316918Y-13467181D01*
X8334882Y-13465412D01*
X8454580Y-13429102D01*
X8564894Y-13370137D01*
X8661585Y-13290785D01*
X8740937Y-13194094D01*
X8799902Y-13083780D01*
X8836212Y-12964082D01*
X8848472Y-12839600D01*
X8848472Y-12039600D01*
X12788457Y-12039600D01*
X12816164Y-12320909D01*
X12898218Y-12591408D01*
X13031468Y-12840701D01*
X13210792Y-13059208D01*
X13429299Y-13238532D01*
X13557141Y-13306865D01*
X13327561Y-13456999D01*
X13125900Y-13654705D01*
X12966685Y-13887954D01*
X12856033Y-14147782D01*
X12838496Y-14230561D01*
X12960485Y-14452600D01*
X14503400Y-14452600D01*
X14503400Y-14432600D01*
X14757400Y-14432600D01*
X14757400Y-14452600D01*
X16300315Y-14452600D01*
X16422304Y-14230561D01*
X16404767Y-14147782D01*
X16349402Y-14017776D01*
X40689581Y-14017776D01*
X41859200Y-15187395D01*
X43028819Y-14017776D01*
X42896883Y-13722688D01*
X42556155Y-13551841D01*
X42188643Y-13450750D01*
X41808471Y-13423299D01*
X41430249Y-13470543D01*
X41068510Y-13590667D01*
X40821517Y-13722688D01*
X40689581Y-14017776D01*
X16349402Y-14017776D01*
X16294115Y-13887954D01*
X16134900Y-13654705D01*
X15933239Y-13456999D01*
X15703659Y-13306865D01*
X15831501Y-13238532D01*
X16050008Y-13059208D01*
X16229332Y-12840701D01*
X16362582Y-12591408D01*
X16444636Y-12320909D01*
X16472343Y-12039600D01*
X16444636Y-11758291D01*
X16362582Y-11487792D01*
X16229332Y-11238499D01*
X16050008Y-11019992D01*
X15831501Y-10840668D01*
X15582208Y-10707418D01*
X15311709Y-10625364D01*
X15100892Y-10604600D01*
X14159908Y-10604600D01*
X13949091Y-10625364D01*
X13678592Y-10707418D01*
X13429299Y-10840668D01*
X13210792Y-11019992D01*
X13031468Y-11238499D01*
X12898218Y-11487792D01*
X12816164Y-11758291D01*
X12788457Y-12039600D01*
X8848472Y-12039600D01*
X8848472Y-11239600D01*
X8836212Y-11115118D01*
X8799902Y-10995420D01*
X8740937Y-10885106D01*
X8661585Y-10788415D01*
X8564894Y-10709063D01*
X8454580Y-10650098D01*
X8334882Y-10613788D01*
X8210400Y-10601528D01*
X5810400Y-10601528D01*
X5685918Y-10613788D01*
X5566220Y-10650098D01*
X5455906Y-10709063D01*
X5359215Y-10788415D01*
X5279863Y-10885106D01*
X5220898Y-10995420D01*
X5184588Y-11115118D01*
X5172328Y-11239600D01*
X5172328Y-12839600D01*
X5184588Y-12964082D01*
X5220898Y-13083780D01*
X5279863Y-13194094D01*
X5359215Y-13290785D01*
X5455906Y-13370137D01*
X5566220Y-13429102D01*
X5685918Y-13465412D01*
X5703882Y-13467181D01*
X5590792Y-13559992D01*
X5411468Y-13778499D01*
X5278218Y-14027792D01*
X5196164Y-14298291D01*
X5168457Y-14579600D01*
X-6070668Y-14579600D01*
X-6151610Y-14384189D01*
X-6314125Y-14140968D01*
X-6520968Y-13934125D01*
X-6703134Y-13812405D01*
X-6586245Y-13742778D01*
X-6370012Y-13547869D01*
X-6195959Y-13314520D01*
X-6070775Y-13051699D01*
X-6026124Y-12904490D01*
X-6147445Y-12674600D01*
X-7340600Y-12674600D01*
X-7340600Y-12694600D01*
X-7594600Y-12694600D01*
X-7594600Y-12674600D01*
X-8787755Y-12674600D01*
X-8909076Y-12904490D01*
X-8864425Y-13051699D01*
X-8739241Y-13314520D01*
X-8565188Y-13547869D01*
X-8348955Y-13742778D01*
X-8232066Y-13812405D01*
X-8414232Y-13934125D01*
X-8621075Y-14140968D01*
X-8783590Y-14384189D01*
X-8895532Y-14654442D01*
X-8952600Y-14941340D01*
X-17374000Y-14941340D01*
X-17374000Y-6617600D01*
X-8955672Y-6617600D01*
X-8955672Y-8317600D01*
X-8943412Y-8442082D01*
X-8907102Y-8561780D01*
X-8848137Y-8672094D01*
X-8768785Y-8768785D01*
X-8672094Y-8848137D01*
X-8561780Y-8907102D01*
X-8489220Y-8929113D01*
X-8621075Y-9060968D01*
X-8783590Y-9304189D01*
X-8895532Y-9574442D01*
X-8952600Y-9861340D01*
X-8952600Y-10153860D01*
X-8895532Y-10440758D01*
X-8783590Y-10711011D01*
X-8621075Y-10954232D01*
X-8414232Y-11161075D01*
X-8232066Y-11282795D01*
X-8348955Y-11352422D01*
X-8565188Y-11547331D01*
X-8739241Y-11780680D01*
X-8864425Y-12043501D01*
X-8909076Y-12190710D01*
X-8787755Y-12420600D01*
X-7594600Y-12420600D01*
X-7594600Y-12400600D01*
X-7340600Y-12400600D01*
X-7340600Y-12420600D01*
X-6147445Y-12420600D01*
X-6026124Y-12190710D01*
X-6070775Y-12043501D01*
X-6195959Y-11780680D01*
X-6370012Y-11547331D01*
X-6586245Y-11352422D01*
X-6703134Y-11282795D01*
X-6520968Y-11161075D01*
X-6314125Y-10954232D01*
X-6151610Y-10711011D01*
X-6039668Y-10440758D01*
X-5982600Y-10153860D01*
X-5982600Y-9861340D01*
X-6039668Y-9574442D01*
X-6151610Y-9304189D01*
X-6314125Y-9060968D01*
X-6445980Y-8929113D01*
X-6373420Y-8907102D01*
X-6263106Y-8848137D01*
X-6166415Y-8768785D01*
X-6087063Y-8672094D01*
X-6028098Y-8561780D01*
X-5991788Y-8442082D01*
X-5979528Y-8317600D01*
X-5979528Y-6617600D01*
X-5991788Y-6493118D01*
X-6028098Y-6373420D01*
X-6087063Y-6263106D01*
X-6166415Y-6166415D01*
X-6263106Y-6087063D01*
X-6373420Y-6028098D01*
X-6493118Y-5991788D01*
X-6617600Y-5979528D01*
X-8317600Y-5979528D01*
X-8442082Y-5991788D01*
X-8561780Y-6028098D01*
X-8672094Y-6087063D01*
X-8768785Y-6166415D01*
X-8848137Y-6263106D01*
X-8907102Y-6373420D01*
X-8943412Y-6493118D01*
X-8955672Y-6617600D01*
X-17374000Y-6617600D01*
X-17374000Y-5278600D01*
X40073528Y-5278600D01*
X40073528Y-7878600D01*
X40085788Y-8003082D01*
X40122098Y-8122780D01*
X40181063Y-8233094D01*
X40260415Y-8329785D01*
X40357106Y-8409137D01*
X40467420Y-8468102D01*
X40587118Y-8504412D01*
X40711600Y-8516672D01*
X43311600Y-8516672D01*
X43436082Y-8504412D01*
X43555780Y-8468102D01*
X43666094Y-8409137D01*
X43762785Y-8329785D01*
X43842137Y-8233094D01*
X43901102Y-8122780D01*
X43937412Y-8003082D01*
X43949672Y-7878600D01*
X43949672Y-5278600D01*
X43937412Y-5154118D01*
X43901102Y-5034420D01*
X43842137Y-4924106D01*
X43762785Y-4827415D01*
X43666094Y-4748063D01*
X43555780Y-4689098D01*
X43436082Y-4652788D01*
X43311600Y-4640528D01*
X40711600Y-4640528D01*
X40587118Y-4652788D01*
X40467420Y-4689098D01*
X40357106Y-4748063D01*
X40260415Y-4827415D01*
X40181063Y-4924106D01*
X40122098Y-5034420D01*
X40085788Y-5154118D01*
X40073528Y-5278600D01*
X-17374000Y-5278600D01*
X-17374000Y-2847824D01*
X40841981Y-2847824D01*
X40973917Y-3142912D01*
X41314645Y-3313759D01*
X41682157Y-3414850D01*
X42062329Y-3442301D01*
X42440551Y-3395057D01*
X42802290Y-3274933D01*
X43049283Y-3142912D01*
X43181219Y-2847824D01*
X42011600Y-1678205D01*
X40841981Y-2847824D01*
X-17374000Y-2847824D01*
X-17374000Y-818940D01*
X-16623400Y-818940D01*
X-16623400Y-1111460D01*
X-16566332Y-1398358D01*
X-16454390Y-1668611D01*
X-16291875Y-1911832D01*
X-16085032Y-2118675D01*
X-15841811Y-2281190D01*
X-15571558Y-2393132D01*
X-15284660Y-2450200D01*
X-14992140Y-2450200D01*
X-14705242Y-2393132D01*
X-14434989Y-2281190D01*
X-14191768Y-2118675D01*
X-13984925Y-1911832D01*
X-13868400Y-1737440D01*
X-13751875Y-1911832D01*
X-13545032Y-2118675D01*
X-13301811Y-2281190D01*
X-13031558Y-2393132D01*
X-12744660Y-2450200D01*
X-12452140Y-2450200D01*
X-12165242Y-2393132D01*
X-11894989Y-2281190D01*
X-11651768Y-2118675D01*
X-11444925Y-1911832D01*
X-11328400Y-1737440D01*
X-11211875Y-1911832D01*
X-11005032Y-2118675D01*
X-10761811Y-2281190D01*
X-10491558Y-2393132D01*
X-10204660Y-2450200D01*
X-9912140Y-2450200D01*
X-9625242Y-2393132D01*
X-9354989Y-2281190D01*
X-9111768Y-2118675D01*
X-8904925Y-1911832D01*
X-8783205Y-1729666D01*
X-8713578Y-1846555D01*
X-8518669Y-2062788D01*
X-8285320Y-2236841D01*
X-8022499Y-2362025D01*
X-7875290Y-2406676D01*
X-7645400Y-2285355D01*
X-7645400Y-1092200D01*
X-7665400Y-1092200D01*
X-7665400Y-838200D01*
X-7645400Y-838200D01*
X-7645400Y-818200D01*
X-7391400Y-818200D01*
X-7391400Y-838200D01*
X-7371400Y-838200D01*
X-7371400Y-1092200D01*
X-7391400Y-1092200D01*
X-7391400Y-2285355D01*
X-7161510Y-2406676D01*
X-7014301Y-2362025D01*
X-6751480Y-2236841D01*
X-6518131Y-2062788D01*
X-6323222Y-1846555D01*
X-6253595Y-1729666D01*
X-6131875Y-1911832D01*
X-5925032Y-2118675D01*
X-5681811Y-2281190D01*
X-5411558Y-2393132D01*
X-5124660Y-2450200D01*
X-4832140Y-2450200D01*
X-4545242Y-2393132D01*
X-4274989Y-2281190D01*
X-4031768Y-2118675D01*
X-3824925Y-1911832D01*
X-3703205Y-1729666D01*
X-3633578Y-1846555D01*
X-3438669Y-2062788D01*
X-3205320Y-2236841D01*
X-2942499Y-2362025D01*
X-2795290Y-2406676D01*
X-2565400Y-2285355D01*
X-2565400Y-1092200D01*
X-2585400Y-1092200D01*
X-2585400Y-838200D01*
X-2565400Y-838200D01*
X-2565400Y-818200D01*
X-2311400Y-818200D01*
X-2311400Y-838200D01*
X-2291400Y-838200D01*
X-2291400Y-1092200D01*
X-2311400Y-1092200D01*
X-2311400Y-2285355D01*
X-2081510Y-2406676D01*
X-1934301Y-2362025D01*
X-1671480Y-2236841D01*
X-1438131Y-2062788D01*
X-1243222Y-1846555D01*
X-1173595Y-1729666D01*
X-1051875Y-1911832D01*
X-845032Y-2118675D01*
X-601811Y-2281190D01*
X-331558Y-2393132D01*
X-44660Y-2450200D01*
X247860Y-2450200D01*
X534758Y-2393132D01*
X805011Y-2281190D01*
X1048232Y-2118675D01*
X1255075Y-1911832D01*
X1371600Y-1737440D01*
X1488125Y-1911832D01*
X1694968Y-2118675D01*
X1938189Y-2281190D01*
X2208442Y-2393132D01*
X2495340Y-2450200D01*
X2787860Y-2450200D01*
X3074758Y-2393132D01*
X3345011Y-2281190D01*
X3588232Y-2118675D01*
X3795075Y-1911832D01*
X3911600Y-1737440D01*
X4028125Y-1911832D01*
X4234968Y-2118675D01*
X4478189Y-2281190D01*
X4748442Y-2393132D01*
X5035340Y-2450200D01*
X5327860Y-2450200D01*
X5614758Y-2393132D01*
X5885011Y-2281190D01*
X6128232Y-2118675D01*
X6335075Y-1911832D01*
X6451600Y-1737440D01*
X6568125Y-1911832D01*
X6774968Y-2118675D01*
X7018189Y-2281190D01*
X7288442Y-2393132D01*
X7575340Y-2450200D01*
X7867860Y-2450200D01*
X8154758Y-2393132D01*
X8425011Y-2281190D01*
X8668232Y-2118675D01*
X8875075Y-1911832D01*
X8996795Y-1729666D01*
X9066422Y-1846555D01*
X9261331Y-2062788D01*
X9494680Y-2236841D01*
X9757501Y-2362025D01*
X9904710Y-2406676D01*
X10134600Y-2285355D01*
X10134600Y-1092200D01*
X10114600Y-1092200D01*
X10114600Y-838200D01*
X10134600Y-838200D01*
X10134600Y-818200D01*
X10388600Y-818200D01*
X10388600Y-838200D01*
X10408600Y-838200D01*
X10408600Y-1092200D01*
X10388600Y-1092200D01*
X10388600Y-2285355D01*
X10618490Y-2406676D01*
X10765699Y-2362025D01*
X11028520Y-2236841D01*
X11261869Y-2062788D01*
X11456778Y-1846555D01*
X11526405Y-1729666D01*
X11648125Y-1911832D01*
X11854968Y-2118675D01*
X12098189Y-2281190D01*
X12368442Y-2393132D01*
X12655340Y-2450200D01*
X12947860Y-2450200D01*
X13234758Y-2393132D01*
X13505011Y-2281190D01*
X13748232Y-2118675D01*
X13955075Y-1911832D01*
X14071600Y-1737440D01*
X14188125Y-1911832D01*
X14394968Y-2118675D01*
X14638189Y-2281190D01*
X14908442Y-2393132D01*
X15195340Y-2450200D01*
X15487860Y-2450200D01*
X15774758Y-2393132D01*
X16045011Y-2281190D01*
X16288232Y-2118675D01*
X16495075Y-1911832D01*
X16616795Y-1729666D01*
X16686422Y-1846555D01*
X16881331Y-2062788D01*
X17114680Y-2236841D01*
X17377501Y-2362025D01*
X17524710Y-2406676D01*
X17754600Y-2285355D01*
X17754600Y-1092200D01*
X17734600Y-1092200D01*
X17734600Y-838200D01*
X17754600Y-838200D01*
X17754600Y-818200D01*
X18008600Y-818200D01*
X18008600Y-838200D01*
X18028600Y-838200D01*
X18028600Y-1092200D01*
X18008600Y-1092200D01*
X18008600Y-2285355D01*
X18238490Y-2406676D01*
X18385699Y-2362025D01*
X18648520Y-2236841D01*
X18881869Y-2062788D01*
X19076778Y-1846555D01*
X19146405Y-1729666D01*
X19268125Y-1911832D01*
X19474968Y-2118675D01*
X19718189Y-2281190D01*
X19988442Y-2393132D01*
X20275340Y-2450200D01*
X20567860Y-2450200D01*
X20854758Y-2393132D01*
X21125011Y-2281190D01*
X21368232Y-2118675D01*
X21575075Y-1911832D01*
X21691600Y-1737440D01*
X21808125Y-1911832D01*
X22014968Y-2118675D01*
X22258189Y-2281190D01*
X22528442Y-2393132D01*
X22815340Y-2450200D01*
X23107860Y-2450200D01*
X23394758Y-2393132D01*
X23665011Y-2281190D01*
X23908232Y-2118675D01*
X24115075Y-1911832D01*
X24231600Y-1737440D01*
X24348125Y-1911832D01*
X24554968Y-2118675D01*
X24798189Y-2281190D01*
X25068442Y-2393132D01*
X25355340Y-2450200D01*
X25647860Y-2450200D01*
X25934758Y-2393132D01*
X26205011Y-2281190D01*
X26448232Y-2118675D01*
X26655075Y-1911832D01*
X26776795Y-1729666D01*
X26846422Y-1846555D01*
X27041331Y-2062788D01*
X27274680Y-2236841D01*
X27537501Y-2362025D01*
X27684710Y-2406676D01*
X27914600Y-2285355D01*
X27914600Y-1092200D01*
X27894600Y-1092200D01*
X27894600Y-838200D01*
X27914600Y-838200D01*
X27914600Y-818200D01*
X28168600Y-818200D01*
X28168600Y-838200D01*
X28188600Y-838200D01*
X28188600Y-1092200D01*
X28168600Y-1092200D01*
X28168600Y-2285355D01*
X28398490Y-2406676D01*
X28545699Y-2362025D01*
X28808520Y-2236841D01*
X29041869Y-2062788D01*
X29236778Y-1846555D01*
X29306405Y-1729666D01*
X29428125Y-1911832D01*
X29634968Y-2118675D01*
X29878189Y-2281190D01*
X30148442Y-2393132D01*
X30435340Y-2450200D01*
X30727860Y-2450200D01*
X31014758Y-2393132D01*
X31285011Y-2281190D01*
X31528232Y-2118675D01*
X31735075Y-1911832D01*
X31851600Y-1737440D01*
X31968125Y-1911832D01*
X32174968Y-2118675D01*
X32418189Y-2281190D01*
X32688442Y-2393132D01*
X32975340Y-2450200D01*
X33267860Y-2450200D01*
X33554758Y-2393132D01*
X33825011Y-2281190D01*
X34068232Y-2118675D01*
X34275075Y-1911832D01*
X34437590Y-1668611D01*
X34486998Y-1549329D01*
X40067899Y-1549329D01*
X40115143Y-1927551D01*
X40235267Y-2289290D01*
X40367288Y-2536283D01*
X40662376Y-2668219D01*
X41831995Y-1498600D01*
X42191205Y-1498600D01*
X43360824Y-2668219D01*
X43655912Y-2536283D01*
X43826759Y-2195555D01*
X43927850Y-1828043D01*
X43955301Y-1447871D01*
X43908057Y-1069649D01*
X43787933Y-707910D01*
X43655912Y-460917D01*
X43360824Y-328981D01*
X42191205Y-1498600D01*
X41831995Y-1498600D01*
X40662376Y-328981D01*
X40367288Y-460917D01*
X40196441Y-801645D01*
X40095350Y-1169157D01*
X40067899Y-1549329D01*
X34486998Y-1549329D01*
X34549532Y-1398358D01*
X34606600Y-1111460D01*
X34606600Y-818940D01*
X34549532Y-532042D01*
X34437590Y-261789D01*
X34362479Y-149376D01*
X40841981Y-149376D01*
X42011600Y-1318995D01*
X43181219Y-149376D01*
X43049283Y145712D01*
X42708555Y316559D01*
X42341043Y417650D01*
X41960871Y445101D01*
X41582649Y397857D01*
X41220910Y277733D01*
X40973917Y145712D01*
X40841981Y-149376D01*
X34362479Y-149376D01*
X34275075Y-18568D01*
X34143220Y113287D01*
X34215780Y135298D01*
X34326094Y194263D01*
X34422785Y273615D01*
X34502137Y370306D01*
X34561102Y480620D01*
X34597412Y600318D01*
X34609672Y724800D01*
X34609672Y2424800D01*
X34597412Y2549282D01*
X34561102Y2668980D01*
X34502137Y2779294D01*
X34422785Y2875985D01*
X34326094Y2955337D01*
X34215780Y3014302D01*
X34096082Y3050612D01*
X33971600Y3062872D01*
X32271600Y3062872D01*
X32147118Y3050612D01*
X32027420Y3014302D01*
X31917106Y2955337D01*
X31820415Y2875985D01*
X31741063Y2779294D01*
X31682098Y2668980D01*
X31660087Y2596420D01*
X31528232Y2728275D01*
X31285011Y2890790D01*
X31014758Y3002732D01*
X30727860Y3059800D01*
X30435340Y3059800D01*
X30148442Y3002732D01*
X29878189Y2890790D01*
X29634968Y2728275D01*
X29428125Y2521432D01*
X29311600Y2347040D01*
X29195075Y2521432D01*
X28988232Y2728275D01*
X28745011Y2890790D01*
X28474758Y3002732D01*
X28187860Y3059800D01*
X27895340Y3059800D01*
X27608442Y3002732D01*
X27338189Y2890790D01*
X27094968Y2728275D01*
X26888125Y2521432D01*
X26771600Y2347040D01*
X26655075Y2521432D01*
X26448232Y2728275D01*
X26205011Y2890790D01*
X25934758Y3002732D01*
X25647860Y3059800D01*
X25355340Y3059800D01*
X25068442Y3002732D01*
X24798189Y2890790D01*
X24554968Y2728275D01*
X24348125Y2521432D01*
X24226405Y2339266D01*
X24156778Y2456155D01*
X23961869Y2672388D01*
X23728520Y2846441D01*
X23465699Y2971625D01*
X23318490Y3016276D01*
X23088600Y2894955D01*
X23088600Y1701800D01*
X23108600Y1701800D01*
X23108600Y1447800D01*
X23088600Y1447800D01*
X23088600Y1427800D01*
X22834600Y1427800D01*
X22834600Y1447800D01*
X22814600Y1447800D01*
X22814600Y1701800D01*
X22834600Y1701800D01*
X22834600Y2894955D01*
X22604710Y3016276D01*
X22457501Y2971625D01*
X22194680Y2846441D01*
X21961331Y2672388D01*
X21766422Y2456155D01*
X21696795Y2339266D01*
X21575075Y2521432D01*
X21368232Y2728275D01*
X21125011Y2890790D01*
X20854758Y3002732D01*
X20567860Y3059800D01*
X20275340Y3059800D01*
X19988442Y3002732D01*
X19718189Y2890790D01*
X19474968Y2728275D01*
X19268125Y2521432D01*
X19151600Y2347040D01*
X19035075Y2521432D01*
X18828232Y2728275D01*
X18585011Y2890790D01*
X18314758Y3002732D01*
X18027860Y3059800D01*
X17735340Y3059800D01*
X17448442Y3002732D01*
X17178189Y2890790D01*
X16934968Y2728275D01*
X16728125Y2521432D01*
X16611600Y2347040D01*
X16495075Y2521432D01*
X16288232Y2728275D01*
X16045011Y2890790D01*
X15774758Y3002732D01*
X15487860Y3059800D01*
X15195340Y3059800D01*
X14908442Y3002732D01*
X14638189Y2890790D01*
X14394968Y2728275D01*
X14188125Y2521432D01*
X14071600Y2347040D01*
X13955075Y2521432D01*
X13748232Y2728275D01*
X13505011Y2890790D01*
X13234758Y3002732D01*
X12947860Y3059800D01*
X12655340Y3059800D01*
X12368442Y3002732D01*
X12098189Y2890790D01*
X11854968Y2728275D01*
X11648125Y2521432D01*
X11531600Y2347040D01*
X11415075Y2521432D01*
X11208232Y2728275D01*
X10965011Y2890790D01*
X10694758Y3002732D01*
X10407860Y3059800D01*
X10115340Y3059800D01*
X9828442Y3002732D01*
X9558189Y2890790D01*
X9314968Y2728275D01*
X9108125Y2521432D01*
X8991600Y2347040D01*
X8875075Y2521432D01*
X8668232Y2728275D01*
X8425011Y2890790D01*
X8154758Y3002732D01*
X7867860Y3059800D01*
X7575340Y3059800D01*
X7288442Y3002732D01*
X7018189Y2890790D01*
X6774968Y2728275D01*
X6568125Y2521432D01*
X6451600Y2347040D01*
X6335075Y2521432D01*
X6128232Y2728275D01*
X5885011Y2890790D01*
X5614758Y3002732D01*
X5327860Y3059800D01*
X5035340Y3059800D01*
X4748442Y3002732D01*
X4478189Y2890790D01*
X4234968Y2728275D01*
X4028125Y2521432D01*
X3906405Y2339266D01*
X3836778Y2456155D01*
X3641869Y2672388D01*
X3408520Y2846441D01*
X3145699Y2971625D01*
X2998490Y3016276D01*
X2768600Y2894955D01*
X2768600Y1701800D01*
X2788600Y1701800D01*
X2788600Y1447800D01*
X2768600Y1447800D01*
X2768600Y1427800D01*
X2514600Y1427800D01*
X2514600Y1447800D01*
X2494600Y1447800D01*
X2494600Y1701800D01*
X2514600Y1701800D01*
X2514600Y2894955D01*
X2284710Y3016276D01*
X2137501Y2971625D01*
X1874680Y2846441D01*
X1641331Y2672388D01*
X1446422Y2456155D01*
X1376795Y2339266D01*
X1255075Y2521432D01*
X1048232Y2728275D01*
X805011Y2890790D01*
X534758Y3002732D01*
X247860Y3059800D01*
X-44660Y3059800D01*
X-331558Y3002732D01*
X-601811Y2890790D01*
X-845032Y2728275D01*
X-1051875Y2521432D01*
X-1168400Y2347040D01*
X-1284925Y2521432D01*
X-1491768Y2728275D01*
X-1734989Y2890790D01*
X-2005242Y3002732D01*
X-2292140Y3059800D01*
X-2584660Y3059800D01*
X-2871558Y3002732D01*
X-3141811Y2890790D01*
X-3385032Y2728275D01*
X-3591875Y2521432D01*
X-3708400Y2347040D01*
X-3824925Y2521432D01*
X-4031768Y2728275D01*
X-4274989Y2890790D01*
X-4545242Y3002732D01*
X-4832140Y3059800D01*
X-5124660Y3059800D01*
X-5411558Y3002732D01*
X-5681811Y2890790D01*
X-5925032Y2728275D01*
X-6131875Y2521432D01*
X-6248400Y2347040D01*
X-6364925Y2521432D01*
X-6571768Y2728275D01*
X-6814989Y2890790D01*
X-7085242Y3002732D01*
X-7372140Y3059800D01*
X-7664660Y3059800D01*
X-7951558Y3002732D01*
X-8221811Y2890790D01*
X-8465032Y2728275D01*
X-8671875Y2521432D01*
X-8788400Y2347040D01*
X-8904925Y2521432D01*
X-9111768Y2728275D01*
X-9354989Y2890790D01*
X-9625242Y3002732D01*
X-9912140Y3059800D01*
X-10204660Y3059800D01*
X-10491558Y3002732D01*
X-10761811Y2890790D01*
X-11005032Y2728275D01*
X-11211875Y2521432D01*
X-11328400Y2347040D01*
X-11444925Y2521432D01*
X-11651768Y2728275D01*
X-11894989Y2890790D01*
X-12165242Y3002732D01*
X-12452140Y3059800D01*
X-12744660Y3059800D01*
X-13031558Y3002732D01*
X-13301811Y2890790D01*
X-13545032Y2728275D01*
X-13751875Y2521432D01*
X-13873595Y2339266D01*
X-13943222Y2456155D01*
X-14138131Y2672388D01*
X-14371480Y2846441D01*
X-14634301Y2971625D01*
X-14781510Y3016276D01*
X-15011400Y2894955D01*
X-15011400Y1701800D01*
X-14991400Y1701800D01*
X-14991400Y1447800D01*
X-15011400Y1447800D01*
X-15011400Y1427800D01*
X-15265400Y1427800D01*
X-15265400Y1447800D01*
X-16459214Y1447800D01*
X-16579881Y1217909D01*
X-16482557Y943548D01*
X-16333578Y693445D01*
X-16138669Y477212D01*
X-15908994Y305900D01*
X-16085032Y188275D01*
X-16291875Y-18568D01*
X-16454390Y-261789D01*
X-16566332Y-532042D01*
X-16623400Y-818940D01*
X-17374000Y-818940D01*
X-17374000Y1931691D01*
X-16579881Y1931691D01*
X-16459214Y1701800D01*
X-15265400Y1701800D01*
X-15265400Y2894955D01*
X-15495290Y3016276D01*
X-15642499Y2971625D01*
X-15905320Y2846441D01*
X-16138669Y2672388D01*
X-16333578Y2456155D01*
X-16482557Y2206052D01*
X-16579881Y1931691D01*
X-17374000Y1931691D01*
X-17374000Y3277000D01*
X47346000Y3277000D01*
X47346001Y-95733000D01*
%TA.AperFunction,Conductor*%
D23*
G36*
X47346001Y-95733000D02*
G01*
X-17374000Y-95733000D01*
X-17374000Y-92172372D01*
X12751000Y-92172372D01*
X12751000Y-92612628D01*
X12836890Y-93044425D01*
X13005369Y-93451169D01*
X13249962Y-93817229D01*
X13561271Y-94128538D01*
X13927331Y-94373131D01*
X14334075Y-94541610D01*
X14765872Y-94627500D01*
X15206128Y-94627500D01*
X15637925Y-94541610D01*
X16044669Y-94373131D01*
X16410729Y-94128538D01*
X16722038Y-93817229D01*
X16966631Y-93451169D01*
X16972099Y-93437967D01*
X23765000Y-93437967D01*
X23765000Y-93760033D01*
X23827832Y-94075912D01*
X23951082Y-94373463D01*
X24130013Y-94641252D01*
X24357748Y-94868987D01*
X24625537Y-95047918D01*
X24923088Y-95171168D01*
X25238967Y-95234000D01*
X25561033Y-95234000D01*
X25876912Y-95171168D01*
X26174463Y-95047918D01*
X26442252Y-94868987D01*
X26576826Y-94734413D01*
X34604192Y-94734413D01*
X34699956Y-94998814D01*
X34989571Y-95139704D01*
X35301108Y-95221384D01*
X35622595Y-95240718D01*
X35941675Y-95196961D01*
X36246088Y-95091795D01*
X36420044Y-94998814D01*
X36515808Y-94734413D01*
X39684192Y-94734413D01*
X39779956Y-94998814D01*
X40069571Y-95139704D01*
X40381108Y-95221384D01*
X40702595Y-95240718D01*
X41021675Y-95196961D01*
X41326088Y-95091795D01*
X41500044Y-94998814D01*
X41595808Y-94734413D01*
X40640000Y-93778605D01*
X39684192Y-94734413D01*
X36515808Y-94734413D01*
X35560000Y-93778605D01*
X34604192Y-94734413D01*
X26576826Y-94734413D01*
X26669987Y-94641252D01*
X26848918Y-94373463D01*
X26972168Y-94075912D01*
X27035000Y-93760033D01*
X27035000Y-93661595D01*
X33918282Y-93661595D01*
X33962039Y-93980675D01*
X34067205Y-94285088D01*
X34160186Y-94459044D01*
X34424587Y-94554808D01*
X35380395Y-93599000D01*
X35739605Y-93599000D01*
X36695413Y-94554808D01*
X36959814Y-94459044D01*
X37100704Y-94169429D01*
X37182384Y-93857892D01*
X37194189Y-93661595D01*
X38998282Y-93661595D01*
X39042039Y-93980675D01*
X39147205Y-94285088D01*
X39240186Y-94459044D01*
X39504587Y-94554808D01*
X40460395Y-93599000D01*
X40819605Y-93599000D01*
X41775413Y-94554808D01*
X42039814Y-94459044D01*
X42180704Y-94169429D01*
X42262384Y-93857892D01*
X42281718Y-93536405D01*
X42237961Y-93217325D01*
X42132795Y-92912912D01*
X42039814Y-92738956D01*
X41775413Y-92643192D01*
X40819605Y-93599000D01*
X40460395Y-93599000D01*
X39504587Y-92643192D01*
X39240186Y-92738956D01*
X39099296Y-93028571D01*
X39017616Y-93340108D01*
X38998282Y-93661595D01*
X37194189Y-93661595D01*
X37201718Y-93536405D01*
X37157961Y-93217325D01*
X37052795Y-92912912D01*
X36959814Y-92738956D01*
X36695413Y-92643192D01*
X35739605Y-93599000D01*
X35380395Y-93599000D01*
X34424587Y-92643192D01*
X34160186Y-92738956D01*
X34019296Y-93028571D01*
X33937616Y-93340108D01*
X33918282Y-93661595D01*
X27035000Y-93661595D01*
X27035000Y-93437967D01*
X26972168Y-93122088D01*
X26848918Y-92824537D01*
X26669987Y-92556748D01*
X26576826Y-92463587D01*
X34604192Y-92463587D01*
X35560000Y-93419395D01*
X36515808Y-92463587D01*
X39684192Y-92463587D01*
X40640000Y-93419395D01*
X41595808Y-92463587D01*
X41500044Y-92199186D01*
X41210429Y-92058296D01*
X40898892Y-91976616D01*
X40577405Y-91957282D01*
X40258325Y-92001039D01*
X39953912Y-92106205D01*
X39779956Y-92199186D01*
X39684192Y-92463587D01*
X36515808Y-92463587D01*
X36420044Y-92199186D01*
X36130429Y-92058296D01*
X35818892Y-91976616D01*
X35497405Y-91957282D01*
X35178325Y-92001039D01*
X34873912Y-92106205D01*
X34699956Y-92199186D01*
X34604192Y-92463587D01*
X26576826Y-92463587D01*
X26442252Y-92329013D01*
X26174463Y-92150082D01*
X25876912Y-92026832D01*
X25561033Y-91964000D01*
X25238967Y-91964000D01*
X24923088Y-92026832D01*
X24625537Y-92150082D01*
X24357748Y-92329013D01*
X24130013Y-92556748D01*
X23951082Y-92824537D01*
X23827832Y-93122088D01*
X23765000Y-93437967D01*
X16972099Y-93437967D01*
X17135110Y-93044425D01*
X17221000Y-92612628D01*
X17221000Y-92172372D01*
X17135110Y-91740575D01*
X16966631Y-91333831D01*
X16722038Y-90967771D01*
X16410729Y-90656462D01*
X16044669Y-90411869D01*
X15637925Y-90243390D01*
X15206128Y-90157500D01*
X14765872Y-90157500D01*
X14334075Y-90243390D01*
X13927331Y-90411869D01*
X13561271Y-90656462D01*
X13249962Y-90967771D01*
X13005369Y-91333831D01*
X12836890Y-91740575D01*
X12751000Y-92172372D01*
X-17374000Y-92172372D01*
X-17374000Y-90074264D01*
X-14763800Y-90074264D01*
X-14763800Y-90672135D01*
X-14742024Y-90893231D01*
X-14655966Y-91176924D01*
X-14516217Y-91438378D01*
X-14328145Y-91667545D01*
X-14098979Y-91855617D01*
X-13837525Y-91995366D01*
X-13553832Y-92081424D01*
X-13258800Y-92110482D01*
X-12963769Y-92081424D01*
X-12680076Y-91995366D01*
X-12418622Y-91855617D01*
X-12189455Y-91667545D01*
X-12135734Y-91602086D01*
X-12077205Y-91711587D01*
X-11966762Y-91846162D01*
X-11832187Y-91956605D01*
X-11678651Y-92038672D01*
X-11512055Y-92089208D01*
X-11338801Y-92106272D01*
X-10098799Y-92106272D01*
X-9925545Y-92089208D01*
X-9758949Y-92038672D01*
X-9605413Y-91956605D01*
X-9470838Y-91846162D01*
X-9360395Y-91711587D01*
X-9278328Y-91558051D01*
X-9227792Y-91391455D01*
X-9210728Y-91218201D01*
X-9210728Y-90125064D01*
X-5518200Y-90125064D01*
X-5518200Y-90722935D01*
X-5496424Y-90944031D01*
X-5410366Y-91227724D01*
X-5270617Y-91489178D01*
X-5082545Y-91718345D01*
X-4853379Y-91906417D01*
X-4591925Y-92046166D01*
X-4308232Y-92132224D01*
X-4013200Y-92161282D01*
X-3718169Y-92132224D01*
X-3434476Y-92046166D01*
X-3173022Y-91906417D01*
X-2943855Y-91718345D01*
X-2890134Y-91652886D01*
X-2831605Y-91762387D01*
X-2721162Y-91896962D01*
X-2586587Y-92007405D01*
X-2433051Y-92089472D01*
X-2266455Y-92140008D01*
X-2093201Y-92157072D01*
X-853199Y-92157072D01*
X-679945Y-92140008D01*
X-513349Y-92089472D01*
X-359813Y-92007405D01*
X-225238Y-91896962D01*
X-114795Y-91762387D01*
X-32728Y-91608851D01*
X17808Y-91442255D01*
X34872Y-91269001D01*
X34872Y-89832605D01*
X20886000Y-89832605D01*
X21011914Y-90122577D01*
X21344126Y-90288433D01*
X21702312Y-90386290D01*
X22072706Y-90412389D01*
X22441075Y-90365725D01*
X22793262Y-90248094D01*
X23028086Y-90122577D01*
X23154000Y-89832605D01*
X22020000Y-88698605D01*
X20886000Y-89832605D01*
X34872Y-89832605D01*
X34872Y-89578999D01*
X17808Y-89405745D01*
X-32728Y-89239149D01*
X-114795Y-89085613D01*
X-225238Y-88951038D01*
X-359813Y-88840595D01*
X-513349Y-88758528D01*
X-679945Y-88707992D01*
X-853199Y-88690928D01*
X-2093201Y-88690928D01*
X-2266455Y-88707992D01*
X-2433051Y-88758528D01*
X-2586587Y-88840595D01*
X-2721162Y-88951038D01*
X-2831605Y-89085613D01*
X-2890134Y-89195114D01*
X-2943855Y-89129655D01*
X-3173021Y-88941583D01*
X-3434475Y-88801834D01*
X-3718168Y-88715776D01*
X-4013200Y-88686718D01*
X-4308231Y-88715776D01*
X-4591924Y-88801834D01*
X-4853378Y-88941583D01*
X-5082545Y-89129655D01*
X-5270617Y-89358821D01*
X-5410366Y-89620275D01*
X-5496424Y-89903968D01*
X-5518200Y-90125064D01*
X-9210728Y-90125064D01*
X-9210728Y-89528199D01*
X-9227792Y-89354945D01*
X-9278328Y-89188349D01*
X-9360395Y-89034813D01*
X-9470838Y-88900238D01*
X-9605413Y-88789795D01*
X-9758949Y-88707728D01*
X-9925545Y-88657192D01*
X-10098799Y-88640128D01*
X-11338801Y-88640128D01*
X-11512055Y-88657192D01*
X-11678651Y-88707728D01*
X-11832187Y-88789795D01*
X-11966762Y-88900238D01*
X-12077205Y-89034813D01*
X-12135734Y-89144314D01*
X-12189455Y-89078855D01*
X-12418621Y-88890783D01*
X-12680075Y-88751034D01*
X-12963768Y-88664976D01*
X-13258800Y-88635918D01*
X-13553831Y-88664976D01*
X-13837524Y-88751034D01*
X-14098978Y-88890783D01*
X-14328145Y-89078855D01*
X-14516217Y-89308021D01*
X-14655966Y-89569475D01*
X-14742024Y-89853168D01*
X-14763800Y-90074264D01*
X-17374000Y-90074264D01*
X-17374000Y-88571706D01*
X20126611Y-88571706D01*
X20173275Y-88940075D01*
X20290906Y-89292262D01*
X20416423Y-89527086D01*
X20706395Y-89653000D01*
X21840395Y-88519000D01*
X22199605Y-88519000D01*
X23333605Y-89653000D01*
X23623577Y-89527086D01*
X23789433Y-89194874D01*
X23887290Y-88836688D01*
X23913389Y-88466294D01*
X23866725Y-88097925D01*
X23749094Y-87745738D01*
X23623577Y-87510914D01*
X23333605Y-87385000D01*
X22199605Y-88519000D01*
X21840395Y-88519000D01*
X20706395Y-87385000D01*
X20416423Y-87510914D01*
X20250567Y-87843126D01*
X20152710Y-88201312D01*
X20126611Y-88571706D01*
X-17374000Y-88571706D01*
X-17374000Y-87205395D01*
X20886000Y-87205395D01*
X22020000Y-88339395D01*
X23154000Y-87205395D01*
X23028086Y-86915423D01*
X22695874Y-86749567D01*
X22337688Y-86651710D01*
X21967294Y-86625611D01*
X21598925Y-86672275D01*
X21246738Y-86789906D01*
X21011914Y-86915423D01*
X20886000Y-87205395D01*
X-17374000Y-87205395D01*
X-17374000Y-70630839D01*
X-13602904Y-70630839D01*
X-13585367Y-70713618D01*
X-13474715Y-70973446D01*
X-13315500Y-71206695D01*
X-13113839Y-71404401D01*
X-12877483Y-71558966D01*
X-12615514Y-71664450D01*
X-12338000Y-71716800D01*
X-11938000Y-71716800D01*
X-11938000Y-70408800D01*
X-11684000Y-70408800D01*
X-11684000Y-71716800D01*
X-11284000Y-71716800D01*
X-11006486Y-71664450D01*
X-10744517Y-71558966D01*
X-10508161Y-71404401D01*
X-10306500Y-71206695D01*
X-10147285Y-70973446D01*
X-10036633Y-70713618D01*
X-10019096Y-70630839D01*
X-10141085Y-70408800D01*
X-11684000Y-70408800D01*
X-11938000Y-70408800D01*
X-13480915Y-70408800D01*
X-13602904Y-70630839D01*
X-17374000Y-70630839D01*
X-17374000Y-62661800D01*
X-13652943Y-62661800D01*
X-13625236Y-62943109D01*
X-13543182Y-63213608D01*
X-13409932Y-63462901D01*
X-13230608Y-63681408D01*
X-13012101Y-63860732D01*
X-12879142Y-63931800D01*
X-13012101Y-64002868D01*
X-13230608Y-64182192D01*
X-13409932Y-64400699D01*
X-13543182Y-64649992D01*
X-13625236Y-64920491D01*
X-13652943Y-65201800D01*
X-13625236Y-65483109D01*
X-13543182Y-65753608D01*
X-13409932Y-66002901D01*
X-13230608Y-66221408D01*
X-13012101Y-66400732D01*
X-12879142Y-66471800D01*
X-13012101Y-66542868D01*
X-13230608Y-66722192D01*
X-13409932Y-66940699D01*
X-13543182Y-67189992D01*
X-13625236Y-67460491D01*
X-13652943Y-67741800D01*
X-13625236Y-68023109D01*
X-13543182Y-68293608D01*
X-13409932Y-68542901D01*
X-13230608Y-68761408D01*
X-13012101Y-68940732D01*
X-12884259Y-69009065D01*
X-13113839Y-69159199D01*
X-13315500Y-69356905D01*
X-13474715Y-69590154D01*
X-13585367Y-69849982D01*
X-13602904Y-69932761D01*
X-13480915Y-70154800D01*
X-11938000Y-70154800D01*
X-11938000Y-70134800D01*
X-11684000Y-70134800D01*
X-11684000Y-70154800D01*
X-10141085Y-70154800D01*
X-10019096Y-69932761D01*
X-10036633Y-69849982D01*
X-10147285Y-69590154D01*
X-10221247Y-69481800D01*
X-6029072Y-69481800D01*
X-6029072Y-71081800D01*
X-6016812Y-71206282D01*
X-5980502Y-71325980D01*
X-5921537Y-71436294D01*
X-5842185Y-71532985D01*
X-5745494Y-71612337D01*
X-5635180Y-71671302D01*
X-5515482Y-71707612D01*
X-5391000Y-71719872D01*
X-2991000Y-71719872D01*
X-2866518Y-71707612D01*
X-2746820Y-71671302D01*
X-2636506Y-71612337D01*
X-2539815Y-71532985D01*
X-2460463Y-71436294D01*
X-2401498Y-71325980D01*
X-2365188Y-71206282D01*
X-2352928Y-71081800D01*
X-2352928Y-69481800D01*
X-2365188Y-69357318D01*
X-2401498Y-69237620D01*
X-2460463Y-69127306D01*
X-2539815Y-69030615D01*
X-2636506Y-68951263D01*
X-2746820Y-68892298D01*
X-2866518Y-68855988D01*
X-2878387Y-68854819D01*
X-2686500Y-68666695D01*
X-2635514Y-68592000D01*
X9413328Y-68592000D01*
X9413328Y-70092000D01*
X9425588Y-70216482D01*
X9461898Y-70336180D01*
X9520863Y-70446494D01*
X9600215Y-70543185D01*
X9696906Y-70622537D01*
X9807220Y-70681502D01*
X9926918Y-70717812D01*
X10051400Y-70730072D01*
X12351400Y-70730072D01*
X12475882Y-70717812D01*
X12595580Y-70681502D01*
X12705894Y-70622537D01*
X12802585Y-70543185D01*
X12881937Y-70446494D01*
X12940902Y-70336180D01*
X12977212Y-70216482D01*
X12989472Y-70092000D01*
X12989472Y-68592000D01*
X12977212Y-68467518D01*
X12940902Y-68347820D01*
X12881937Y-68237506D01*
X12802585Y-68140815D01*
X12705894Y-68061463D01*
X12595580Y-68002498D01*
X12475882Y-67966188D01*
X12366526Y-67955418D01*
X12476461Y-67883028D01*
X12670545Y-67691540D01*
X12823542Y-67465868D01*
X12929573Y-67214684D01*
X12943718Y-67143185D01*
X12821056Y-66929000D01*
X11328400Y-66929000D01*
X11328400Y-66949000D01*
X11074400Y-66949000D01*
X11074400Y-66929000D01*
X9581744Y-66929000D01*
X9459082Y-67143185D01*
X9473227Y-67214684D01*
X9579258Y-67465868D01*
X9732255Y-67691540D01*
X9926339Y-67883028D01*
X10036274Y-67955418D01*
X9926918Y-67966188D01*
X9807220Y-68002498D01*
X9696906Y-68061463D01*
X9600215Y-68140815D01*
X9520863Y-68237506D01*
X9461898Y-68347820D01*
X9425588Y-68467518D01*
X9413328Y-68592000D01*
X-2635514Y-68592000D01*
X-2527285Y-68433446D01*
X-2416633Y-68173618D01*
X-2399096Y-68090839D01*
X-2521085Y-67868800D01*
X-4064000Y-67868800D01*
X-4064000Y-67888800D01*
X-4318000Y-67888800D01*
X-4318000Y-67868800D01*
X-5860915Y-67868800D01*
X-5982904Y-68090839D01*
X-5965367Y-68173618D01*
X-5854715Y-68433446D01*
X-5695500Y-68666695D01*
X-5503613Y-68854819D01*
X-5515482Y-68855988D01*
X-5635180Y-68892298D01*
X-5745494Y-68951263D01*
X-5842185Y-69030615D01*
X-5921537Y-69127306D01*
X-5980502Y-69237620D01*
X-6016812Y-69357318D01*
X-6029072Y-69481800D01*
X-10221247Y-69481800D01*
X-10306500Y-69356905D01*
X-10508161Y-69159199D01*
X-10737741Y-69009065D01*
X-10609899Y-68940732D01*
X-10391392Y-68761408D01*
X-10212068Y-68542901D01*
X-10078818Y-68293608D01*
X-9996764Y-68023109D01*
X-9969057Y-67741800D01*
X-9996764Y-67460491D01*
X-10078818Y-67189992D01*
X-10212068Y-66940699D01*
X-10391392Y-66722192D01*
X-10609899Y-66542868D01*
X-10742858Y-66471800D01*
X-10609899Y-66400732D01*
X-10391392Y-66221408D01*
X-10212068Y-66002901D01*
X-10078818Y-65753608D01*
X-9996764Y-65483109D01*
X-9969057Y-65201800D01*
X-9996764Y-64920491D01*
X-10078818Y-64649992D01*
X-10212068Y-64400699D01*
X-10391392Y-64182192D01*
X-10609899Y-64002868D01*
X-10742858Y-63931800D01*
X-10609899Y-63860732D01*
X-10391392Y-63681408D01*
X-10212068Y-63462901D01*
X-10078818Y-63213608D01*
X-9996764Y-62943109D01*
X-9969057Y-62661800D01*
X-6032943Y-62661800D01*
X-6005236Y-62943109D01*
X-5923182Y-63213608D01*
X-5789932Y-63462901D01*
X-5610608Y-63681408D01*
X-5392101Y-63860732D01*
X-5259142Y-63931800D01*
X-5392101Y-64002868D01*
X-5610608Y-64182192D01*
X-5789932Y-64400699D01*
X-5923182Y-64649992D01*
X-6005236Y-64920491D01*
X-6032943Y-65201800D01*
X-6005236Y-65483109D01*
X-5923182Y-65753608D01*
X-5789932Y-66002901D01*
X-5610608Y-66221408D01*
X-5392101Y-66400732D01*
X-5264259Y-66469065D01*
X-5493839Y-66619199D01*
X-5695500Y-66816905D01*
X-5854715Y-67050154D01*
X-5965367Y-67309982D01*
X-5982904Y-67392761D01*
X-5860915Y-67614800D01*
X-4318000Y-67614800D01*
X-4318000Y-67594800D01*
X-4064000Y-67594800D01*
X-4064000Y-67614800D01*
X-2521085Y-67614800D01*
X-2399096Y-67392761D01*
X-2416633Y-67309982D01*
X-2527285Y-67050154D01*
X-2686500Y-66816905D01*
X-2888161Y-66619199D01*
X-3117741Y-66469065D01*
X-2989899Y-66400732D01*
X-2771392Y-66221408D01*
X-2592068Y-66002901D01*
X-2458818Y-65753608D01*
X-2376764Y-65483109D01*
X-2349057Y-65201800D01*
X-2376764Y-64920491D01*
X-2458818Y-64649992D01*
X-2592068Y-64400699D01*
X-2705895Y-64262000D01*
X9409699Y-64262000D01*
X9436440Y-64533507D01*
X9515636Y-64794581D01*
X9644243Y-65035188D01*
X9817319Y-65246081D01*
X10028212Y-65419157D01*
X10243978Y-65534486D01*
X10154051Y-65571028D01*
X9926339Y-65720972D01*
X9732255Y-65912460D01*
X9579258Y-66138132D01*
X9473227Y-66389316D01*
X9459082Y-66460815D01*
X9581744Y-66675000D01*
X11074400Y-66675000D01*
X11074400Y-66655000D01*
X11328400Y-66655000D01*
X11328400Y-66675000D01*
X12821056Y-66675000D01*
X12943718Y-66460815D01*
X12929573Y-66389316D01*
X12823542Y-66138132D01*
X12670545Y-65912460D01*
X12476461Y-65720972D01*
X12248749Y-65571028D01*
X12158822Y-65534486D01*
X12374588Y-65419157D01*
X12585481Y-65246081D01*
X12758557Y-65035188D01*
X12887164Y-64794581D01*
X12966360Y-64533507D01*
X12976297Y-64432605D01*
X43036000Y-64432605D01*
X43161914Y-64722577D01*
X43494126Y-64888433D01*
X43852312Y-64986290D01*
X44222706Y-65012389D01*
X44591075Y-64965725D01*
X44943262Y-64848094D01*
X45178086Y-64722577D01*
X45304000Y-64432605D01*
X44170000Y-63298605D01*
X43036000Y-64432605D01*
X12976297Y-64432605D01*
X12993101Y-64262000D01*
X12966360Y-63990493D01*
X12887164Y-63729419D01*
X12758557Y-63488812D01*
X12585481Y-63277919D01*
X12456061Y-63171706D01*
X42276611Y-63171706D01*
X42323275Y-63540075D01*
X42440906Y-63892262D01*
X42566423Y-64127086D01*
X42856395Y-64253000D01*
X43990395Y-63119000D01*
X44349605Y-63119000D01*
X45483605Y-64253000D01*
X45773577Y-64127086D01*
X45939433Y-63794874D01*
X46037290Y-63436688D01*
X46063389Y-63066294D01*
X46016725Y-62697925D01*
X45899094Y-62345738D01*
X45773577Y-62110914D01*
X45483605Y-61985000D01*
X44349605Y-63119000D01*
X43990395Y-63119000D01*
X42856395Y-61985000D01*
X42566423Y-62110914D01*
X42400567Y-62443126D01*
X42302710Y-62801312D01*
X42276611Y-63171706D01*
X12456061Y-63171706D01*
X12374588Y-63104843D01*
X12133981Y-62976236D01*
X11872907Y-62897040D01*
X11669437Y-62877000D01*
X10733363Y-62877000D01*
X10529893Y-62897040D01*
X10268819Y-62976236D01*
X10028212Y-63104843D01*
X9817319Y-63277919D01*
X9644243Y-63488812D01*
X9515636Y-63729419D01*
X9436440Y-63990493D01*
X9409699Y-64262000D01*
X-2705895Y-64262000D01*
X-2771392Y-64182192D01*
X-2989899Y-64002868D01*
X-3122858Y-63931800D01*
X-2989899Y-63860732D01*
X-2771392Y-63681408D01*
X-2592068Y-63462901D01*
X-2458818Y-63213608D01*
X-2376764Y-62943109D01*
X-2349057Y-62661800D01*
X-2376764Y-62380491D01*
X-2458818Y-62109992D01*
X-2592068Y-61860699D01*
X-2637454Y-61805395D01*
X43036000Y-61805395D01*
X44170000Y-62939395D01*
X45304000Y-61805395D01*
X45178086Y-61515423D01*
X44845874Y-61349567D01*
X44487688Y-61251710D01*
X44117294Y-61225611D01*
X43748925Y-61272275D01*
X43396738Y-61389906D01*
X43161914Y-61515423D01*
X43036000Y-61805395D01*
X-2637454Y-61805395D01*
X-2771392Y-61642192D01*
X-2989899Y-61462868D01*
X-3239192Y-61329618D01*
X-3509691Y-61247564D01*
X-3720508Y-61226800D01*
X-4661492Y-61226800D01*
X-4872309Y-61247564D01*
X-5142808Y-61329618D01*
X-5392101Y-61462868D01*
X-5610608Y-61642192D01*
X-5789932Y-61860699D01*
X-5923182Y-62109992D01*
X-6005236Y-62380491D01*
X-6032943Y-62661800D01*
X-9969057Y-62661800D01*
X-9996764Y-62380491D01*
X-10078818Y-62109992D01*
X-10212068Y-61860699D01*
X-10391392Y-61642192D01*
X-10609899Y-61462868D01*
X-10859192Y-61329618D01*
X-11129691Y-61247564D01*
X-11340508Y-61226800D01*
X-12281492Y-61226800D01*
X-12492309Y-61247564D01*
X-12762808Y-61329618D01*
X-13012101Y-61462868D01*
X-13230608Y-61642192D01*
X-13409932Y-61860699D01*
X-13543182Y-62109992D01*
X-13625236Y-62380491D01*
X-13652943Y-62661800D01*
X-17374000Y-62661800D01*
X-17374000Y-57877967D01*
X23765000Y-57877967D01*
X23765000Y-58200033D01*
X23827832Y-58515912D01*
X23951082Y-58813463D01*
X24130013Y-59081252D01*
X24357748Y-59308987D01*
X24625537Y-59487918D01*
X24923088Y-59611168D01*
X25238967Y-59674000D01*
X25561033Y-59674000D01*
X25876912Y-59611168D01*
X26174463Y-59487918D01*
X26442252Y-59308987D01*
X26669987Y-59081252D01*
X26848918Y-58813463D01*
X26972168Y-58515912D01*
X27035000Y-58200033D01*
X27035000Y-57877967D01*
X28845000Y-57877967D01*
X28845000Y-58200033D01*
X28907832Y-58515912D01*
X29031082Y-58813463D01*
X29210013Y-59081252D01*
X29437748Y-59308987D01*
X29705537Y-59487918D01*
X30003088Y-59611168D01*
X30318967Y-59674000D01*
X30641033Y-59674000D01*
X30956912Y-59611168D01*
X31254463Y-59487918D01*
X31522252Y-59308987D01*
X31656826Y-59174413D01*
X34604192Y-59174413D01*
X34699956Y-59438814D01*
X34989571Y-59579704D01*
X35301108Y-59661384D01*
X35622595Y-59680718D01*
X35941675Y-59636961D01*
X36246088Y-59531795D01*
X36420044Y-59438814D01*
X36515808Y-59174413D01*
X35560000Y-58218605D01*
X34604192Y-59174413D01*
X31656826Y-59174413D01*
X31749987Y-59081252D01*
X31928918Y-58813463D01*
X32052168Y-58515912D01*
X32115000Y-58200033D01*
X32115000Y-58101595D01*
X33918282Y-58101595D01*
X33962039Y-58420675D01*
X34067205Y-58725088D01*
X34160186Y-58899044D01*
X34424587Y-58994808D01*
X35380395Y-58039000D01*
X35739605Y-58039000D01*
X36695413Y-58994808D01*
X36959814Y-58899044D01*
X37100704Y-58609429D01*
X37182384Y-58297892D01*
X37201718Y-57976405D01*
X37188219Y-57877967D01*
X39005000Y-57877967D01*
X39005000Y-58200033D01*
X39067832Y-58515912D01*
X39191082Y-58813463D01*
X39370013Y-59081252D01*
X39597748Y-59308987D01*
X39865537Y-59487918D01*
X40163088Y-59611168D01*
X40478967Y-59674000D01*
X40801033Y-59674000D01*
X41116912Y-59611168D01*
X41414463Y-59487918D01*
X41682252Y-59308987D01*
X41909987Y-59081252D01*
X42088918Y-58813463D01*
X42212168Y-58515912D01*
X42275000Y-58200033D01*
X42275000Y-57877967D01*
X42212168Y-57562088D01*
X42088918Y-57264537D01*
X41909987Y-56996748D01*
X41682252Y-56769013D01*
X41414463Y-56590082D01*
X41116912Y-56466832D01*
X40801033Y-56404000D01*
X40478967Y-56404000D01*
X40163088Y-56466832D01*
X39865537Y-56590082D01*
X39597748Y-56769013D01*
X39370013Y-56996748D01*
X39191082Y-57264537D01*
X39067832Y-57562088D01*
X39005000Y-57877967D01*
X37188219Y-57877967D01*
X37157961Y-57657325D01*
X37052795Y-57352912D01*
X36959814Y-57178956D01*
X36695413Y-57083192D01*
X35739605Y-58039000D01*
X35380395Y-58039000D01*
X34424587Y-57083192D01*
X34160186Y-57178956D01*
X34019296Y-57468571D01*
X33937616Y-57780108D01*
X33918282Y-58101595D01*
X32115000Y-58101595D01*
X32115000Y-57877967D01*
X32052168Y-57562088D01*
X31928918Y-57264537D01*
X31749987Y-56996748D01*
X31656826Y-56903587D01*
X34604192Y-56903587D01*
X35560000Y-57859395D01*
X36515808Y-56903587D01*
X36420044Y-56639186D01*
X36130429Y-56498296D01*
X35818892Y-56416616D01*
X35497405Y-56397282D01*
X35178325Y-56441039D01*
X34873912Y-56546205D01*
X34699956Y-56639186D01*
X34604192Y-56903587D01*
X31656826Y-56903587D01*
X31522252Y-56769013D01*
X31254463Y-56590082D01*
X30956912Y-56466832D01*
X30641033Y-56404000D01*
X30318967Y-56404000D01*
X30003088Y-56466832D01*
X29705537Y-56590082D01*
X29437748Y-56769013D01*
X29210013Y-56996748D01*
X29031082Y-57264537D01*
X28907832Y-57562088D01*
X28845000Y-57877967D01*
X27035000Y-57877967D01*
X26972168Y-57562088D01*
X26848918Y-57264537D01*
X26669987Y-56996748D01*
X26442252Y-56769013D01*
X26174463Y-56590082D01*
X25876912Y-56466832D01*
X25561033Y-56404000D01*
X25238967Y-56404000D01*
X24923088Y-56466832D01*
X24625537Y-56590082D01*
X24357748Y-56769013D01*
X24130013Y-56996748D01*
X23951082Y-57264537D01*
X23827832Y-57562088D01*
X23765000Y-57877967D01*
X-17374000Y-57877967D01*
X-17374000Y-48534800D01*
X39667128Y-48534800D01*
X39667128Y-51134800D01*
X39679388Y-51259282D01*
X39715698Y-51378980D01*
X39774663Y-51489294D01*
X39854015Y-51585985D01*
X39950706Y-51665337D01*
X40061020Y-51724302D01*
X40180718Y-51760612D01*
X40305200Y-51772872D01*
X42905200Y-51772872D01*
X43029682Y-51760612D01*
X43149380Y-51724302D01*
X43259694Y-51665337D01*
X43356385Y-51585985D01*
X43435737Y-51489294D01*
X43494702Y-51378980D01*
X43531012Y-51259282D01*
X43543272Y-51134800D01*
X43543272Y-48534800D01*
X43531012Y-48410318D01*
X43494702Y-48290620D01*
X43435737Y-48180306D01*
X43356385Y-48083615D01*
X43259694Y-48004263D01*
X43149380Y-47945298D01*
X43029682Y-47908988D01*
X42905200Y-47896728D01*
X40305200Y-47896728D01*
X40180718Y-47908988D01*
X40061020Y-47945298D01*
X39950706Y-48004263D01*
X39854015Y-48083615D01*
X39774663Y-48180306D01*
X39715698Y-48290620D01*
X39679388Y-48410318D01*
X39667128Y-48534800D01*
X-17374000Y-48534800D01*
X-17374000Y-35118789D01*
X-9182800Y-35118789D01*
X-9182800Y-35391611D01*
X-9129575Y-35659189D01*
X-9025171Y-35911243D01*
X-8873599Y-36138086D01*
X-8680686Y-36330999D01*
X-8453843Y-36482571D01*
X-8201789Y-36586975D01*
X-7934211Y-36640200D01*
X-7661389Y-36640200D01*
X-7393811Y-36586975D01*
X-7141757Y-36482571D01*
X-6914914Y-36330999D01*
X-6722001Y-36138086D01*
X-6570429Y-35911243D01*
X-6466025Y-35659189D01*
X-6412800Y-35391611D01*
X-6412800Y-35118789D01*
X-6466025Y-34851211D01*
X-6570429Y-34599157D01*
X-6722001Y-34372314D01*
X-6914914Y-34179401D01*
X-7141757Y-34027829D01*
X-7393811Y-33923425D01*
X-7661389Y-33870200D01*
X-7934211Y-33870200D01*
X-8201789Y-33923425D01*
X-8453843Y-34027829D01*
X-8680686Y-34179401D01*
X-8873599Y-34372314D01*
X-9025171Y-34599157D01*
X-9129575Y-34851211D01*
X-9182800Y-35118789D01*
X-17374000Y-35118789D01*
X-17374000Y-32359600D01*
X5168457Y-32359600D01*
X5196164Y-32640909D01*
X5278218Y-32911408D01*
X5411468Y-33160701D01*
X5590792Y-33379208D01*
X5809299Y-33558532D01*
X5942258Y-33629600D01*
X5809299Y-33700668D01*
X5590792Y-33879992D01*
X5411468Y-34098499D01*
X5278218Y-34347792D01*
X5196164Y-34618291D01*
X5168457Y-34899600D01*
X5196164Y-35180909D01*
X5278218Y-35451408D01*
X5411468Y-35700701D01*
X5590792Y-35919208D01*
X5809299Y-36098532D01*
X5942258Y-36169600D01*
X5809299Y-36240668D01*
X5590792Y-36419992D01*
X5411468Y-36638499D01*
X5278218Y-36887792D01*
X5196164Y-37158291D01*
X5168457Y-37439600D01*
X5196164Y-37720909D01*
X5278218Y-37991408D01*
X5411468Y-38240701D01*
X5590792Y-38459208D01*
X5809299Y-38638532D01*
X5942258Y-38709600D01*
X5809299Y-38780668D01*
X5590792Y-38959992D01*
X5411468Y-39178499D01*
X5278218Y-39427792D01*
X5196164Y-39698291D01*
X5168457Y-39979600D01*
X5196164Y-40260909D01*
X5278218Y-40531408D01*
X5411468Y-40780701D01*
X5590792Y-40999208D01*
X5809299Y-41178532D01*
X5942258Y-41249600D01*
X5809299Y-41320668D01*
X5590792Y-41499992D01*
X5411468Y-41718499D01*
X5278218Y-41967792D01*
X5196164Y-42238291D01*
X5168457Y-42519600D01*
X5196164Y-42800909D01*
X5278218Y-43071408D01*
X5411468Y-43320701D01*
X5590792Y-43539208D01*
X5809299Y-43718532D01*
X5942258Y-43789600D01*
X5809299Y-43860668D01*
X5590792Y-44039992D01*
X5411468Y-44258499D01*
X5278218Y-44507792D01*
X5196164Y-44778291D01*
X5168457Y-45059600D01*
X5196164Y-45340909D01*
X5278218Y-45611408D01*
X5411468Y-45860701D01*
X5590792Y-46079208D01*
X5809299Y-46258532D01*
X6058592Y-46391782D01*
X6329091Y-46473836D01*
X6539908Y-46494600D01*
X7480892Y-46494600D01*
X7691709Y-46473836D01*
X7962208Y-46391782D01*
X8211501Y-46258532D01*
X8430008Y-46079208D01*
X8609332Y-45860701D01*
X8742582Y-45611408D01*
X8824636Y-45340909D01*
X8852343Y-45059600D01*
X8824636Y-44778291D01*
X8742582Y-44507792D01*
X8609332Y-44258499D01*
X8430008Y-44039992D01*
X8211501Y-43860668D01*
X8078542Y-43789600D01*
X8211501Y-43718532D01*
X8430008Y-43539208D01*
X8609332Y-43320701D01*
X8742582Y-43071408D01*
X8824636Y-42800909D01*
X8852343Y-42519600D01*
X8824636Y-42238291D01*
X8742582Y-41967792D01*
X8609332Y-41718499D01*
X8430008Y-41499992D01*
X8211501Y-41320668D01*
X8078542Y-41249600D01*
X8211501Y-41178532D01*
X8430008Y-40999208D01*
X8609332Y-40780701D01*
X8742582Y-40531408D01*
X8824636Y-40260909D01*
X8852343Y-39979600D01*
X8824636Y-39698291D01*
X8742582Y-39427792D01*
X8609332Y-39178499D01*
X8430008Y-38959992D01*
X8211501Y-38780668D01*
X8078542Y-38709600D01*
X8211501Y-38638532D01*
X8430008Y-38459208D01*
X8609332Y-38240701D01*
X8742582Y-37991408D01*
X8824636Y-37720909D01*
X8852343Y-37439600D01*
X12788457Y-37439600D01*
X12816164Y-37720909D01*
X12898218Y-37991408D01*
X13031468Y-38240701D01*
X13210792Y-38459208D01*
X13429299Y-38638532D01*
X13562258Y-38709600D01*
X13429299Y-38780668D01*
X13210792Y-38959992D01*
X13031468Y-39178499D01*
X12898218Y-39427792D01*
X12816164Y-39698291D01*
X12788457Y-39979600D01*
X12816164Y-40260909D01*
X12898218Y-40531408D01*
X13031468Y-40780701D01*
X13210792Y-40999208D01*
X13429299Y-41178532D01*
X13562258Y-41249600D01*
X13429299Y-41320668D01*
X13210792Y-41499992D01*
X13031468Y-41718499D01*
X12898218Y-41967792D01*
X12816164Y-42238291D01*
X12788457Y-42519600D01*
X12816164Y-42800909D01*
X12898218Y-43071408D01*
X13031468Y-43320701D01*
X13210792Y-43539208D01*
X13429299Y-43718532D01*
X13562258Y-43789600D01*
X13429299Y-43860668D01*
X13210792Y-44039992D01*
X13031468Y-44258499D01*
X12898218Y-44507792D01*
X12816164Y-44778291D01*
X12788457Y-45059600D01*
X12816164Y-45340909D01*
X12898218Y-45611408D01*
X13031468Y-45860701D01*
X13210792Y-46079208D01*
X13429299Y-46258532D01*
X13678592Y-46391782D01*
X13949091Y-46473836D01*
X14159908Y-46494600D01*
X15100892Y-46494600D01*
X15311709Y-46473836D01*
X15582208Y-46391782D01*
X15831501Y-46258532D01*
X16019769Y-46104024D01*
X40435581Y-46104024D01*
X40567517Y-46399112D01*
X40908245Y-46569959D01*
X41275757Y-46671050D01*
X41655929Y-46698501D01*
X42034151Y-46651257D01*
X42395890Y-46531133D01*
X42642883Y-46399112D01*
X42774819Y-46104024D01*
X41605200Y-44934405D01*
X40435581Y-46104024D01*
X16019769Y-46104024D01*
X16050008Y-46079208D01*
X16229332Y-45860701D01*
X16362582Y-45611408D01*
X16444636Y-45340909D01*
X16472343Y-45059600D01*
X16447319Y-44805529D01*
X39661499Y-44805529D01*
X39708743Y-45183751D01*
X39828867Y-45545490D01*
X39960888Y-45792483D01*
X40255976Y-45924419D01*
X41425595Y-44754800D01*
X41784805Y-44754800D01*
X42954424Y-45924419D01*
X43249512Y-45792483D01*
X43420359Y-45451755D01*
X43521450Y-45084243D01*
X43548901Y-44704071D01*
X43501657Y-44325849D01*
X43381533Y-43964110D01*
X43249512Y-43717117D01*
X42954424Y-43585181D01*
X41784805Y-44754800D01*
X41425595Y-44754800D01*
X40255976Y-43585181D01*
X39960888Y-43717117D01*
X39790041Y-44057845D01*
X39688950Y-44425357D01*
X39661499Y-44805529D01*
X16447319Y-44805529D01*
X16444636Y-44778291D01*
X16362582Y-44507792D01*
X16229332Y-44258499D01*
X16050008Y-44039992D01*
X15831501Y-43860668D01*
X15698542Y-43789600D01*
X15831501Y-43718532D01*
X16050008Y-43539208D01*
X16159676Y-43405576D01*
X40435581Y-43405576D01*
X41605200Y-44575195D01*
X42774819Y-43405576D01*
X42642883Y-43110488D01*
X42302155Y-42939641D01*
X41934643Y-42838550D01*
X41554471Y-42811099D01*
X41176249Y-42858343D01*
X40814510Y-42978467D01*
X40567517Y-43110488D01*
X40435581Y-43405576D01*
X16159676Y-43405576D01*
X16229332Y-43320701D01*
X16362582Y-43071408D01*
X16444636Y-42800909D01*
X16472343Y-42519600D01*
X16444636Y-42238291D01*
X16362582Y-41967792D01*
X16229332Y-41718499D01*
X16050008Y-41499992D01*
X15831501Y-41320668D01*
X15698542Y-41249600D01*
X15831501Y-41178532D01*
X16050008Y-40999208D01*
X16229332Y-40780701D01*
X16362582Y-40531408D01*
X16444636Y-40260909D01*
X16472343Y-39979600D01*
X16444636Y-39698291D01*
X16362582Y-39427792D01*
X16229332Y-39178499D01*
X16050008Y-38959992D01*
X15831501Y-38780668D01*
X15698542Y-38709600D01*
X15831501Y-38638532D01*
X16050008Y-38459208D01*
X16229332Y-38240701D01*
X16362582Y-37991408D01*
X16444636Y-37720909D01*
X16472343Y-37439600D01*
X16444636Y-37158291D01*
X16362582Y-36887792D01*
X16229332Y-36638499D01*
X16050008Y-36419992D01*
X15831501Y-36240668D01*
X15703659Y-36172335D01*
X15933239Y-36022201D01*
X16134900Y-35824495D01*
X16294115Y-35591246D01*
X16404767Y-35331418D01*
X16422304Y-35248639D01*
X16300315Y-35026600D01*
X14757400Y-35026600D01*
X14757400Y-35046600D01*
X14503400Y-35046600D01*
X14503400Y-35026600D01*
X12960485Y-35026600D01*
X12838496Y-35248639D01*
X12856033Y-35331418D01*
X12966685Y-35591246D01*
X13125900Y-35824495D01*
X13327561Y-36022201D01*
X13557141Y-36172335D01*
X13429299Y-36240668D01*
X13210792Y-36419992D01*
X13031468Y-36638499D01*
X12898218Y-36887792D01*
X12816164Y-37158291D01*
X12788457Y-37439600D01*
X8852343Y-37439600D01*
X8824636Y-37158291D01*
X8742582Y-36887792D01*
X8609332Y-36638499D01*
X8430008Y-36419992D01*
X8211501Y-36240668D01*
X8078542Y-36169600D01*
X8211501Y-36098532D01*
X8430008Y-35919208D01*
X8609332Y-35700701D01*
X8742582Y-35451408D01*
X8824636Y-35180909D01*
X8852343Y-34899600D01*
X8824636Y-34618291D01*
X8742582Y-34347792D01*
X8609332Y-34098499D01*
X8430008Y-33879992D01*
X8211501Y-33700668D01*
X8078542Y-33629600D01*
X8211501Y-33558532D01*
X8430008Y-33379208D01*
X8609332Y-33160701D01*
X8742582Y-32911408D01*
X8824636Y-32640909D01*
X8852343Y-32359600D01*
X8824636Y-32078291D01*
X8742582Y-31807792D01*
X8609332Y-31558499D01*
X8430008Y-31339992D01*
X8211501Y-31160668D01*
X8083659Y-31092335D01*
X8313239Y-30942201D01*
X8514900Y-30744495D01*
X8674115Y-30511246D01*
X8784767Y-30251418D01*
X8802304Y-30168639D01*
X8680315Y-29946600D01*
X7137400Y-29946600D01*
X7137400Y-29966600D01*
X6883400Y-29966600D01*
X6883400Y-29946600D01*
X5340485Y-29946600D01*
X5218496Y-30168639D01*
X5236033Y-30251418D01*
X5346685Y-30511246D01*
X5505900Y-30744495D01*
X5707561Y-30942201D01*
X5937141Y-31092335D01*
X5809299Y-31160668D01*
X5590792Y-31339992D01*
X5411468Y-31558499D01*
X5278218Y-31807792D01*
X5196164Y-32078291D01*
X5168457Y-32359600D01*
X-17374000Y-32359600D01*
X-17374000Y-30238789D01*
X-9182800Y-30238789D01*
X-9182800Y-30511611D01*
X-9129575Y-30779189D01*
X-9025171Y-31031243D01*
X-8873599Y-31258086D01*
X-8680686Y-31450999D01*
X-8453843Y-31602571D01*
X-8201789Y-31706975D01*
X-7934211Y-31760200D01*
X-7661389Y-31760200D01*
X-7393811Y-31706975D01*
X-7141757Y-31602571D01*
X-6914914Y-31450999D01*
X-6722001Y-31258086D01*
X-6570429Y-31031243D01*
X-6466025Y-30779189D01*
X-6412800Y-30511611D01*
X-6412800Y-30238789D01*
X-6466025Y-29971211D01*
X-6570429Y-29719157D01*
X-6722001Y-29492314D01*
X-6914914Y-29299401D01*
X-7141757Y-29147829D01*
X-7393811Y-29043425D01*
X-7661389Y-28990200D01*
X-7934211Y-28990200D01*
X-8201789Y-29043425D01*
X-8453843Y-29147829D01*
X-8680686Y-29299401D01*
X-8873599Y-29492314D01*
X-9025171Y-29719157D01*
X-9129575Y-29971211D01*
X-9182800Y-30238789D01*
X-17374000Y-30238789D01*
X-17374000Y-14941340D01*
X-8952600Y-14941340D01*
X-8952600Y-15233860D01*
X-8895532Y-15520758D01*
X-8783590Y-15791011D01*
X-8621075Y-16034232D01*
X-8414232Y-16241075D01*
X-8239840Y-16357600D01*
X-8414232Y-16474125D01*
X-8621075Y-16680968D01*
X-8783590Y-16924189D01*
X-8895532Y-17194442D01*
X-8952600Y-17481340D01*
X-8952600Y-17773860D01*
X-8895532Y-18060758D01*
X-8783590Y-18331011D01*
X-8621075Y-18574232D01*
X-8414232Y-18781075D01*
X-8171011Y-18943590D01*
X-7900758Y-19055532D01*
X-7613860Y-19112600D01*
X-7321340Y-19112600D01*
X-7034442Y-19055532D01*
X-6764189Y-18943590D01*
X-6520968Y-18781075D01*
X-6314125Y-18574232D01*
X-6151610Y-18331011D01*
X-6039668Y-18060758D01*
X-5982600Y-17773860D01*
X-5982600Y-17481340D01*
X-6039668Y-17194442D01*
X-6151610Y-16924189D01*
X-6314125Y-16680968D01*
X-6520968Y-16474125D01*
X-6695360Y-16357600D01*
X-6520968Y-16241075D01*
X-6314125Y-16034232D01*
X-6151610Y-15791011D01*
X-6039668Y-15520758D01*
X-5982600Y-15233860D01*
X-5982600Y-14941340D01*
X-6039668Y-14654442D01*
X-6070668Y-14579600D01*
X5168457Y-14579600D01*
X5196164Y-14860909D01*
X5278218Y-15131408D01*
X5411468Y-15380701D01*
X5590792Y-15599208D01*
X5809299Y-15778532D01*
X5942258Y-15849600D01*
X5809299Y-15920668D01*
X5590792Y-16099992D01*
X5411468Y-16318499D01*
X5278218Y-16567792D01*
X5196164Y-16838291D01*
X5168457Y-17119600D01*
X5196164Y-17400909D01*
X5278218Y-17671408D01*
X5411468Y-17920701D01*
X5590792Y-18139208D01*
X5809299Y-18318532D01*
X5942258Y-18389600D01*
X5809299Y-18460668D01*
X5590792Y-18639992D01*
X5411468Y-18858499D01*
X5278218Y-19107792D01*
X5196164Y-19378291D01*
X5168457Y-19659600D01*
X5196164Y-19940909D01*
X5278218Y-20211408D01*
X5411468Y-20460701D01*
X5590792Y-20679208D01*
X5809299Y-20858532D01*
X5942258Y-20929600D01*
X5809299Y-21000668D01*
X5590792Y-21179992D01*
X5411468Y-21398499D01*
X5278218Y-21647792D01*
X5196164Y-21918291D01*
X5168457Y-22199600D01*
X5196164Y-22480909D01*
X5278218Y-22751408D01*
X5411468Y-23000701D01*
X5590792Y-23219208D01*
X5809299Y-23398532D01*
X5942258Y-23469600D01*
X5809299Y-23540668D01*
X5590792Y-23719992D01*
X5411468Y-23938499D01*
X5278218Y-24187792D01*
X5196164Y-24458291D01*
X5168457Y-24739600D01*
X5196164Y-25020909D01*
X5278218Y-25291408D01*
X5411468Y-25540701D01*
X5590792Y-25759208D01*
X5809299Y-25938532D01*
X5942258Y-26009600D01*
X5809299Y-26080668D01*
X5590792Y-26259992D01*
X5411468Y-26478499D01*
X5278218Y-26727792D01*
X5196164Y-26998291D01*
X5168457Y-27279600D01*
X5196164Y-27560909D01*
X5278218Y-27831408D01*
X5411468Y-28080701D01*
X5590792Y-28299208D01*
X5809299Y-28478532D01*
X5937141Y-28546865D01*
X5707561Y-28696999D01*
X5505900Y-28894705D01*
X5346685Y-29127954D01*
X5236033Y-29387782D01*
X5218496Y-29470561D01*
X5340485Y-29692600D01*
X6883400Y-29692600D01*
X6883400Y-29672600D01*
X7137400Y-29672600D01*
X7137400Y-29692600D01*
X8680315Y-29692600D01*
X8802304Y-29470561D01*
X8784767Y-29387782D01*
X8674115Y-29127954D01*
X8514900Y-28894705D01*
X8313239Y-28696999D01*
X8083659Y-28546865D01*
X8211501Y-28478532D01*
X8430008Y-28299208D01*
X8609332Y-28080701D01*
X8742582Y-27831408D01*
X8824636Y-27560909D01*
X8852343Y-27279600D01*
X8824636Y-26998291D01*
X8742582Y-26727792D01*
X8609332Y-26478499D01*
X8430008Y-26259992D01*
X8211501Y-26080668D01*
X8078542Y-26009600D01*
X8211501Y-25938532D01*
X8430008Y-25759208D01*
X8609332Y-25540701D01*
X8742582Y-25291408D01*
X8824636Y-25020909D01*
X8852343Y-24739600D01*
X8824636Y-24458291D01*
X8742582Y-24187792D01*
X8609332Y-23938499D01*
X8430008Y-23719992D01*
X8211501Y-23540668D01*
X8078542Y-23469600D01*
X8211501Y-23398532D01*
X8430008Y-23219208D01*
X8609332Y-23000701D01*
X8742582Y-22751408D01*
X8824636Y-22480909D01*
X8852343Y-22199600D01*
X8824636Y-21918291D01*
X8742582Y-21647792D01*
X8609332Y-21398499D01*
X8430008Y-21179992D01*
X8211501Y-21000668D01*
X8078542Y-20929600D01*
X8211501Y-20858532D01*
X8430008Y-20679208D01*
X8609332Y-20460701D01*
X8742582Y-20211408D01*
X8824636Y-19940909D01*
X8852343Y-19659600D01*
X8824636Y-19378291D01*
X8742582Y-19107792D01*
X8609332Y-18858499D01*
X8430008Y-18639992D01*
X8211501Y-18460668D01*
X8078542Y-18389600D01*
X8211501Y-18318532D01*
X8430008Y-18139208D01*
X8609332Y-17920701D01*
X8742582Y-17671408D01*
X8824636Y-17400909D01*
X8852343Y-17119600D01*
X12788457Y-17119600D01*
X12816164Y-17400909D01*
X12898218Y-17671408D01*
X13031468Y-17920701D01*
X13210792Y-18139208D01*
X13429299Y-18318532D01*
X13562258Y-18389600D01*
X13429299Y-18460668D01*
X13210792Y-18639992D01*
X13031468Y-18858499D01*
X12898218Y-19107792D01*
X12816164Y-19378291D01*
X12788457Y-19659600D01*
X12816164Y-19940909D01*
X12898218Y-20211408D01*
X13031468Y-20460701D01*
X13210792Y-20679208D01*
X13429299Y-20858532D01*
X13562258Y-20929600D01*
X13429299Y-21000668D01*
X13210792Y-21179992D01*
X13031468Y-21398499D01*
X12898218Y-21647792D01*
X12816164Y-21918291D01*
X12788457Y-22199600D01*
X12816164Y-22480909D01*
X12898218Y-22751408D01*
X13031468Y-23000701D01*
X13210792Y-23219208D01*
X13429299Y-23398532D01*
X13562258Y-23469600D01*
X13429299Y-23540668D01*
X13210792Y-23719992D01*
X13031468Y-23938499D01*
X12898218Y-24187792D01*
X12816164Y-24458291D01*
X12788457Y-24739600D01*
X12816164Y-25020909D01*
X12898218Y-25291408D01*
X13031468Y-25540701D01*
X13210792Y-25759208D01*
X13429299Y-25938532D01*
X13562258Y-26009600D01*
X13429299Y-26080668D01*
X13210792Y-26259992D01*
X13031468Y-26478499D01*
X12898218Y-26727792D01*
X12816164Y-26998291D01*
X12788457Y-27279600D01*
X12816164Y-27560909D01*
X12898218Y-27831408D01*
X13031468Y-28080701D01*
X13210792Y-28299208D01*
X13429299Y-28478532D01*
X13562258Y-28549600D01*
X13429299Y-28620668D01*
X13210792Y-28799992D01*
X13031468Y-29018499D01*
X12898218Y-29267792D01*
X12816164Y-29538291D01*
X12788457Y-29819600D01*
X12816164Y-30100909D01*
X12898218Y-30371408D01*
X13031468Y-30620701D01*
X13210792Y-30839208D01*
X13429299Y-31018532D01*
X13562258Y-31089600D01*
X13429299Y-31160668D01*
X13210792Y-31339992D01*
X13031468Y-31558499D01*
X12898218Y-31807792D01*
X12816164Y-32078291D01*
X12788457Y-32359600D01*
X12816164Y-32640909D01*
X12898218Y-32911408D01*
X13031468Y-33160701D01*
X13210792Y-33379208D01*
X13429299Y-33558532D01*
X13557141Y-33626865D01*
X13327561Y-33776999D01*
X13125900Y-33974705D01*
X12966685Y-34207954D01*
X12856033Y-34467782D01*
X12838496Y-34550561D01*
X12960485Y-34772600D01*
X14503400Y-34772600D01*
X14503400Y-34752600D01*
X14757400Y-34752600D01*
X14757400Y-34772600D01*
X16300315Y-34772600D01*
X16422304Y-34550561D01*
X16404767Y-34467782D01*
X16294115Y-34207954D01*
X16134900Y-33974705D01*
X16115005Y-33955200D01*
X39717928Y-33955200D01*
X39717928Y-36555200D01*
X39730188Y-36679682D01*
X39766498Y-36799380D01*
X39825463Y-36909694D01*
X39904815Y-37006385D01*
X40001506Y-37085737D01*
X40111820Y-37144702D01*
X40231518Y-37181012D01*
X40356000Y-37193272D01*
X42956000Y-37193272D01*
X43080482Y-37181012D01*
X43200180Y-37144702D01*
X43310494Y-37085737D01*
X43407185Y-37006385D01*
X43486537Y-36909694D01*
X43545502Y-36799380D01*
X43581812Y-36679682D01*
X43594072Y-36555200D01*
X43594072Y-33955200D01*
X43581812Y-33830718D01*
X43545502Y-33711020D01*
X43486537Y-33600706D01*
X43407185Y-33504015D01*
X43310494Y-33424663D01*
X43200180Y-33365698D01*
X43080482Y-33329388D01*
X42956000Y-33317128D01*
X40356000Y-33317128D01*
X40231518Y-33329388D01*
X40111820Y-33365698D01*
X40001506Y-33424663D01*
X39904815Y-33504015D01*
X39825463Y-33600706D01*
X39766498Y-33711020D01*
X39730188Y-33830718D01*
X39717928Y-33955200D01*
X16115005Y-33955200D01*
X15933239Y-33776999D01*
X15703659Y-33626865D01*
X15831501Y-33558532D01*
X16050008Y-33379208D01*
X16229332Y-33160701D01*
X16362582Y-32911408D01*
X16444636Y-32640909D01*
X16472343Y-32359600D01*
X16444636Y-32078291D01*
X16362582Y-31807792D01*
X16229332Y-31558499D01*
X16201368Y-31524424D01*
X40486381Y-31524424D01*
X40618317Y-31819512D01*
X40959045Y-31990359D01*
X41326557Y-32091450D01*
X41706729Y-32118901D01*
X42084951Y-32071657D01*
X42446690Y-31951533D01*
X42693683Y-31819512D01*
X42825619Y-31524424D01*
X41656000Y-30354805D01*
X40486381Y-31524424D01*
X16201368Y-31524424D01*
X16050008Y-31339992D01*
X15831501Y-31160668D01*
X15698542Y-31089600D01*
X15831501Y-31018532D01*
X16050008Y-30839208D01*
X16229332Y-30620701D01*
X16362582Y-30371408D01*
X16406712Y-30225929D01*
X39712299Y-30225929D01*
X39759543Y-30604151D01*
X39879667Y-30965890D01*
X40011688Y-31212883D01*
X40306776Y-31344819D01*
X41476395Y-30175200D01*
X41835605Y-30175200D01*
X43005224Y-31344819D01*
X43300312Y-31212883D01*
X43471159Y-30872155D01*
X43572250Y-30504643D01*
X43599701Y-30124471D01*
X43552457Y-29746249D01*
X43432333Y-29384510D01*
X43300312Y-29137517D01*
X43005224Y-29005581D01*
X41835605Y-30175200D01*
X41476395Y-30175200D01*
X40306776Y-29005581D01*
X40011688Y-29137517D01*
X39840841Y-29478245D01*
X39739750Y-29845757D01*
X39712299Y-30225929D01*
X16406712Y-30225929D01*
X16444636Y-30100909D01*
X16472343Y-29819600D01*
X16444636Y-29538291D01*
X16362582Y-29267792D01*
X16229332Y-29018499D01*
X16071333Y-28825976D01*
X40486381Y-28825976D01*
X41656000Y-29995595D01*
X42825619Y-28825976D01*
X42693683Y-28530888D01*
X42352955Y-28360041D01*
X41985443Y-28258950D01*
X41605271Y-28231499D01*
X41227049Y-28278743D01*
X40865310Y-28398867D01*
X40618317Y-28530888D01*
X40486381Y-28825976D01*
X16071333Y-28825976D01*
X16050008Y-28799992D01*
X15831501Y-28620668D01*
X15698542Y-28549600D01*
X15831501Y-28478532D01*
X16050008Y-28299208D01*
X16229332Y-28080701D01*
X16362582Y-27831408D01*
X16444636Y-27560909D01*
X16472343Y-27279600D01*
X16444636Y-26998291D01*
X16362582Y-26727792D01*
X16229332Y-26478499D01*
X16050008Y-26259992D01*
X15831501Y-26080668D01*
X15698542Y-26009600D01*
X15831501Y-25938532D01*
X16050008Y-25759208D01*
X16229332Y-25540701D01*
X16362582Y-25291408D01*
X16444636Y-25020909D01*
X16472343Y-24739600D01*
X16444636Y-24458291D01*
X16362582Y-24187792D01*
X16229332Y-23938499D01*
X16050008Y-23719992D01*
X15831501Y-23540668D01*
X15698542Y-23469600D01*
X15831501Y-23398532D01*
X16050008Y-23219208D01*
X16229332Y-23000701D01*
X16362582Y-22751408D01*
X16444636Y-22480909D01*
X16472343Y-22199600D01*
X16444636Y-21918291D01*
X16362582Y-21647792D01*
X16229332Y-21398499D01*
X16050008Y-21179992D01*
X15831501Y-21000668D01*
X15698542Y-20929600D01*
X15831501Y-20858532D01*
X16050008Y-20679208D01*
X16229332Y-20460701D01*
X16362582Y-20211408D01*
X16444636Y-19940909D01*
X16472343Y-19659600D01*
X16444636Y-19378291D01*
X16374476Y-19147000D01*
X39921128Y-19147000D01*
X39921128Y-21747000D01*
X39933388Y-21871482D01*
X39969698Y-21991180D01*
X40028663Y-22101494D01*
X40108015Y-22198185D01*
X40204706Y-22277537D01*
X40315020Y-22336502D01*
X40434718Y-22372812D01*
X40559200Y-22385072D01*
X43159200Y-22385072D01*
X43283682Y-22372812D01*
X43403380Y-22336502D01*
X43513694Y-22277537D01*
X43610385Y-22198185D01*
X43689737Y-22101494D01*
X43748702Y-21991180D01*
X43785012Y-21871482D01*
X43797272Y-21747000D01*
X43797272Y-19147000D01*
X43785012Y-19022518D01*
X43748702Y-18902820D01*
X43689737Y-18792506D01*
X43610385Y-18695815D01*
X43513694Y-18616463D01*
X43403380Y-18557498D01*
X43283682Y-18521188D01*
X43159200Y-18508928D01*
X40559200Y-18508928D01*
X40434718Y-18521188D01*
X40315020Y-18557498D01*
X40204706Y-18616463D01*
X40108015Y-18695815D01*
X40028663Y-18792506D01*
X39969698Y-18902820D01*
X39933388Y-19022518D01*
X39921128Y-19147000D01*
X16374476Y-19147000D01*
X16362582Y-19107792D01*
X16229332Y-18858499D01*
X16050008Y-18639992D01*
X15831501Y-18460668D01*
X15698542Y-18389600D01*
X15831501Y-18318532D01*
X16050008Y-18139208D01*
X16229332Y-17920701D01*
X16362582Y-17671408D01*
X16444636Y-17400909D01*
X16472343Y-17119600D01*
X16444636Y-16838291D01*
X16407608Y-16716224D01*
X40689581Y-16716224D01*
X40821517Y-17011312D01*
X41162245Y-17182159D01*
X41529757Y-17283250D01*
X41909929Y-17310701D01*
X42288151Y-17263457D01*
X42649890Y-17143333D01*
X42896883Y-17011312D01*
X43028819Y-16716224D01*
X41859200Y-15546605D01*
X40689581Y-16716224D01*
X16407608Y-16716224D01*
X16362582Y-16567792D01*
X16229332Y-16318499D01*
X16050008Y-16099992D01*
X15831501Y-15920668D01*
X15703659Y-15852335D01*
X15933239Y-15702201D01*
X16134900Y-15504495D01*
X16194126Y-15417729D01*
X39915499Y-15417729D01*
X39962743Y-15795951D01*
X40082867Y-16157690D01*
X40214888Y-16404683D01*
X40509976Y-16536619D01*
X41679595Y-15367000D01*
X42038805Y-15367000D01*
X43208424Y-16536619D01*
X43503512Y-16404683D01*
X43674359Y-16063955D01*
X43775450Y-15696443D01*
X43802901Y-15316271D01*
X43755657Y-14938049D01*
X43635533Y-14576310D01*
X43503512Y-14329317D01*
X43208424Y-14197381D01*
X42038805Y-15367000D01*
X41679595Y-15367000D01*
X40509976Y-14197381D01*
X40214888Y-14329317D01*
X40044041Y-14670045D01*
X39942950Y-15037557D01*
X39915499Y-15417729D01*
X16194126Y-15417729D01*
X16294115Y-15271246D01*
X16404767Y-15011418D01*
X16422304Y-14928639D01*
X16300315Y-14706600D01*
X14757400Y-14706600D01*
X14757400Y-14726600D01*
X14503400Y-14726600D01*
X14503400Y-14706600D01*
X12960485Y-14706600D01*
X12838496Y-14928639D01*
X12856033Y-15011418D01*
X12966685Y-15271246D01*
X13125900Y-15504495D01*
X13327561Y-15702201D01*
X13557141Y-15852335D01*
X13429299Y-15920668D01*
X13210792Y-16099992D01*
X13031468Y-16318499D01*
X12898218Y-16567792D01*
X12816164Y-16838291D01*
X12788457Y-17119600D01*
X8852343Y-17119600D01*
X8824636Y-16838291D01*
X8742582Y-16567792D01*
X8609332Y-16318499D01*
X8430008Y-16099992D01*
X8211501Y-15920668D01*
X8078542Y-15849600D01*
X8211501Y-15778532D01*
X8430008Y-15599208D01*
X8609332Y-15380701D01*
X8742582Y-15131408D01*
X8824636Y-14860909D01*
X8852343Y-14579600D01*
X8824636Y-14298291D01*
X8742582Y-14027792D01*
X8609332Y-13778499D01*
X8430008Y-13559992D01*
X8316918Y-13467181D01*
X8334882Y-13465412D01*
X8454580Y-13429102D01*
X8564894Y-13370137D01*
X8661585Y-13290785D01*
X8740937Y-13194094D01*
X8799902Y-13083780D01*
X8836212Y-12964082D01*
X8848472Y-12839600D01*
X8848472Y-12039600D01*
X12788457Y-12039600D01*
X12816164Y-12320909D01*
X12898218Y-12591408D01*
X13031468Y-12840701D01*
X13210792Y-13059208D01*
X13429299Y-13238532D01*
X13557141Y-13306865D01*
X13327561Y-13456999D01*
X13125900Y-13654705D01*
X12966685Y-13887954D01*
X12856033Y-14147782D01*
X12838496Y-14230561D01*
X12960485Y-14452600D01*
X14503400Y-14452600D01*
X14503400Y-14432600D01*
X14757400Y-14432600D01*
X14757400Y-14452600D01*
X16300315Y-14452600D01*
X16422304Y-14230561D01*
X16404767Y-14147782D01*
X16349402Y-14017776D01*
X40689581Y-14017776D01*
X41859200Y-15187395D01*
X43028819Y-14017776D01*
X42896883Y-13722688D01*
X42556155Y-13551841D01*
X42188643Y-13450750D01*
X41808471Y-13423299D01*
X41430249Y-13470543D01*
X41068510Y-13590667D01*
X40821517Y-13722688D01*
X40689581Y-14017776D01*
X16349402Y-14017776D01*
X16294115Y-13887954D01*
X16134900Y-13654705D01*
X15933239Y-13456999D01*
X15703659Y-13306865D01*
X15831501Y-13238532D01*
X16050008Y-13059208D01*
X16229332Y-12840701D01*
X16362582Y-12591408D01*
X16444636Y-12320909D01*
X16472343Y-12039600D01*
X16444636Y-11758291D01*
X16362582Y-11487792D01*
X16229332Y-11238499D01*
X16050008Y-11019992D01*
X15831501Y-10840668D01*
X15582208Y-10707418D01*
X15311709Y-10625364D01*
X15100892Y-10604600D01*
X14159908Y-10604600D01*
X13949091Y-10625364D01*
X13678592Y-10707418D01*
X13429299Y-10840668D01*
X13210792Y-11019992D01*
X13031468Y-11238499D01*
X12898218Y-11487792D01*
X12816164Y-11758291D01*
X12788457Y-12039600D01*
X8848472Y-12039600D01*
X8848472Y-11239600D01*
X8836212Y-11115118D01*
X8799902Y-10995420D01*
X8740937Y-10885106D01*
X8661585Y-10788415D01*
X8564894Y-10709063D01*
X8454580Y-10650098D01*
X8334882Y-10613788D01*
X8210400Y-10601528D01*
X5810400Y-10601528D01*
X5685918Y-10613788D01*
X5566220Y-10650098D01*
X5455906Y-10709063D01*
X5359215Y-10788415D01*
X5279863Y-10885106D01*
X5220898Y-10995420D01*
X5184588Y-11115118D01*
X5172328Y-11239600D01*
X5172328Y-12839600D01*
X5184588Y-12964082D01*
X5220898Y-13083780D01*
X5279863Y-13194094D01*
X5359215Y-13290785D01*
X5455906Y-13370137D01*
X5566220Y-13429102D01*
X5685918Y-13465412D01*
X5703882Y-13467181D01*
X5590792Y-13559992D01*
X5411468Y-13778499D01*
X5278218Y-14027792D01*
X5196164Y-14298291D01*
X5168457Y-14579600D01*
X-6070668Y-14579600D01*
X-6151610Y-14384189D01*
X-6314125Y-14140968D01*
X-6520968Y-13934125D01*
X-6703134Y-13812405D01*
X-6586245Y-13742778D01*
X-6370012Y-13547869D01*
X-6195959Y-13314520D01*
X-6070775Y-13051699D01*
X-6026124Y-12904490D01*
X-6147445Y-12674600D01*
X-7340600Y-12674600D01*
X-7340600Y-12694600D01*
X-7594600Y-12694600D01*
X-7594600Y-12674600D01*
X-8787755Y-12674600D01*
X-8909076Y-12904490D01*
X-8864425Y-13051699D01*
X-8739241Y-13314520D01*
X-8565188Y-13547869D01*
X-8348955Y-13742778D01*
X-8232066Y-13812405D01*
X-8414232Y-13934125D01*
X-8621075Y-14140968D01*
X-8783590Y-14384189D01*
X-8895532Y-14654442D01*
X-8952600Y-14941340D01*
X-17374000Y-14941340D01*
X-17374000Y-6617600D01*
X-8955672Y-6617600D01*
X-8955672Y-8317600D01*
X-8943412Y-8442082D01*
X-8907102Y-8561780D01*
X-8848137Y-8672094D01*
X-8768785Y-8768785D01*
X-8672094Y-8848137D01*
X-8561780Y-8907102D01*
X-8489220Y-8929113D01*
X-8621075Y-9060968D01*
X-8783590Y-9304189D01*
X-8895532Y-9574442D01*
X-8952600Y-9861340D01*
X-8952600Y-10153860D01*
X-8895532Y-10440758D01*
X-8783590Y-10711011D01*
X-8621075Y-10954232D01*
X-8414232Y-11161075D01*
X-8232066Y-11282795D01*
X-8348955Y-11352422D01*
X-8565188Y-11547331D01*
X-8739241Y-11780680D01*
X-8864425Y-12043501D01*
X-8909076Y-12190710D01*
X-8787755Y-12420600D01*
X-7594600Y-12420600D01*
X-7594600Y-12400600D01*
X-7340600Y-12400600D01*
X-7340600Y-12420600D01*
X-6147445Y-12420600D01*
X-6026124Y-12190710D01*
X-6070775Y-12043501D01*
X-6195959Y-11780680D01*
X-6370012Y-11547331D01*
X-6586245Y-11352422D01*
X-6703134Y-11282795D01*
X-6520968Y-11161075D01*
X-6314125Y-10954232D01*
X-6151610Y-10711011D01*
X-6039668Y-10440758D01*
X-5982600Y-10153860D01*
X-5982600Y-9861340D01*
X-6039668Y-9574442D01*
X-6151610Y-9304189D01*
X-6314125Y-9060968D01*
X-6445980Y-8929113D01*
X-6373420Y-8907102D01*
X-6263106Y-8848137D01*
X-6166415Y-8768785D01*
X-6087063Y-8672094D01*
X-6028098Y-8561780D01*
X-5991788Y-8442082D01*
X-5979528Y-8317600D01*
X-5979528Y-6617600D01*
X-5991788Y-6493118D01*
X-6028098Y-6373420D01*
X-6087063Y-6263106D01*
X-6166415Y-6166415D01*
X-6263106Y-6087063D01*
X-6373420Y-6028098D01*
X-6493118Y-5991788D01*
X-6617600Y-5979528D01*
X-8317600Y-5979528D01*
X-8442082Y-5991788D01*
X-8561780Y-6028098D01*
X-8672094Y-6087063D01*
X-8768785Y-6166415D01*
X-8848137Y-6263106D01*
X-8907102Y-6373420D01*
X-8943412Y-6493118D01*
X-8955672Y-6617600D01*
X-17374000Y-6617600D01*
X-17374000Y-5278600D01*
X40073528Y-5278600D01*
X40073528Y-7878600D01*
X40085788Y-8003082D01*
X40122098Y-8122780D01*
X40181063Y-8233094D01*
X40260415Y-8329785D01*
X40357106Y-8409137D01*
X40467420Y-8468102D01*
X40587118Y-8504412D01*
X40711600Y-8516672D01*
X43311600Y-8516672D01*
X43436082Y-8504412D01*
X43555780Y-8468102D01*
X43666094Y-8409137D01*
X43762785Y-8329785D01*
X43842137Y-8233094D01*
X43901102Y-8122780D01*
X43937412Y-8003082D01*
X43949672Y-7878600D01*
X43949672Y-5278600D01*
X43937412Y-5154118D01*
X43901102Y-5034420D01*
X43842137Y-4924106D01*
X43762785Y-4827415D01*
X43666094Y-4748063D01*
X43555780Y-4689098D01*
X43436082Y-4652788D01*
X43311600Y-4640528D01*
X40711600Y-4640528D01*
X40587118Y-4652788D01*
X40467420Y-4689098D01*
X40357106Y-4748063D01*
X40260415Y-4827415D01*
X40181063Y-4924106D01*
X40122098Y-5034420D01*
X40085788Y-5154118D01*
X40073528Y-5278600D01*
X-17374000Y-5278600D01*
X-17374000Y-2847824D01*
X40841981Y-2847824D01*
X40973917Y-3142912D01*
X41314645Y-3313759D01*
X41682157Y-3414850D01*
X42062329Y-3442301D01*
X42440551Y-3395057D01*
X42802290Y-3274933D01*
X43049283Y-3142912D01*
X43181219Y-2847824D01*
X42011600Y-1678205D01*
X40841981Y-2847824D01*
X-17374000Y-2847824D01*
X-17374000Y-818940D01*
X-16623400Y-818940D01*
X-16623400Y-1111460D01*
X-16566332Y-1398358D01*
X-16454390Y-1668611D01*
X-16291875Y-1911832D01*
X-16085032Y-2118675D01*
X-15841811Y-2281190D01*
X-15571558Y-2393132D01*
X-15284660Y-2450200D01*
X-14992140Y-2450200D01*
X-14705242Y-2393132D01*
X-14434989Y-2281190D01*
X-14191768Y-2118675D01*
X-13984925Y-1911832D01*
X-13868400Y-1737440D01*
X-13751875Y-1911832D01*
X-13545032Y-2118675D01*
X-13301811Y-2281190D01*
X-13031558Y-2393132D01*
X-12744660Y-2450200D01*
X-12452140Y-2450200D01*
X-12165242Y-2393132D01*
X-11894989Y-2281190D01*
X-11651768Y-2118675D01*
X-11444925Y-1911832D01*
X-11328400Y-1737440D01*
X-11211875Y-1911832D01*
X-11005032Y-2118675D01*
X-10761811Y-2281190D01*
X-10491558Y-2393132D01*
X-10204660Y-2450200D01*
X-9912140Y-2450200D01*
X-9625242Y-2393132D01*
X-9354989Y-2281190D01*
X-9111768Y-2118675D01*
X-8904925Y-1911832D01*
X-8783205Y-1729666D01*
X-8713578Y-1846555D01*
X-8518669Y-2062788D01*
X-8285320Y-2236841D01*
X-8022499Y-2362025D01*
X-7875290Y-2406676D01*
X-7645400Y-2285355D01*
X-7645400Y-1092200D01*
X-7665400Y-1092200D01*
X-7665400Y-838200D01*
X-7645400Y-838200D01*
X-7645400Y-818200D01*
X-7391400Y-818200D01*
X-7391400Y-838200D01*
X-7371400Y-838200D01*
X-7371400Y-1092200D01*
X-7391400Y-1092200D01*
X-7391400Y-2285355D01*
X-7161510Y-2406676D01*
X-7014301Y-2362025D01*
X-6751480Y-2236841D01*
X-6518131Y-2062788D01*
X-6323222Y-1846555D01*
X-6253595Y-1729666D01*
X-6131875Y-1911832D01*
X-5925032Y-2118675D01*
X-5681811Y-2281190D01*
X-5411558Y-2393132D01*
X-5124660Y-2450200D01*
X-4832140Y-2450200D01*
X-4545242Y-2393132D01*
X-4274989Y-2281190D01*
X-4031768Y-2118675D01*
X-3824925Y-1911832D01*
X-3703205Y-1729666D01*
X-3633578Y-1846555D01*
X-3438669Y-2062788D01*
X-3205320Y-2236841D01*
X-2942499Y-2362025D01*
X-2795290Y-2406676D01*
X-2565400Y-2285355D01*
X-2565400Y-1092200D01*
X-2585400Y-1092200D01*
X-2585400Y-838200D01*
X-2565400Y-838200D01*
X-2565400Y-818200D01*
X-2311400Y-818200D01*
X-2311400Y-838200D01*
X-2291400Y-838200D01*
X-2291400Y-1092200D01*
X-2311400Y-1092200D01*
X-2311400Y-2285355D01*
X-2081510Y-2406676D01*
X-1934301Y-2362025D01*
X-1671480Y-2236841D01*
X-1438131Y-2062788D01*
X-1243222Y-1846555D01*
X-1173595Y-1729666D01*
X-1051875Y-1911832D01*
X-845032Y-2118675D01*
X-601811Y-2281190D01*
X-331558Y-2393132D01*
X-44660Y-2450200D01*
X247860Y-2450200D01*
X534758Y-2393132D01*
X805011Y-2281190D01*
X1048232Y-2118675D01*
X1255075Y-1911832D01*
X1371600Y-1737440D01*
X1488125Y-1911832D01*
X1694968Y-2118675D01*
X1938189Y-2281190D01*
X2208442Y-2393132D01*
X2495340Y-2450200D01*
X2787860Y-2450200D01*
X3074758Y-2393132D01*
X3345011Y-2281190D01*
X3588232Y-2118675D01*
X3795075Y-1911832D01*
X3911600Y-1737440D01*
X4028125Y-1911832D01*
X4234968Y-2118675D01*
X4478189Y-2281190D01*
X4748442Y-2393132D01*
X5035340Y-2450200D01*
X5327860Y-2450200D01*
X5614758Y-2393132D01*
X5885011Y-2281190D01*
X6128232Y-2118675D01*
X6335075Y-1911832D01*
X6451600Y-1737440D01*
X6568125Y-1911832D01*
X6774968Y-2118675D01*
X7018189Y-2281190D01*
X7288442Y-2393132D01*
X7575340Y-2450200D01*
X7867860Y-2450200D01*
X8154758Y-2393132D01*
X8425011Y-2281190D01*
X8668232Y-2118675D01*
X8875075Y-1911832D01*
X8996795Y-1729666D01*
X9066422Y-1846555D01*
X9261331Y-2062788D01*
X9494680Y-2236841D01*
X9757501Y-2362025D01*
X9904710Y-2406676D01*
X10134600Y-2285355D01*
X10134600Y-1092200D01*
X10114600Y-1092200D01*
X10114600Y-838200D01*
X10134600Y-838200D01*
X10134600Y-818200D01*
X10388600Y-818200D01*
X10388600Y-838200D01*
X10408600Y-838200D01*
X10408600Y-1092200D01*
X10388600Y-1092200D01*
X10388600Y-2285355D01*
X10618490Y-2406676D01*
X10765699Y-2362025D01*
X11028520Y-2236841D01*
X11261869Y-2062788D01*
X11456778Y-1846555D01*
X11526405Y-1729666D01*
X11648125Y-1911832D01*
X11854968Y-2118675D01*
X12098189Y-2281190D01*
X12368442Y-2393132D01*
X12655340Y-2450200D01*
X12947860Y-2450200D01*
X13234758Y-2393132D01*
X13505011Y-2281190D01*
X13748232Y-2118675D01*
X13955075Y-1911832D01*
X14071600Y-1737440D01*
X14188125Y-1911832D01*
X14394968Y-2118675D01*
X14638189Y-2281190D01*
X14908442Y-2393132D01*
X15195340Y-2450200D01*
X15487860Y-2450200D01*
X15774758Y-2393132D01*
X16045011Y-2281190D01*
X16288232Y-2118675D01*
X16495075Y-1911832D01*
X16616795Y-1729666D01*
X16686422Y-1846555D01*
X16881331Y-2062788D01*
X17114680Y-2236841D01*
X17377501Y-2362025D01*
X17524710Y-2406676D01*
X17754600Y-2285355D01*
X17754600Y-1092200D01*
X17734600Y-1092200D01*
X17734600Y-838200D01*
X17754600Y-838200D01*
X17754600Y-818200D01*
X18008600Y-818200D01*
X18008600Y-838200D01*
X18028600Y-838200D01*
X18028600Y-1092200D01*
X18008600Y-1092200D01*
X18008600Y-2285355D01*
X18238490Y-2406676D01*
X18385699Y-2362025D01*
X18648520Y-2236841D01*
X18881869Y-2062788D01*
X19076778Y-1846555D01*
X19146405Y-1729666D01*
X19268125Y-1911832D01*
X19474968Y-2118675D01*
X19718189Y-2281190D01*
X19988442Y-2393132D01*
X20275340Y-2450200D01*
X20567860Y-2450200D01*
X20854758Y-2393132D01*
X21125011Y-2281190D01*
X21368232Y-2118675D01*
X21575075Y-1911832D01*
X21691600Y-1737440D01*
X21808125Y-1911832D01*
X22014968Y-2118675D01*
X22258189Y-2281190D01*
X22528442Y-2393132D01*
X22815340Y-2450200D01*
X23107860Y-2450200D01*
X23394758Y-2393132D01*
X23665011Y-2281190D01*
X23908232Y-2118675D01*
X24115075Y-1911832D01*
X24231600Y-1737440D01*
X24348125Y-1911832D01*
X24554968Y-2118675D01*
X24798189Y-2281190D01*
X25068442Y-2393132D01*
X25355340Y-2450200D01*
X25647860Y-2450200D01*
X25934758Y-2393132D01*
X26205011Y-2281190D01*
X26448232Y-2118675D01*
X26655075Y-1911832D01*
X26776795Y-1729666D01*
X26846422Y-1846555D01*
X27041331Y-2062788D01*
X27274680Y-2236841D01*
X27537501Y-2362025D01*
X27684710Y-2406676D01*
X27914600Y-2285355D01*
X27914600Y-1092200D01*
X27894600Y-1092200D01*
X27894600Y-838200D01*
X27914600Y-838200D01*
X27914600Y-818200D01*
X28168600Y-818200D01*
X28168600Y-838200D01*
X28188600Y-838200D01*
X28188600Y-1092200D01*
X28168600Y-1092200D01*
X28168600Y-2285355D01*
X28398490Y-2406676D01*
X28545699Y-2362025D01*
X28808520Y-2236841D01*
X29041869Y-2062788D01*
X29236778Y-1846555D01*
X29306405Y-1729666D01*
X29428125Y-1911832D01*
X29634968Y-2118675D01*
X29878189Y-2281190D01*
X30148442Y-2393132D01*
X30435340Y-2450200D01*
X30727860Y-2450200D01*
X31014758Y-2393132D01*
X31285011Y-2281190D01*
X31528232Y-2118675D01*
X31735075Y-1911832D01*
X31851600Y-1737440D01*
X31968125Y-1911832D01*
X32174968Y-2118675D01*
X32418189Y-2281190D01*
X32688442Y-2393132D01*
X32975340Y-2450200D01*
X33267860Y-2450200D01*
X33554758Y-2393132D01*
X33825011Y-2281190D01*
X34068232Y-2118675D01*
X34275075Y-1911832D01*
X34437590Y-1668611D01*
X34486998Y-1549329D01*
X40067899Y-1549329D01*
X40115143Y-1927551D01*
X40235267Y-2289290D01*
X40367288Y-2536283D01*
X40662376Y-2668219D01*
X41831995Y-1498600D01*
X42191205Y-1498600D01*
X43360824Y-2668219D01*
X43655912Y-2536283D01*
X43826759Y-2195555D01*
X43927850Y-1828043D01*
X43955301Y-1447871D01*
X43908057Y-1069649D01*
X43787933Y-707910D01*
X43655912Y-460917D01*
X43360824Y-328981D01*
X42191205Y-1498600D01*
X41831995Y-1498600D01*
X40662376Y-328981D01*
X40367288Y-460917D01*
X40196441Y-801645D01*
X40095350Y-1169157D01*
X40067899Y-1549329D01*
X34486998Y-1549329D01*
X34549532Y-1398358D01*
X34606600Y-1111460D01*
X34606600Y-818940D01*
X34549532Y-532042D01*
X34437590Y-261789D01*
X34362479Y-149376D01*
X40841981Y-149376D01*
X42011600Y-1318995D01*
X43181219Y-149376D01*
X43049283Y145712D01*
X42708555Y316559D01*
X42341043Y417650D01*
X41960871Y445101D01*
X41582649Y397857D01*
X41220910Y277733D01*
X40973917Y145712D01*
X40841981Y-149376D01*
X34362479Y-149376D01*
X34275075Y-18568D01*
X34143220Y113287D01*
X34215780Y135298D01*
X34326094Y194263D01*
X34422785Y273615D01*
X34502137Y370306D01*
X34561102Y480620D01*
X34597412Y600318D01*
X34609672Y724800D01*
X34609672Y2424800D01*
X34597412Y2549282D01*
X34561102Y2668980D01*
X34502137Y2779294D01*
X34422785Y2875985D01*
X34326094Y2955337D01*
X34215780Y3014302D01*
X34096082Y3050612D01*
X33971600Y3062872D01*
X32271600Y3062872D01*
X32147118Y3050612D01*
X32027420Y3014302D01*
X31917106Y2955337D01*
X31820415Y2875985D01*
X31741063Y2779294D01*
X31682098Y2668980D01*
X31660087Y2596420D01*
X31528232Y2728275D01*
X31285011Y2890790D01*
X31014758Y3002732D01*
X30727860Y3059800D01*
X30435340Y3059800D01*
X30148442Y3002732D01*
X29878189Y2890790D01*
X29634968Y2728275D01*
X29428125Y2521432D01*
X29311600Y2347040D01*
X29195075Y2521432D01*
X28988232Y2728275D01*
X28745011Y2890790D01*
X28474758Y3002732D01*
X28187860Y3059800D01*
X27895340Y3059800D01*
X27608442Y3002732D01*
X27338189Y2890790D01*
X27094968Y2728275D01*
X26888125Y2521432D01*
X26771600Y2347040D01*
X26655075Y2521432D01*
X26448232Y2728275D01*
X26205011Y2890790D01*
X25934758Y3002732D01*
X25647860Y3059800D01*
X25355340Y3059800D01*
X25068442Y3002732D01*
X24798189Y2890790D01*
X24554968Y2728275D01*
X24348125Y2521432D01*
X24226405Y2339266D01*
X24156778Y2456155D01*
X23961869Y2672388D01*
X23728520Y2846441D01*
X23465699Y2971625D01*
X23318490Y3016276D01*
X23088600Y2894955D01*
X23088600Y1701800D01*
X23108600Y1701800D01*
X23108600Y1447800D01*
X23088600Y1447800D01*
X23088600Y1427800D01*
X22834600Y1427800D01*
X22834600Y1447800D01*
X22814600Y1447800D01*
X22814600Y1701800D01*
X22834600Y1701800D01*
X22834600Y2894955D01*
X22604710Y3016276D01*
X22457501Y2971625D01*
X22194680Y2846441D01*
X21961331Y2672388D01*
X21766422Y2456155D01*
X21696795Y2339266D01*
X21575075Y2521432D01*
X21368232Y2728275D01*
X21125011Y2890790D01*
X20854758Y3002732D01*
X20567860Y3059800D01*
X20275340Y3059800D01*
X19988442Y3002732D01*
X19718189Y2890790D01*
X19474968Y2728275D01*
X19268125Y2521432D01*
X19151600Y2347040D01*
X19035075Y2521432D01*
X18828232Y2728275D01*
X18585011Y2890790D01*
X18314758Y3002732D01*
X18027860Y3059800D01*
X17735340Y3059800D01*
X17448442Y3002732D01*
X17178189Y2890790D01*
X16934968Y2728275D01*
X16728125Y2521432D01*
X16611600Y2347040D01*
X16495075Y2521432D01*
X16288232Y2728275D01*
X16045011Y2890790D01*
X15774758Y3002732D01*
X15487860Y3059800D01*
X15195340Y3059800D01*
X14908442Y3002732D01*
X14638189Y2890790D01*
X14394968Y2728275D01*
X14188125Y2521432D01*
X14071600Y2347040D01*
X13955075Y2521432D01*
X13748232Y2728275D01*
X13505011Y2890790D01*
X13234758Y3002732D01*
X12947860Y3059800D01*
X12655340Y3059800D01*
X12368442Y3002732D01*
X12098189Y2890790D01*
X11854968Y2728275D01*
X11648125Y2521432D01*
X11531600Y2347040D01*
X11415075Y2521432D01*
X11208232Y2728275D01*
X10965011Y2890790D01*
X10694758Y3002732D01*
X10407860Y3059800D01*
X10115340Y3059800D01*
X9828442Y3002732D01*
X9558189Y2890790D01*
X9314968Y2728275D01*
X9108125Y2521432D01*
X8991600Y2347040D01*
X8875075Y2521432D01*
X8668232Y2728275D01*
X8425011Y2890790D01*
X8154758Y3002732D01*
X7867860Y3059800D01*
X7575340Y3059800D01*
X7288442Y3002732D01*
X7018189Y2890790D01*
X6774968Y2728275D01*
X6568125Y2521432D01*
X6451600Y2347040D01*
X6335075Y2521432D01*
X6128232Y2728275D01*
X5885011Y2890790D01*
X5614758Y3002732D01*
X5327860Y3059800D01*
X5035340Y3059800D01*
X4748442Y3002732D01*
X4478189Y2890790D01*
X4234968Y2728275D01*
X4028125Y2521432D01*
X3906405Y2339266D01*
X3836778Y2456155D01*
X3641869Y2672388D01*
X3408520Y2846441D01*
X3145699Y2971625D01*
X2998490Y3016276D01*
X2768600Y2894955D01*
X2768600Y1701800D01*
X2788600Y1701800D01*
X2788600Y1447800D01*
X2768600Y1447800D01*
X2768600Y1427800D01*
X2514600Y1427800D01*
X2514600Y1447800D01*
X2494600Y1447800D01*
X2494600Y1701800D01*
X2514600Y1701800D01*
X2514600Y2894955D01*
X2284710Y3016276D01*
X2137501Y2971625D01*
X1874680Y2846441D01*
X1641331Y2672388D01*
X1446422Y2456155D01*
X1376795Y2339266D01*
X1255075Y2521432D01*
X1048232Y2728275D01*
X805011Y2890790D01*
X534758Y3002732D01*
X247860Y3059800D01*
X-44660Y3059800D01*
X-331558Y3002732D01*
X-601811Y2890790D01*
X-845032Y2728275D01*
X-1051875Y2521432D01*
X-1168400Y2347040D01*
X-1284925Y2521432D01*
X-1491768Y2728275D01*
X-1734989Y2890790D01*
X-2005242Y3002732D01*
X-2292140Y3059800D01*
X-2584660Y3059800D01*
X-2871558Y3002732D01*
X-3141811Y2890790D01*
X-3385032Y2728275D01*
X-3591875Y2521432D01*
X-3708400Y2347040D01*
X-3824925Y2521432D01*
X-4031768Y2728275D01*
X-4274989Y2890790D01*
X-4545242Y3002732D01*
X-4832140Y3059800D01*
X-5124660Y3059800D01*
X-5411558Y3002732D01*
X-5681811Y2890790D01*
X-5925032Y2728275D01*
X-6131875Y2521432D01*
X-6248400Y2347040D01*
X-6364925Y2521432D01*
X-6571768Y2728275D01*
X-6814989Y2890790D01*
X-7085242Y3002732D01*
X-7372140Y3059800D01*
X-7664660Y3059800D01*
X-7951558Y3002732D01*
X-8221811Y2890790D01*
X-8465032Y2728275D01*
X-8671875Y2521432D01*
X-8788400Y2347040D01*
X-8904925Y2521432D01*
X-9111768Y2728275D01*
X-9354989Y2890790D01*
X-9625242Y3002732D01*
X-9912140Y3059800D01*
X-10204660Y3059800D01*
X-10491558Y3002732D01*
X-10761811Y2890790D01*
X-11005032Y2728275D01*
X-11211875Y2521432D01*
X-11328400Y2347040D01*
X-11444925Y2521432D01*
X-11651768Y2728275D01*
X-11894989Y2890790D01*
X-12165242Y3002732D01*
X-12452140Y3059800D01*
X-12744660Y3059800D01*
X-13031558Y3002732D01*
X-13301811Y2890790D01*
X-13545032Y2728275D01*
X-13751875Y2521432D01*
X-13873595Y2339266D01*
X-13943222Y2456155D01*
X-14138131Y2672388D01*
X-14371480Y2846441D01*
X-14634301Y2971625D01*
X-14781510Y3016276D01*
X-15011400Y2894955D01*
X-15011400Y1701800D01*
X-14991400Y1701800D01*
X-14991400Y1447800D01*
X-15011400Y1447800D01*
X-15011400Y1427800D01*
X-15265400Y1427800D01*
X-15265400Y1447800D01*
X-16459214Y1447800D01*
X-16579881Y1217909D01*
X-16482557Y943548D01*
X-16333578Y693445D01*
X-16138669Y477212D01*
X-15908994Y305900D01*
X-16085032Y188275D01*
X-16291875Y-18568D01*
X-16454390Y-261789D01*
X-16566332Y-532042D01*
X-16623400Y-818940D01*
X-17374000Y-818940D01*
X-17374000Y1931691D01*
X-16579881Y1931691D01*
X-16459214Y1701800D01*
X-15265400Y1701800D01*
X-15265400Y2894955D01*
X-15495290Y3016276D01*
X-15642499Y2971625D01*
X-15905320Y2846441D01*
X-16138669Y2672388D01*
X-16333578Y2456155D01*
X-16482557Y2206052D01*
X-16579881Y1931691D01*
X-17374000Y1931691D01*
X-17374000Y3277000D01*
X47346000Y3277000D01*
X47346001Y-95733000D01*
G37*
%TD.AperFunction*%
%TD*%
M02*
