%TF.GenerationSoftware,KiCad,Pcbnew,(5.1.10)-1*%
%TF.CreationDate,2022-05-23T16:21:35+02:00*%
%TF.ProjectId,Auto_Uart,4175746f-5f55-4617-9274-2e6b69636164,rev?*%
%TF.SameCoordinates,Original*%
%TF.FileFunction,Paste,Top*%
%TF.FilePolarity,Positive*%
%FSLAX46Y46*%
G04 Gerber Fmt 4.6, Leading zero omitted, Abs format (unit mm)*
G04 Created by KiCad (PCBNEW (5.1.10)-1) date 2022-05-23 16:21:35*
%MOMM*%
%LPD*%
G01*
G04 APERTURE LIST*
G04 APERTURE END LIST*
%TO.C,C1*%
G36*
G01*
X464800Y-66917900D02*
X1414800Y-66917900D01*
G75*
G02*
X1664800Y-67167900I0J-250000D01*
G01*
X1664800Y-67842900D01*
G75*
G02*
X1414800Y-68092900I-250000J0D01*
G01*
X464800Y-68092900D01*
G75*
G02*
X214800Y-67842900I0J250000D01*
G01*
X214800Y-67167900D01*
G75*
G02*
X464800Y-66917900I250000J0D01*
G01*
G37*
G36*
G01*
X464800Y-64842900D02*
X1414800Y-64842900D01*
G75*
G02*
X1664800Y-65092900I0J-250000D01*
G01*
X1664800Y-65767900D01*
G75*
G02*
X1414800Y-66017900I-250000J0D01*
G01*
X464800Y-66017900D01*
G75*
G02*
X214800Y-65767900I0J250000D01*
G01*
X214800Y-65092900D01*
G75*
G02*
X464800Y-64842900I250000J0D01*
G01*
G37*
%TD*%
%TO.C,C2*%
G36*
G01*
X-9356000Y-48622800D02*
X-10456000Y-48622800D01*
G75*
G02*
X-10706000Y-48372800I0J250000D01*
G01*
X-10706000Y-45872800D01*
G75*
G02*
X-10456000Y-45622800I250000J0D01*
G01*
X-9356000Y-45622800D01*
G75*
G02*
X-9106000Y-45872800I0J-250000D01*
G01*
X-9106000Y-48372800D01*
G75*
G02*
X-9356000Y-48622800I-250000J0D01*
G01*
G37*
G36*
G01*
X-9356000Y-44222800D02*
X-10456000Y-44222800D01*
G75*
G02*
X-10706000Y-43972800I0J250000D01*
G01*
X-10706000Y-41472800D01*
G75*
G02*
X-10456000Y-41222800I250000J0D01*
G01*
X-9356000Y-41222800D01*
G75*
G02*
X-9106000Y-41472800I0J-250000D01*
G01*
X-9106000Y-43972800D01*
G75*
G02*
X-9356000Y-44222800I-250000J0D01*
G01*
G37*
%TD*%
%TO.C,C3*%
G36*
G01*
X-2104900Y-37091600D02*
X-2104900Y-38041600D01*
G75*
G02*
X-2354900Y-38291600I-250000J0D01*
G01*
X-3029900Y-38291600D01*
G75*
G02*
X-3279900Y-38041600I0J250000D01*
G01*
X-3279900Y-37091600D01*
G75*
G02*
X-3029900Y-36841600I250000J0D01*
G01*
X-2354900Y-36841600D01*
G75*
G02*
X-2104900Y-37091600I0J-250000D01*
G01*
G37*
G36*
G01*
X-29900Y-37091600D02*
X-29900Y-38041600D01*
G75*
G02*
X-279900Y-38291600I-250000J0D01*
G01*
X-954900Y-38291600D01*
G75*
G02*
X-1204900Y-38041600I0J250000D01*
G01*
X-1204900Y-37091600D01*
G75*
G02*
X-954900Y-36841600I250000J0D01*
G01*
X-279900Y-36841600D01*
G75*
G02*
X-29900Y-37091600I0J-250000D01*
G01*
G37*
%TD*%
%TO.C,C4*%
G36*
G01*
X3330700Y-41993800D02*
X3330700Y-42943800D01*
G75*
G02*
X3080700Y-43193800I-250000J0D01*
G01*
X2405700Y-43193800D01*
G75*
G02*
X2155700Y-42943800I0J250000D01*
G01*
X2155700Y-41993800D01*
G75*
G02*
X2405700Y-41743800I250000J0D01*
G01*
X3080700Y-41743800D01*
G75*
G02*
X3330700Y-41993800I0J-250000D01*
G01*
G37*
G36*
G01*
X1255700Y-41993800D02*
X1255700Y-42943800D01*
G75*
G02*
X1005700Y-43193800I-250000J0D01*
G01*
X330700Y-43193800D01*
G75*
G02*
X80700Y-42943800I0J250000D01*
G01*
X80700Y-41993800D01*
G75*
G02*
X330700Y-41743800I250000J0D01*
G01*
X1005700Y-41743800D01*
G75*
G02*
X1255700Y-41993800I0J-250000D01*
G01*
G37*
%TD*%
%TO.C,C5*%
G36*
G01*
X-2496800Y-47341100D02*
X-3446800Y-47341100D01*
G75*
G02*
X-3696800Y-47091100I0J250000D01*
G01*
X-3696800Y-46416100D01*
G75*
G02*
X-3446800Y-46166100I250000J0D01*
G01*
X-2496800Y-46166100D01*
G75*
G02*
X-2246800Y-46416100I0J-250000D01*
G01*
X-2246800Y-47091100D01*
G75*
G02*
X-2496800Y-47341100I-250000J0D01*
G01*
G37*
G36*
G01*
X-2496800Y-45266100D02*
X-3446800Y-45266100D01*
G75*
G02*
X-3696800Y-45016100I0J250000D01*
G01*
X-3696800Y-44341100D01*
G75*
G02*
X-3446800Y-44091100I250000J0D01*
G01*
X-2496800Y-44091100D01*
G75*
G02*
X-2246800Y-44341100I0J-250000D01*
G01*
X-2246800Y-45016100D01*
G75*
G02*
X-2496800Y-45266100I-250000J0D01*
G01*
G37*
%TD*%
%TO.C,C6*%
G36*
G01*
X-3352200Y-28542000D02*
X-3352200Y-27592000D01*
G75*
G02*
X-3102200Y-27342000I250000J0D01*
G01*
X-2427200Y-27342000D01*
G75*
G02*
X-2177200Y-27592000I0J-250000D01*
G01*
X-2177200Y-28542000D01*
G75*
G02*
X-2427200Y-28792000I-250000J0D01*
G01*
X-3102200Y-28792000D01*
G75*
G02*
X-3352200Y-28542000I0J250000D01*
G01*
G37*
G36*
G01*
X-1277200Y-28542000D02*
X-1277200Y-27592000D01*
G75*
G02*
X-1027200Y-27342000I250000J0D01*
G01*
X-352200Y-27342000D01*
G75*
G02*
X-102200Y-27592000I0J-250000D01*
G01*
X-102200Y-28542000D01*
G75*
G02*
X-352200Y-28792000I-250000J0D01*
G01*
X-1027200Y-28792000D01*
G75*
G02*
X-1277200Y-28542000I0J250000D01*
G01*
G37*
%TD*%
%TO.C,C7*%
G36*
G01*
X-4131400Y-77497600D02*
X-3031400Y-77497600D01*
G75*
G02*
X-2781400Y-77747600I0J-250000D01*
G01*
X-2781400Y-79847600D01*
G75*
G02*
X-3031400Y-80097600I-250000J0D01*
G01*
X-4131400Y-80097600D01*
G75*
G02*
X-4381400Y-79847600I0J250000D01*
G01*
X-4381400Y-77747600D01*
G75*
G02*
X-4131400Y-77497600I250000J0D01*
G01*
G37*
G36*
G01*
X-4131400Y-81097600D02*
X-3031400Y-81097600D01*
G75*
G02*
X-2781400Y-81347600I0J-250000D01*
G01*
X-2781400Y-83447600D01*
G75*
G02*
X-3031400Y-83697600I-250000J0D01*
G01*
X-4131400Y-83697600D01*
G75*
G02*
X-4381400Y-83447600I0J250000D01*
G01*
X-4381400Y-81347600D01*
G75*
G02*
X-4131400Y-81097600I250000J0D01*
G01*
G37*
%TD*%
%TO.C,C8*%
G36*
G01*
X14156600Y-77468800D02*
X15256600Y-77468800D01*
G75*
G02*
X15506600Y-77718800I0J-250000D01*
G01*
X15506600Y-79818800D01*
G75*
G02*
X15256600Y-80068800I-250000J0D01*
G01*
X14156600Y-80068800D01*
G75*
G02*
X13906600Y-79818800I0J250000D01*
G01*
X13906600Y-77718800D01*
G75*
G02*
X14156600Y-77468800I250000J0D01*
G01*
G37*
G36*
G01*
X14156600Y-81068800D02*
X15256600Y-81068800D01*
G75*
G02*
X15506600Y-81318800I0J-250000D01*
G01*
X15506600Y-83418800D01*
G75*
G02*
X15256600Y-83668800I-250000J0D01*
G01*
X14156600Y-83668800D01*
G75*
G02*
X13906600Y-83418800I0J250000D01*
G01*
X13906600Y-81318800D01*
G75*
G02*
X14156600Y-81068800I250000J0D01*
G01*
G37*
%TD*%
%TO.C,C9*%
G36*
G01*
X6993800Y-81119600D02*
X8093800Y-81119600D01*
G75*
G02*
X8343800Y-81369600I0J-250000D01*
G01*
X8343800Y-83469600D01*
G75*
G02*
X8093800Y-83719600I-250000J0D01*
G01*
X6993800Y-83719600D01*
G75*
G02*
X6743800Y-83469600I0J250000D01*
G01*
X6743800Y-81369600D01*
G75*
G02*
X6993800Y-81119600I250000J0D01*
G01*
G37*
G36*
G01*
X6993800Y-77519600D02*
X8093800Y-77519600D01*
G75*
G02*
X8343800Y-77769600I0J-250000D01*
G01*
X8343800Y-79869600D01*
G75*
G02*
X8093800Y-80119600I-250000J0D01*
G01*
X6993800Y-80119600D01*
G75*
G02*
X6743800Y-79869600I0J250000D01*
G01*
X6743800Y-77769600D01*
G75*
G02*
X6993800Y-77519600I250000J0D01*
G01*
G37*
%TD*%
%TO.C,C10*%
G36*
G01*
X11878400Y-52995800D02*
X10778400Y-52995800D01*
G75*
G02*
X10528400Y-52745800I0J250000D01*
G01*
X10528400Y-50645800D01*
G75*
G02*
X10778400Y-50395800I250000J0D01*
G01*
X11878400Y-50395800D01*
G75*
G02*
X12128400Y-50645800I0J-250000D01*
G01*
X12128400Y-52745800D01*
G75*
G02*
X11878400Y-52995800I-250000J0D01*
G01*
G37*
G36*
G01*
X11878400Y-56595800D02*
X10778400Y-56595800D01*
G75*
G02*
X10528400Y-56345800I0J250000D01*
G01*
X10528400Y-54245800D01*
G75*
G02*
X10778400Y-53995800I250000J0D01*
G01*
X11878400Y-53995800D01*
G75*
G02*
X12128400Y-54245800I0J-250000D01*
G01*
X12128400Y-56345800D01*
G75*
G02*
X11878400Y-56595800I-250000J0D01*
G01*
G37*
%TD*%
%TO.C,C11*%
G36*
G01*
X24935200Y-12703300D02*
X23985200Y-12703300D01*
G75*
G02*
X23735200Y-12453300I0J250000D01*
G01*
X23735200Y-11778300D01*
G75*
G02*
X23985200Y-11528300I250000J0D01*
G01*
X24935200Y-11528300D01*
G75*
G02*
X25185200Y-11778300I0J-250000D01*
G01*
X25185200Y-12453300D01*
G75*
G02*
X24935200Y-12703300I-250000J0D01*
G01*
G37*
G36*
G01*
X24935200Y-14778300D02*
X23985200Y-14778300D01*
G75*
G02*
X23735200Y-14528300I0J250000D01*
G01*
X23735200Y-13853300D01*
G75*
G02*
X23985200Y-13603300I250000J0D01*
G01*
X24935200Y-13603300D01*
G75*
G02*
X25185200Y-13853300I0J-250000D01*
G01*
X25185200Y-14528300D01*
G75*
G02*
X24935200Y-14778300I-250000J0D01*
G01*
G37*
%TD*%
%TO.C,C12*%
G36*
G01*
X19286200Y-32008500D02*
X20236200Y-32008500D01*
G75*
G02*
X20486200Y-32258500I0J-250000D01*
G01*
X20486200Y-32933500D01*
G75*
G02*
X20236200Y-33183500I-250000J0D01*
G01*
X19286200Y-33183500D01*
G75*
G02*
X19036200Y-32933500I0J250000D01*
G01*
X19036200Y-32258500D01*
G75*
G02*
X19286200Y-32008500I250000J0D01*
G01*
G37*
G36*
G01*
X19286200Y-34083500D02*
X20236200Y-34083500D01*
G75*
G02*
X20486200Y-34333500I0J-250000D01*
G01*
X20486200Y-35008500D01*
G75*
G02*
X20236200Y-35258500I-250000J0D01*
G01*
X19286200Y-35258500D01*
G75*
G02*
X19036200Y-35008500I0J250000D01*
G01*
X19036200Y-34333500D01*
G75*
G02*
X19286200Y-34083500I250000J0D01*
G01*
G37*
%TD*%
%TO.C,C13*%
G36*
G01*
X25256400Y-34151800D02*
X26356400Y-34151800D01*
G75*
G02*
X26606400Y-34401800I0J-250000D01*
G01*
X26606400Y-36901800D01*
G75*
G02*
X26356400Y-37151800I-250000J0D01*
G01*
X25256400Y-37151800D01*
G75*
G02*
X25006400Y-36901800I0J250000D01*
G01*
X25006400Y-34401800D01*
G75*
G02*
X25256400Y-34151800I250000J0D01*
G01*
G37*
G36*
G01*
X25256400Y-29751800D02*
X26356400Y-29751800D01*
G75*
G02*
X26606400Y-30001800I0J-250000D01*
G01*
X26606400Y-32501800D01*
G75*
G02*
X26356400Y-32751800I-250000J0D01*
G01*
X25256400Y-32751800D01*
G75*
G02*
X25006400Y-32501800I0J250000D01*
G01*
X25006400Y-30001800D01*
G75*
G02*
X25256400Y-29751800I250000J0D01*
G01*
G37*
%TD*%
%TO.C,R1*%
G36*
G01*
X-625800Y-6585799D02*
X-625800Y-7485801D01*
G75*
G02*
X-875799Y-7735800I-249999J0D01*
G01*
X-1575801Y-7735800D01*
G75*
G02*
X-1825800Y-7485801I0J249999D01*
G01*
X-1825800Y-6585799D01*
G75*
G02*
X-1575801Y-6335800I249999J0D01*
G01*
X-875799Y-6335800D01*
G75*
G02*
X-625800Y-6585799I0J-249999D01*
G01*
G37*
G36*
G01*
X-2625800Y-6585799D02*
X-2625800Y-7485801D01*
G75*
G02*
X-2875799Y-7735800I-249999J0D01*
G01*
X-3575801Y-7735800D01*
G75*
G02*
X-3825800Y-7485801I0J249999D01*
G01*
X-3825800Y-6585799D01*
G75*
G02*
X-3575801Y-6335800I249999J0D01*
G01*
X-2875799Y-6335800D01*
G75*
G02*
X-2625800Y-6585799I0J-249999D01*
G01*
G37*
%TD*%
%TO.C,R2*%
G36*
G01*
X-2575000Y-10065599D02*
X-2575000Y-10965601D01*
G75*
G02*
X-2824999Y-11215600I-249999J0D01*
G01*
X-3525001Y-11215600D01*
G75*
G02*
X-3775000Y-10965601I0J249999D01*
G01*
X-3775000Y-10065599D01*
G75*
G02*
X-3525001Y-9815600I249999J0D01*
G01*
X-2824999Y-9815600D01*
G75*
G02*
X-2575000Y-10065599I0J-249999D01*
G01*
G37*
G36*
G01*
X-575000Y-10065599D02*
X-575000Y-10965601D01*
G75*
G02*
X-824999Y-11215600I-249999J0D01*
G01*
X-1525001Y-11215600D01*
G75*
G02*
X-1775000Y-10965601I0J249999D01*
G01*
X-1775000Y-10065599D01*
G75*
G02*
X-1525001Y-9815600I249999J0D01*
G01*
X-824999Y-9815600D01*
G75*
G02*
X-575000Y-10065599I0J-249999D01*
G01*
G37*
%TD*%
%TO.C,R3*%
G36*
G01*
X-1847001Y-31232800D02*
X-946999Y-31232800D01*
G75*
G02*
X-697000Y-31482799I0J-249999D01*
G01*
X-697000Y-32182801D01*
G75*
G02*
X-946999Y-32432800I-249999J0D01*
G01*
X-1847001Y-32432800D01*
G75*
G02*
X-2097000Y-32182801I0J249999D01*
G01*
X-2097000Y-31482799D01*
G75*
G02*
X-1847001Y-31232800I249999J0D01*
G01*
G37*
G36*
G01*
X-1847001Y-33232800D02*
X-946999Y-33232800D01*
G75*
G02*
X-697000Y-33482799I0J-249999D01*
G01*
X-697000Y-34182801D01*
G75*
G02*
X-946999Y-34432800I-249999J0D01*
G01*
X-1847001Y-34432800D01*
G75*
G02*
X-2097000Y-34182801I0J249999D01*
G01*
X-2097000Y-33482799D01*
G75*
G02*
X-1847001Y-33232800I249999J0D01*
G01*
G37*
%TD*%
M02*
