%FSLAX45Y45*%
G04 Gerber Fmt 4.5, Leading zero omitted, Abs format (unit mm)*
G04 Created by KiCad (PCBNEW (5.1.10)-1) date 2022-05-23 16:21:41*
%MOMM*%
%LPD*%
G01*
G04 APERTURE LIST*
%TA.AperFunction,Profile*%
%ADD10C,0.050000*%
%TD*%
%ADD11C,0.200000*%
%ADD12C,0.300000*%
G04 APERTURE END LIST*
D10*
X-1803400Y393700D02*
X-1803400Y-9639300D01*
X4800600Y-9639300D02*
X-1803400Y-9639300D01*
X4800600Y393700D02*
X4800600Y-9639300D01*
X-1803400Y393700D02*
X4800600Y393700D01*
D11*
X1338600Y-9079250D02*
X1658600Y-9399250D01*
X1658600Y-9079250D02*
X1338600Y-9399250D01*
D12*
X-1519471Y-10107514D02*
X-1519471Y-9807514D01*
X-1448043Y-9807514D01*
X-1405186Y-9821800D01*
X-1376614Y-9850372D01*
X-1362329Y-9878943D01*
X-1348043Y-9936086D01*
X-1348043Y-9978943D01*
X-1362329Y-10036086D01*
X-1376614Y-10064657D01*
X-1405186Y-10093229D01*
X-1448043Y-10107514D01*
X-1519471Y-10107514D01*
X-1219472Y-10107514D02*
X-1219472Y-9907514D01*
X-1219472Y-9964657D02*
X-1205186Y-9936086D01*
X-1190900Y-9921800D01*
X-1162329Y-9907514D01*
X-1133757Y-9907514D01*
X-1033757Y-10107514D02*
X-1033757Y-9907514D01*
X-1033757Y-9807514D02*
X-1048043Y-9821800D01*
X-1033757Y-9836086D01*
X-1019471Y-9821800D01*
X-1033757Y-9807514D01*
X-1033757Y-9836086D01*
X-848043Y-10107514D02*
X-876614Y-10093229D01*
X-890900Y-10064657D01*
X-890900Y-9807514D01*
X-690900Y-10107514D02*
X-719471Y-10093229D01*
X-733757Y-10064657D01*
X-733757Y-9807514D01*
X-348043Y-10107514D02*
X-348043Y-9807514D01*
X-248043Y-10021800D01*
X-148043Y-9807514D01*
X-148043Y-10107514D01*
X123386Y-10107514D02*
X123386Y-9950372D01*
X109100Y-9921800D01*
X80528Y-9907514D01*
X23386Y-9907514D01*
X-5186Y-9921800D01*
X123386Y-10093229D02*
X94814Y-10107514D01*
X23386Y-10107514D01*
X-5186Y-10093229D01*
X-19472Y-10064657D01*
X-19472Y-10036086D01*
X-5186Y-10007514D01*
X23386Y-9993229D01*
X94814Y-9993229D01*
X123386Y-9978943D01*
X266243Y-9907514D02*
X266243Y-10207514D01*
X266243Y-9921800D02*
X294814Y-9907514D01*
X351957Y-9907514D01*
X380528Y-9921800D01*
X394814Y-9936086D01*
X409100Y-9964657D01*
X409100Y-10050372D01*
X394814Y-10078943D01*
X380528Y-10093229D01*
X351957Y-10107514D01*
X294814Y-10107514D01*
X266243Y-10093229D01*
X537671Y-10078943D02*
X551957Y-10093229D01*
X537671Y-10107514D01*
X523386Y-10093229D01*
X537671Y-10078943D01*
X537671Y-10107514D01*
X537671Y-9921800D02*
X551957Y-9936086D01*
X537671Y-9950372D01*
X523386Y-9936086D01*
X537671Y-9921800D01*
X537671Y-9950372D01*
X-2125900Y-10441800D02*
X-1805900Y-10761800D01*
X-1805900Y-10441800D02*
X-2125900Y-10761800D01*
X-1548043Y-10437514D02*
X-1362329Y-10437514D01*
X-1462329Y-10551800D01*
X-1419471Y-10551800D01*
X-1390900Y-10566086D01*
X-1376614Y-10580372D01*
X-1362329Y-10608943D01*
X-1362329Y-10680372D01*
X-1376614Y-10708943D01*
X-1390900Y-10723229D01*
X-1419471Y-10737514D01*
X-1505186Y-10737514D01*
X-1533757Y-10723229D01*
X-1548043Y-10708943D01*
X-1233757Y-10708943D02*
X-1219472Y-10723229D01*
X-1233757Y-10737514D01*
X-1248043Y-10723229D01*
X-1233757Y-10708943D01*
X-1233757Y-10737514D01*
X-1105186Y-10466086D02*
X-1090900Y-10451800D01*
X-1062329Y-10437514D01*
X-990900Y-10437514D01*
X-962329Y-10451800D01*
X-948043Y-10466086D01*
X-933757Y-10494657D01*
X-933757Y-10523229D01*
X-948043Y-10566086D01*
X-1119472Y-10737514D01*
X-933757Y-10737514D01*
X-748043Y-10437514D02*
X-719471Y-10437514D01*
X-690900Y-10451800D01*
X-676614Y-10466086D01*
X-662329Y-10494657D01*
X-648043Y-10551800D01*
X-648043Y-10623229D01*
X-662329Y-10680372D01*
X-676614Y-10708943D01*
X-690900Y-10723229D01*
X-719471Y-10737514D01*
X-748043Y-10737514D01*
X-776614Y-10723229D01*
X-790900Y-10708943D01*
X-805186Y-10680372D01*
X-819471Y-10623229D01*
X-819471Y-10551800D01*
X-805186Y-10494657D01*
X-790900Y-10466086D01*
X-776614Y-10451800D01*
X-748043Y-10437514D01*
X-462329Y-10437514D02*
X-433757Y-10437514D01*
X-405186Y-10451800D01*
X-390900Y-10466086D01*
X-376614Y-10494657D01*
X-362329Y-10551800D01*
X-362329Y-10623229D01*
X-376614Y-10680372D01*
X-390900Y-10708943D01*
X-405186Y-10723229D01*
X-433757Y-10737514D01*
X-462329Y-10737514D01*
X-490900Y-10723229D01*
X-505186Y-10708943D01*
X-519471Y-10680372D01*
X-533757Y-10623229D01*
X-533757Y-10551800D01*
X-519471Y-10494657D01*
X-505186Y-10466086D01*
X-490900Y-10451800D01*
X-462329Y-10437514D01*
X-233757Y-10737514D02*
X-233757Y-10537514D01*
X-233757Y-10566086D02*
X-219471Y-10551800D01*
X-190900Y-10537514D01*
X-148043Y-10537514D01*
X-119471Y-10551800D01*
X-105186Y-10580372D01*
X-105186Y-10737514D01*
X-105186Y-10580372D02*
X-90900Y-10551800D01*
X-62329Y-10537514D01*
X-19472Y-10537514D01*
X9100Y-10551800D01*
X23386Y-10580372D01*
X23386Y-10737514D01*
X166243Y-10737514D02*
X166243Y-10537514D01*
X166243Y-10566086D02*
X180528Y-10551800D01*
X209100Y-10537514D01*
X251957Y-10537514D01*
X280528Y-10551800D01*
X294814Y-10580372D01*
X294814Y-10737514D01*
X294814Y-10580372D02*
X309100Y-10551800D01*
X337671Y-10537514D01*
X380528Y-10537514D01*
X409100Y-10551800D01*
X423386Y-10580372D01*
X423386Y-10737514D01*
X1009100Y-10423229D02*
X751957Y-10808943D01*
X1394814Y-10437514D02*
X1423386Y-10437514D01*
X1451957Y-10451800D01*
X1466243Y-10466086D01*
X1480528Y-10494657D01*
X1494814Y-10551800D01*
X1494814Y-10623229D01*
X1480528Y-10680372D01*
X1466243Y-10708943D01*
X1451957Y-10723229D01*
X1423386Y-10737514D01*
X1394814Y-10737514D01*
X1366243Y-10723229D01*
X1351957Y-10708943D01*
X1337671Y-10680372D01*
X1323386Y-10623229D01*
X1323386Y-10551800D01*
X1337671Y-10494657D01*
X1351957Y-10466086D01*
X1366243Y-10451800D01*
X1394814Y-10437514D01*
X1623386Y-10708943D02*
X1637671Y-10723229D01*
X1623386Y-10737514D01*
X1609100Y-10723229D01*
X1623386Y-10708943D01*
X1623386Y-10737514D01*
X1923386Y-10737514D02*
X1751957Y-10737514D01*
X1837671Y-10737514D02*
X1837671Y-10437514D01*
X1809100Y-10480372D01*
X1780528Y-10508943D01*
X1751957Y-10523229D01*
X2037671Y-10466086D02*
X2051957Y-10451800D01*
X2080528Y-10437514D01*
X2151957Y-10437514D01*
X2180528Y-10451800D01*
X2194814Y-10466086D01*
X2209100Y-10494657D01*
X2209100Y-10523229D01*
X2194814Y-10566086D01*
X2023386Y-10737514D01*
X2209100Y-10737514D01*
X2466243Y-10437514D02*
X2409100Y-10437514D01*
X2380528Y-10451800D01*
X2366243Y-10466086D01*
X2337671Y-10508943D01*
X2323386Y-10566086D01*
X2323386Y-10680372D01*
X2337671Y-10708943D01*
X2351957Y-10723229D01*
X2380528Y-10737514D01*
X2437671Y-10737514D01*
X2466243Y-10723229D01*
X2480528Y-10708943D01*
X2494814Y-10680372D01*
X2494814Y-10608943D01*
X2480528Y-10580372D01*
X2466243Y-10566086D01*
X2437671Y-10551800D01*
X2380528Y-10551800D01*
X2351957Y-10566086D01*
X2337671Y-10580372D01*
X2323386Y-10608943D01*
X2680528Y-10437514D02*
X2709100Y-10437514D01*
X2737671Y-10451800D01*
X2751957Y-10466086D01*
X2766243Y-10494657D01*
X2780528Y-10551800D01*
X2780528Y-10623229D01*
X2766243Y-10680372D01*
X2751957Y-10708943D01*
X2737671Y-10723229D01*
X2709100Y-10737514D01*
X2680528Y-10737514D01*
X2651957Y-10723229D01*
X2637671Y-10708943D01*
X2623386Y-10680372D01*
X2609100Y-10623229D01*
X2609100Y-10551800D01*
X2623386Y-10494657D01*
X2637671Y-10466086D01*
X2651957Y-10451800D01*
X2680528Y-10437514D01*
X2894814Y-10437514D02*
X2894814Y-10494657D01*
X3009100Y-10437514D02*
X3009100Y-10494657D01*
X3451957Y-10851800D02*
X3437671Y-10837514D01*
X3409100Y-10794657D01*
X3394814Y-10766086D01*
X3380528Y-10723229D01*
X3366243Y-10651800D01*
X3366243Y-10594657D01*
X3380528Y-10523229D01*
X3394814Y-10480372D01*
X3409100Y-10451800D01*
X3437671Y-10408943D01*
X3451957Y-10394657D01*
X3723386Y-10737514D02*
X3551957Y-10737514D01*
X3637671Y-10737514D02*
X3637671Y-10437514D01*
X3609100Y-10480372D01*
X3580528Y-10508943D01*
X3551957Y-10523229D01*
X4080528Y-10737514D02*
X4080528Y-10437514D01*
X4209100Y-10737514D02*
X4209100Y-10580372D01*
X4194814Y-10551800D01*
X4166243Y-10537514D01*
X4123386Y-10537514D01*
X4094814Y-10551800D01*
X4080528Y-10566086D01*
X4394814Y-10737514D02*
X4366243Y-10723229D01*
X4351957Y-10708943D01*
X4337671Y-10680372D01*
X4337671Y-10594657D01*
X4351957Y-10566086D01*
X4366243Y-10551800D01*
X4394814Y-10537514D01*
X4437671Y-10537514D01*
X4466243Y-10551800D01*
X4480528Y-10566086D01*
X4494814Y-10594657D01*
X4494814Y-10680372D01*
X4480528Y-10708943D01*
X4466243Y-10723229D01*
X4437671Y-10737514D01*
X4394814Y-10737514D01*
X4666243Y-10737514D02*
X4637671Y-10723229D01*
X4623386Y-10694657D01*
X4623386Y-10437514D01*
X4894814Y-10723229D02*
X4866243Y-10737514D01*
X4809100Y-10737514D01*
X4780528Y-10723229D01*
X4766243Y-10694657D01*
X4766243Y-10580372D01*
X4780528Y-10551800D01*
X4809100Y-10537514D01*
X4866243Y-10537514D01*
X4894814Y-10551800D01*
X4909100Y-10580372D01*
X4909100Y-10608943D01*
X4766243Y-10637514D01*
X5009100Y-10851800D02*
X5023386Y-10837514D01*
X5051957Y-10794657D01*
X5066243Y-10766086D01*
X5080528Y-10723229D01*
X5094814Y-10651800D01*
X5094814Y-10594657D01*
X5080528Y-10523229D01*
X5066243Y-10480372D01*
X5051957Y-10451800D01*
X5023386Y-10408943D01*
X5009100Y-10394657D01*
X5551957Y-10851800D02*
X5537671Y-10837514D01*
X5509100Y-10794657D01*
X5494814Y-10766086D01*
X5480528Y-10723229D01*
X5466243Y-10651800D01*
X5466243Y-10594657D01*
X5480528Y-10523229D01*
X5494814Y-10480372D01*
X5509100Y-10451800D01*
X5537671Y-10408943D01*
X5551957Y-10394657D01*
X5666243Y-10537514D02*
X5666243Y-10737514D01*
X5666243Y-10566086D02*
X5680528Y-10551800D01*
X5709100Y-10537514D01*
X5751957Y-10537514D01*
X5780528Y-10551800D01*
X5794814Y-10580372D01*
X5794814Y-10737514D01*
X5980528Y-10737514D02*
X5951957Y-10723229D01*
X5937671Y-10708943D01*
X5923386Y-10680372D01*
X5923386Y-10594657D01*
X5937671Y-10566086D01*
X5951957Y-10551800D01*
X5980528Y-10537514D01*
X6023386Y-10537514D01*
X6051957Y-10551800D01*
X6066243Y-10566086D01*
X6080528Y-10594657D01*
X6080528Y-10680372D01*
X6066243Y-10708943D01*
X6051957Y-10723229D01*
X6023386Y-10737514D01*
X5980528Y-10737514D01*
X6166243Y-10537514D02*
X6280528Y-10537514D01*
X6209100Y-10437514D02*
X6209100Y-10694657D01*
X6223386Y-10723229D01*
X6251957Y-10737514D01*
X6280528Y-10737514D01*
X6609100Y-10537514D02*
X6609100Y-10837514D01*
X6609100Y-10551800D02*
X6637671Y-10537514D01*
X6694814Y-10537514D01*
X6723386Y-10551800D01*
X6737671Y-10566086D01*
X6751957Y-10594657D01*
X6751957Y-10680372D01*
X6737671Y-10708943D01*
X6723386Y-10723229D01*
X6694814Y-10737514D01*
X6637671Y-10737514D01*
X6609100Y-10723229D01*
X6923386Y-10737514D02*
X6894814Y-10723229D01*
X6880528Y-10694657D01*
X6880528Y-10437514D01*
X7166243Y-10737514D02*
X7166243Y-10580372D01*
X7151957Y-10551800D01*
X7123386Y-10537514D01*
X7066243Y-10537514D01*
X7037671Y-10551800D01*
X7166243Y-10723229D02*
X7137671Y-10737514D01*
X7066243Y-10737514D01*
X7037671Y-10723229D01*
X7023386Y-10694657D01*
X7023386Y-10666086D01*
X7037671Y-10637514D01*
X7066243Y-10623229D01*
X7137671Y-10623229D01*
X7166243Y-10608943D01*
X7266243Y-10537514D02*
X7380528Y-10537514D01*
X7309100Y-10437514D02*
X7309100Y-10694657D01*
X7323386Y-10723229D01*
X7351957Y-10737514D01*
X7380528Y-10737514D01*
X7594814Y-10723229D02*
X7566243Y-10737514D01*
X7509100Y-10737514D01*
X7480528Y-10723229D01*
X7466243Y-10694657D01*
X7466243Y-10580372D01*
X7480528Y-10551800D01*
X7509100Y-10537514D01*
X7566243Y-10537514D01*
X7594814Y-10551800D01*
X7609100Y-10580372D01*
X7609100Y-10608943D01*
X7466243Y-10637514D01*
X7866243Y-10737514D02*
X7866243Y-10437514D01*
X7866243Y-10723229D02*
X7837671Y-10737514D01*
X7780528Y-10737514D01*
X7751957Y-10723229D01*
X7737671Y-10708943D01*
X7723386Y-10680372D01*
X7723386Y-10594657D01*
X7737671Y-10566086D01*
X7751957Y-10551800D01*
X7780528Y-10537514D01*
X7837671Y-10537514D01*
X7866243Y-10551800D01*
X7980528Y-10851800D02*
X7994814Y-10837514D01*
X8023386Y-10794657D01*
X8037671Y-10766086D01*
X8051957Y-10723229D01*
X8066243Y-10651800D01*
X8066243Y-10594657D01*
X8051957Y-10523229D01*
X8037671Y-10480372D01*
X8023386Y-10451800D01*
X7994814Y-10408943D01*
X7980528Y-10394657D01*
M02*
