%TF.GenerationSoftware,KiCad,Pcbnew,(5.1.10)-1*%
%TF.CreationDate,2022-05-23T16:08:43+02:00*%
%TF.ProjectId,Schrittmotoransteuerung2_0,53636872-6974-4746-9d6f-746f72616e73,rev?*%
%TF.SameCoordinates,Original*%
%TF.FileFunction,Soldermask,Bot*%
%TF.FilePolarity,Negative*%
%FSLAX46Y46*%
G04 Gerber Fmt 4.6, Leading zero omitted, Abs format (unit mm)*
G04 Created by KiCad (PCBNEW (5.1.10)-1) date 2022-05-23 16:08:43*
%MOMM*%
%LPD*%
G01*
G04 APERTURE LIST*
%ADD10R,2.300000X3.500000*%
%ADD11C,3.200000*%
%ADD12R,1.600000X2.400000*%
%ADD13O,1.600000X2.400000*%
%ADD14O,2.190000X1.740000*%
%ADD15C,2.600000*%
%ADD16R,2.600000X2.600000*%
%ADD17R,1.700000X1.700000*%
%ADD18O,1.700000X1.700000*%
%ADD19C,1.440000*%
%ADD20R,1.600000X1.600000*%
%ADD21O,1.600000X1.600000*%
%ADD22R,2.300000X1.500000*%
%ADD23O,2.300000X1.500000*%
%ADD24C,1.500000*%
G04 APERTURE END LIST*
D10*
%TO.C,D1*%
X99187000Y-57945000D03*
X99187000Y-52545000D03*
%TD*%
%TO.C,D2*%
X94361000Y-52545000D03*
X94361000Y-57945000D03*
%TD*%
%TO.C,D3*%
X94361000Y-29939000D03*
X94361000Y-35339000D03*
%TD*%
%TO.C,D4*%
X99187000Y-35339000D03*
X99187000Y-29939000D03*
%TD*%
%TO.C,D5*%
X104013000Y-52545000D03*
X104013000Y-57945000D03*
%TD*%
%TO.C,D6*%
X89535000Y-57945000D03*
X89535000Y-52545000D03*
%TD*%
%TO.C,D7*%
X89535000Y-35339000D03*
X89535000Y-29939000D03*
%TD*%
%TO.C,D8*%
X104013000Y-29939000D03*
X104013000Y-35339000D03*
%TD*%
D11*
%TO.C,H1*%
X43116500Y-87503000D03*
%TD*%
%TO.C,H2*%
X110871000Y-29400500D03*
%TD*%
%TO.C,H3*%
X110871000Y-87503000D03*
%TD*%
%TO.C,H4*%
X43053000Y-29210000D03*
%TD*%
D12*
%TO.C,IC1*%
X80327500Y-77406500D03*
D13*
X72707500Y-85026500D03*
X77787500Y-77406500D03*
X75247500Y-85026500D03*
X75247500Y-77406500D03*
X77787500Y-85026500D03*
X72707500Y-77406500D03*
X80327500Y-85026500D03*
%TD*%
D12*
%TO.C,IC2*%
X43751500Y-67754500D03*
D13*
X76771500Y-60134500D03*
X46291500Y-67754500D03*
X74231500Y-60134500D03*
X48831500Y-67754500D03*
X71691500Y-60134500D03*
X51371500Y-67754500D03*
X69151500Y-60134500D03*
X53911500Y-67754500D03*
X66611500Y-60134500D03*
X56451500Y-67754500D03*
X64071500Y-60134500D03*
X58991500Y-67754500D03*
X61531500Y-60134500D03*
X61531500Y-67754500D03*
X58991500Y-60134500D03*
X64071500Y-67754500D03*
X56451500Y-60134500D03*
X66611500Y-67754500D03*
X53911500Y-60134500D03*
X69151500Y-67754500D03*
X51371500Y-60134500D03*
X71691500Y-67754500D03*
X48831500Y-60134500D03*
X74231500Y-67754500D03*
X46291500Y-60134500D03*
X76771500Y-67754500D03*
X43751500Y-60134500D03*
%TD*%
%TO.C,J1*%
G36*
G01*
X90658499Y-84982000D02*
X92348501Y-84982000D01*
G75*
G02*
X92598500Y-85231999I0J-249999D01*
G01*
X92598500Y-86472001D01*
G75*
G02*
X92348501Y-86722000I-249999J0D01*
G01*
X90658499Y-86722000D01*
G75*
G02*
X90408500Y-86472001I0J249999D01*
G01*
X90408500Y-85231999D01*
G75*
G02*
X90658499Y-84982000I249999J0D01*
G01*
G37*
D14*
X91503500Y-88392000D03*
%TD*%
D15*
%TO.C,J2*%
X109728000Y-74168000D03*
D16*
X109728000Y-79248000D03*
%TD*%
D14*
%TO.C,J3*%
X101092000Y-88392000D03*
G36*
G01*
X100246999Y-84982000D02*
X101937001Y-84982000D01*
G75*
G02*
X102187000Y-85231999I0J-249999D01*
G01*
X102187000Y-86472001D01*
G75*
G02*
X101937001Y-86722000I-249999J0D01*
G01*
X100246999Y-86722000D01*
G75*
G02*
X99997000Y-86472001I0J249999D01*
G01*
X99997000Y-85231999D01*
G75*
G02*
X100246999Y-84982000I249999J0D01*
G01*
G37*
%TD*%
D16*
%TO.C,J4*%
X109728000Y-67056000D03*
D15*
X109728000Y-61976000D03*
%TD*%
D17*
%TO.C,J5*%
X61087000Y-87376000D03*
%TD*%
%TO.C,J6*%
X50609500Y-30035500D03*
%TD*%
%TO.C,J8*%
X50292000Y-74993500D03*
D18*
X50292000Y-77533500D03*
X50292000Y-80073500D03*
X50292000Y-82613500D03*
X50292000Y-85153500D03*
%TD*%
D16*
%TO.C,J9*%
X109728000Y-51562000D03*
D15*
X109728000Y-46482000D03*
X109728000Y-41402000D03*
X109728000Y-36322000D03*
%TD*%
D19*
%TO.C,RV10k1*%
X59880500Y-37274500D03*
X57340500Y-37274500D03*
X54800500Y-37274500D03*
%TD*%
D20*
%TO.C,SW1*%
X47688500Y-41084500D03*
D21*
X45148500Y-48704500D03*
X45148500Y-41084500D03*
X47688500Y-48704500D03*
%TD*%
D22*
%TO.C,U1*%
X94107000Y-73533000D03*
D23*
X94107000Y-76073000D03*
X94107000Y-78613000D03*
%TD*%
D24*
%TO.C,Y1*%
X60706000Y-78613000D03*
X65586000Y-78613000D03*
%TD*%
M02*
