%FSLAX45Y45*%
G04 Gerber Fmt 4.5, Leading zero omitted, Abs format (unit mm)*
G04 Created by KiCad (PCBNEW (5.1.10)-1) date 2022-05-23 16:09:33*
%MOMM*%
%LPD*%
G01*
G04 APERTURE LIST*
%TA.AperFunction,Profile*%
%ADD10C,0.050000*%
%TD*%
%ADD11C,0.200000*%
%ADD12C,0.300000*%
G04 APERTURE END LIST*
D10*
X3930650Y-2495550D02*
X3930650Y-2520950D01*
X11595100Y-2495550D02*
X3930650Y-2495550D01*
X3930650Y-2552700D02*
X3930650Y-2520950D01*
X3930650Y-9144000D02*
X3930650Y-2552700D01*
X11595100Y-9144000D02*
X3930650Y-9144000D01*
X11595100Y-2495550D02*
X11595100Y-9144000D01*
D11*
X6797600Y-3241600D02*
X6867600Y-3311600D01*
X6867600Y-3241600D02*
X6797600Y-3311600D01*
X7515150Y-3387650D02*
X7585150Y-3457650D01*
X7585150Y-3387650D02*
X7515150Y-3457650D01*
X7953300Y-5000550D02*
X8023300Y-5070550D01*
X8023300Y-5000550D02*
X7953300Y-5070550D01*
X8372400Y-3673400D02*
X8442400Y-3743400D01*
X8442400Y-3673400D02*
X8372400Y-3743400D01*
X8639100Y-4232200D02*
X8709100Y-4302200D01*
X8709100Y-4232200D02*
X8639100Y-4302200D01*
X8639100Y-4359200D02*
X8709100Y-4429200D01*
X8709100Y-4359200D02*
X8639100Y-4429200D01*
X8639100Y-4486200D02*
X8709100Y-4556200D01*
X8709100Y-4486200D02*
X8639100Y-4556200D01*
X8893100Y-4105200D02*
X8963100Y-4175200D01*
X8963100Y-4105200D02*
X8893100Y-4175200D01*
X8893100Y-4232200D02*
X8963100Y-4302200D01*
X8963100Y-4232200D02*
X8893100Y-4302200D01*
X8893100Y-4359200D02*
X8963100Y-4429200D01*
X8963100Y-4359200D02*
X8893100Y-4429200D01*
X8893100Y-4486200D02*
X8963100Y-4556200D01*
X8963100Y-4486200D02*
X8893100Y-4556200D01*
X8893100Y-4613200D02*
X8963100Y-4683200D01*
X8963100Y-4613200D02*
X8893100Y-4683200D01*
X9083600Y-5222800D02*
X9153600Y-5292800D01*
X9153600Y-5222800D02*
X9083600Y-5292800D01*
X9147100Y-4105200D02*
X9217100Y-4175200D01*
X9217100Y-4105200D02*
X9147100Y-4175200D01*
X9147100Y-4232200D02*
X9217100Y-4302200D01*
X9217100Y-4232200D02*
X9147100Y-4302200D01*
X9147100Y-4359200D02*
X9217100Y-4429200D01*
X9217100Y-4359200D02*
X9147100Y-4429200D01*
X9147100Y-4486200D02*
X9217100Y-4556200D01*
X9217100Y-4486200D02*
X9147100Y-4556200D01*
X9147100Y-4613200D02*
X9217100Y-4683200D01*
X9217100Y-4613200D02*
X9147100Y-4683200D01*
X9159800Y-3498900D02*
X9229800Y-3568900D01*
X9229800Y-3498900D02*
X9159800Y-3568900D01*
X9159800Y-5489500D02*
X9229800Y-5559500D01*
X9229800Y-5489500D02*
X9159800Y-5559500D01*
X9185200Y-3228900D02*
X9255200Y-3298900D01*
X9255200Y-3228900D02*
X9185200Y-3298900D01*
X9401100Y-4105200D02*
X9471100Y-4175200D01*
X9471100Y-4105200D02*
X9401100Y-4175200D01*
X9401100Y-4232200D02*
X9471100Y-4302200D01*
X9471100Y-4232200D02*
X9401100Y-4302200D01*
X9401100Y-4359200D02*
X9471100Y-4429200D01*
X9471100Y-4359200D02*
X9401100Y-4429200D01*
X9401100Y-4486200D02*
X9471100Y-4556200D01*
X9471100Y-4486200D02*
X9401100Y-4556200D01*
X9401100Y-4613200D02*
X9471100Y-4683200D01*
X9471100Y-4613200D02*
X9401100Y-4683200D01*
X9642400Y-5680000D02*
X9712400Y-5750000D01*
X9712400Y-5680000D02*
X9642400Y-5750000D01*
X9648750Y-2955850D02*
X9718750Y-3025850D01*
X9718750Y-2955850D02*
X9648750Y-3025850D01*
X9655100Y-4232200D02*
X9725100Y-4302200D01*
X9725100Y-4232200D02*
X9655100Y-4302200D01*
X9655100Y-4359200D02*
X9725100Y-4429200D01*
X9725100Y-4359200D02*
X9655100Y-4429200D01*
X9655100Y-4486200D02*
X9725100Y-4556200D01*
X9725100Y-4486200D02*
X9655100Y-4556200D01*
X4415150Y-6013450D02*
G75*
G03*
X4415150Y-6013450I-40000J0D01*
G01*
X4415150Y-6775450D02*
G75*
G03*
X4415150Y-6775450I-40000J0D01*
G01*
X4554850Y-4108450D02*
G75*
G03*
X4554850Y-4108450I-40000J0D01*
G01*
X4554850Y-4870450D02*
G75*
G03*
X4554850Y-4870450I-40000J0D01*
G01*
X4669150Y-6013450D02*
G75*
G03*
X4669150Y-6013450I-40000J0D01*
G01*
X4669150Y-6775450D02*
G75*
G03*
X4669150Y-6775450I-40000J0D01*
G01*
X4808850Y-4108450D02*
G75*
G03*
X4808850Y-4108450I-40000J0D01*
G01*
X4808850Y-4870450D02*
G75*
G03*
X4808850Y-4870450I-40000J0D01*
G01*
X4923150Y-6013450D02*
G75*
G03*
X4923150Y-6013450I-40000J0D01*
G01*
X4923150Y-6775450D02*
G75*
G03*
X4923150Y-6775450I-40000J0D01*
G01*
X5177150Y-6013450D02*
G75*
G03*
X5177150Y-6013450I-40000J0D01*
G01*
X5177150Y-6775450D02*
G75*
G03*
X5177150Y-6775450I-40000J0D01*
G01*
X5431150Y-6013450D02*
G75*
G03*
X5431150Y-6013450I-40000J0D01*
G01*
X5431150Y-6775450D02*
G75*
G03*
X5431150Y-6775450I-40000J0D01*
G01*
X5520050Y-3727450D02*
G75*
G03*
X5520050Y-3727450I-40000J0D01*
G01*
X5685150Y-6013450D02*
G75*
G03*
X5685150Y-6013450I-40000J0D01*
G01*
X5685150Y-6775450D02*
G75*
G03*
X5685150Y-6775450I-40000J0D01*
G01*
X5774050Y-3727450D02*
G75*
G03*
X5774050Y-3727450I-40000J0D01*
G01*
X5939150Y-6013450D02*
G75*
G03*
X5939150Y-6013450I-40000J0D01*
G01*
X5939150Y-6775450D02*
G75*
G03*
X5939150Y-6775450I-40000J0D01*
G01*
X6028050Y-3727450D02*
G75*
G03*
X6028050Y-3727450I-40000J0D01*
G01*
X6110600Y-7861300D02*
G75*
G03*
X6110600Y-7861300I-40000J0D01*
G01*
X6193150Y-6013450D02*
G75*
G03*
X6193150Y-6013450I-40000J0D01*
G01*
X6193150Y-6775450D02*
G75*
G03*
X6193150Y-6775450I-40000J0D01*
G01*
X6447150Y-6013450D02*
G75*
G03*
X6447150Y-6013450I-40000J0D01*
G01*
X6447150Y-6775450D02*
G75*
G03*
X6447150Y-6775450I-40000J0D01*
G01*
X6598600Y-7861300D02*
G75*
G03*
X6598600Y-7861300I-40000J0D01*
G01*
X6701150Y-6013450D02*
G75*
G03*
X6701150Y-6013450I-40000J0D01*
G01*
X6701150Y-6775450D02*
G75*
G03*
X6701150Y-6775450I-40000J0D01*
G01*
X6955150Y-6013450D02*
G75*
G03*
X6955150Y-6013450I-40000J0D01*
G01*
X6955150Y-6775450D02*
G75*
G03*
X6955150Y-6775450I-40000J0D01*
G01*
X7209150Y-6013450D02*
G75*
G03*
X7209150Y-6013450I-40000J0D01*
G01*
X7209150Y-6775450D02*
G75*
G03*
X7209150Y-6775450I-40000J0D01*
G01*
X7310750Y-7740650D02*
G75*
G03*
X7310750Y-7740650I-40000J0D01*
G01*
X7310750Y-8502650D02*
G75*
G03*
X7310750Y-8502650I-40000J0D01*
G01*
X7463150Y-6013450D02*
G75*
G03*
X7463150Y-6013450I-40000J0D01*
G01*
X7463150Y-6775450D02*
G75*
G03*
X7463150Y-6775450I-40000J0D01*
G01*
X7564750Y-7740650D02*
G75*
G03*
X7564750Y-7740650I-40000J0D01*
G01*
X7564750Y-8502650D02*
G75*
G03*
X7564750Y-8502650I-40000J0D01*
G01*
X7717150Y-6013450D02*
G75*
G03*
X7717150Y-6013450I-40000J0D01*
G01*
X7717150Y-6775450D02*
G75*
G03*
X7717150Y-6775450I-40000J0D01*
G01*
X7818750Y-7740650D02*
G75*
G03*
X7818750Y-7740650I-40000J0D01*
G01*
X7818750Y-8502650D02*
G75*
G03*
X7818750Y-8502650I-40000J0D01*
G01*
X8072750Y-7740650D02*
G75*
G03*
X8072750Y-7740650I-40000J0D01*
G01*
X8072750Y-8502650D02*
G75*
G03*
X8072750Y-8502650I-40000J0D01*
G01*
X5029200Y-7449350D02*
X5029200Y-7549350D01*
X4979200Y-7499350D02*
X5079200Y-7499350D01*
X5029200Y-7703350D02*
X5029200Y-7803350D01*
X4979200Y-7753350D02*
X5079200Y-7753350D01*
X5029200Y-7957350D02*
X5029200Y-8057350D01*
X4979200Y-8007350D02*
X5079200Y-8007350D01*
X5029200Y-8211350D02*
X5029200Y-8311350D01*
X4979200Y-8261350D02*
X5079200Y-8261350D01*
X5029200Y-8465350D02*
X5029200Y-8565350D01*
X4979200Y-8515350D02*
X5079200Y-8515350D01*
X5060950Y-2953550D02*
X5060950Y-3053550D01*
X5010950Y-3003550D02*
X5110950Y-3003550D01*
X6108700Y-8687600D02*
X6108700Y-8787600D01*
X6058700Y-8737600D02*
X6158700Y-8737600D01*
X9410700Y-7303300D02*
X9410700Y-7403300D01*
X9360700Y-7353300D02*
X9460700Y-7353300D01*
X9410700Y-7557300D02*
X9410700Y-7657300D01*
X9360700Y-7607300D02*
X9460700Y-7607300D01*
X9410700Y-7811300D02*
X9410700Y-7911300D01*
X9360700Y-7861300D02*
X9460700Y-7861300D01*
X9192423Y-8627273D02*
X9192423Y-8543127D01*
X9108277Y-8543127D01*
X9108277Y-8627273D01*
X9192423Y-8627273D01*
X9192423Y-8881273D02*
X9192423Y-8797127D01*
X9108277Y-8797127D01*
X9108277Y-8881273D01*
X9192423Y-8881273D01*
X10151273Y-8627273D02*
X10151273Y-8543127D01*
X10067127Y-8543127D01*
X10067127Y-8627273D01*
X10151273Y-8627273D01*
X10151273Y-8881273D02*
X10151273Y-8797127D01*
X10067127Y-8797127D01*
X10067127Y-8881273D01*
X10151273Y-8881273D01*
X10972800Y-3697200D02*
X11037800Y-3632200D01*
X10972800Y-3567200D01*
X10907800Y-3632200D01*
X10972800Y-3697200D01*
X10972800Y-4205200D02*
X11037800Y-4140200D01*
X10972800Y-4075200D01*
X10907800Y-4140200D01*
X10972800Y-4205200D01*
X10972800Y-4713200D02*
X11037800Y-4648200D01*
X10972800Y-4583200D01*
X10907800Y-4648200D01*
X10972800Y-4713200D01*
X10972800Y-5221200D02*
X11037800Y-5156200D01*
X10972800Y-5091200D01*
X10907800Y-5156200D01*
X10972800Y-5221200D01*
X10972800Y-6262600D02*
X11037800Y-6197600D01*
X10972800Y-6132600D01*
X10907800Y-6197600D01*
X10972800Y-6262600D01*
X10972800Y-6770600D02*
X11037800Y-6705600D01*
X10972800Y-6640600D01*
X10907800Y-6705600D01*
X10972800Y-6770600D01*
X10972800Y-7481800D02*
X11037800Y-7416800D01*
X10972800Y-7351800D01*
X10907800Y-7416800D01*
X10972800Y-7481800D01*
X10972800Y-7989800D02*
X11037800Y-7924800D01*
X10972800Y-7859800D01*
X10907800Y-7924800D01*
X10972800Y-7989800D01*
D12*
X4214578Y-9612214D02*
X4214578Y-9312214D01*
X4286007Y-9312214D01*
X4328864Y-9326500D01*
X4357436Y-9355072D01*
X4371721Y-9383643D01*
X4386007Y-9440786D01*
X4386007Y-9483643D01*
X4371721Y-9540786D01*
X4357436Y-9569357D01*
X4328864Y-9597929D01*
X4286007Y-9612214D01*
X4214578Y-9612214D01*
X4514578Y-9612214D02*
X4514578Y-9412214D01*
X4514578Y-9469357D02*
X4528864Y-9440786D01*
X4543150Y-9426500D01*
X4571721Y-9412214D01*
X4600293Y-9412214D01*
X4700293Y-9612214D02*
X4700293Y-9412214D01*
X4700293Y-9312214D02*
X4686007Y-9326500D01*
X4700293Y-9340786D01*
X4714578Y-9326500D01*
X4700293Y-9312214D01*
X4700293Y-9340786D01*
X4886007Y-9612214D02*
X4857436Y-9597929D01*
X4843150Y-9569357D01*
X4843150Y-9312214D01*
X5043150Y-9612214D02*
X5014578Y-9597929D01*
X5000293Y-9569357D01*
X5000293Y-9312214D01*
X5386007Y-9612214D02*
X5386007Y-9312214D01*
X5486007Y-9526500D01*
X5586007Y-9312214D01*
X5586007Y-9612214D01*
X5857436Y-9612214D02*
X5857436Y-9455072D01*
X5843150Y-9426500D01*
X5814578Y-9412214D01*
X5757436Y-9412214D01*
X5728864Y-9426500D01*
X5857436Y-9597929D02*
X5828864Y-9612214D01*
X5757436Y-9612214D01*
X5728864Y-9597929D01*
X5714578Y-9569357D01*
X5714578Y-9540786D01*
X5728864Y-9512214D01*
X5757436Y-9497929D01*
X5828864Y-9497929D01*
X5857436Y-9483643D01*
X6000293Y-9412214D02*
X6000293Y-9712214D01*
X6000293Y-9426500D02*
X6028864Y-9412214D01*
X6086007Y-9412214D01*
X6114578Y-9426500D01*
X6128864Y-9440786D01*
X6143150Y-9469357D01*
X6143150Y-9555072D01*
X6128864Y-9583643D01*
X6114578Y-9597929D01*
X6086007Y-9612214D01*
X6028864Y-9612214D01*
X6000293Y-9597929D01*
X6271721Y-9583643D02*
X6286007Y-9597929D01*
X6271721Y-9612214D01*
X6257436Y-9597929D01*
X6271721Y-9583643D01*
X6271721Y-9612214D01*
X6271721Y-9426500D02*
X6286007Y-9440786D01*
X6271721Y-9455072D01*
X6257436Y-9440786D01*
X6271721Y-9426500D01*
X6271721Y-9455072D01*
X3858150Y-10071500D02*
X3928150Y-10141500D01*
X3928150Y-10071500D02*
X3858150Y-10141500D01*
X4271721Y-9942214D02*
X4300293Y-9942214D01*
X4328864Y-9956500D01*
X4343150Y-9970786D01*
X4357436Y-9999357D01*
X4371721Y-10056500D01*
X4371721Y-10127929D01*
X4357436Y-10185072D01*
X4343150Y-10213643D01*
X4328864Y-10227929D01*
X4300293Y-10242214D01*
X4271721Y-10242214D01*
X4243150Y-10227929D01*
X4228864Y-10213643D01*
X4214578Y-10185072D01*
X4200293Y-10127929D01*
X4200293Y-10056500D01*
X4214578Y-9999357D01*
X4228864Y-9970786D01*
X4243150Y-9956500D01*
X4271721Y-9942214D01*
X4500293Y-10213643D02*
X4514578Y-10227929D01*
X4500293Y-10242214D01*
X4486007Y-10227929D01*
X4500293Y-10213643D01*
X4500293Y-10242214D01*
X4614578Y-9942214D02*
X4814578Y-9942214D01*
X4686007Y-10242214D01*
X4986007Y-9942214D02*
X5014578Y-9942214D01*
X5043150Y-9956500D01*
X5057436Y-9970786D01*
X5071721Y-9999357D01*
X5086007Y-10056500D01*
X5086007Y-10127929D01*
X5071721Y-10185072D01*
X5057436Y-10213643D01*
X5043150Y-10227929D01*
X5014578Y-10242214D01*
X4986007Y-10242214D01*
X4957436Y-10227929D01*
X4943150Y-10213643D01*
X4928864Y-10185072D01*
X4914578Y-10127929D01*
X4914578Y-10056500D01*
X4928864Y-9999357D01*
X4943150Y-9970786D01*
X4957436Y-9956500D01*
X4986007Y-9942214D01*
X5271721Y-9942214D02*
X5300293Y-9942214D01*
X5328864Y-9956500D01*
X5343150Y-9970786D01*
X5357436Y-9999357D01*
X5371721Y-10056500D01*
X5371721Y-10127929D01*
X5357436Y-10185072D01*
X5343150Y-10213643D01*
X5328864Y-10227929D01*
X5300293Y-10242214D01*
X5271721Y-10242214D01*
X5243150Y-10227929D01*
X5228864Y-10213643D01*
X5214578Y-10185072D01*
X5200293Y-10127929D01*
X5200293Y-10056500D01*
X5214578Y-9999357D01*
X5228864Y-9970786D01*
X5243150Y-9956500D01*
X5271721Y-9942214D01*
X5500293Y-10242214D02*
X5500293Y-10042214D01*
X5500293Y-10070786D02*
X5514578Y-10056500D01*
X5543150Y-10042214D01*
X5586007Y-10042214D01*
X5614578Y-10056500D01*
X5628864Y-10085072D01*
X5628864Y-10242214D01*
X5628864Y-10085072D02*
X5643150Y-10056500D01*
X5671721Y-10042214D01*
X5714578Y-10042214D01*
X5743150Y-10056500D01*
X5757436Y-10085072D01*
X5757436Y-10242214D01*
X5900293Y-10242214D02*
X5900293Y-10042214D01*
X5900293Y-10070786D02*
X5914578Y-10056500D01*
X5943150Y-10042214D01*
X5986007Y-10042214D01*
X6014578Y-10056500D01*
X6028864Y-10085072D01*
X6028864Y-10242214D01*
X6028864Y-10085072D02*
X6043150Y-10056500D01*
X6071721Y-10042214D01*
X6114578Y-10042214D01*
X6143150Y-10056500D01*
X6157436Y-10085072D01*
X6157436Y-10242214D01*
X6743150Y-9927929D02*
X6486007Y-10313643D01*
X7128864Y-9942214D02*
X7157436Y-9942214D01*
X7186007Y-9956500D01*
X7200293Y-9970786D01*
X7214578Y-9999357D01*
X7228864Y-10056500D01*
X7228864Y-10127929D01*
X7214578Y-10185072D01*
X7200293Y-10213643D01*
X7186007Y-10227929D01*
X7157436Y-10242214D01*
X7128864Y-10242214D01*
X7100293Y-10227929D01*
X7086007Y-10213643D01*
X7071721Y-10185072D01*
X7057436Y-10127929D01*
X7057436Y-10056500D01*
X7071721Y-9999357D01*
X7086007Y-9970786D01*
X7100293Y-9956500D01*
X7128864Y-9942214D01*
X7357436Y-10213643D02*
X7371721Y-10227929D01*
X7357436Y-10242214D01*
X7343150Y-10227929D01*
X7357436Y-10213643D01*
X7357436Y-10242214D01*
X7557436Y-9942214D02*
X7586007Y-9942214D01*
X7614578Y-9956500D01*
X7628864Y-9970786D01*
X7643150Y-9999357D01*
X7657436Y-10056500D01*
X7657436Y-10127929D01*
X7643150Y-10185072D01*
X7628864Y-10213643D01*
X7614578Y-10227929D01*
X7586007Y-10242214D01*
X7557436Y-10242214D01*
X7528864Y-10227929D01*
X7514578Y-10213643D01*
X7500293Y-10185072D01*
X7486007Y-10127929D01*
X7486007Y-10056500D01*
X7500293Y-9999357D01*
X7514578Y-9970786D01*
X7528864Y-9956500D01*
X7557436Y-9942214D01*
X7771721Y-9970786D02*
X7786007Y-9956500D01*
X7814578Y-9942214D01*
X7886007Y-9942214D01*
X7914578Y-9956500D01*
X7928864Y-9970786D01*
X7943150Y-9999357D01*
X7943150Y-10027929D01*
X7928864Y-10070786D01*
X7757436Y-10242214D01*
X7943150Y-10242214D01*
X8043150Y-9942214D02*
X8243150Y-9942214D01*
X8114578Y-10242214D01*
X8486007Y-9942214D02*
X8428864Y-9942214D01*
X8400293Y-9956500D01*
X8386007Y-9970786D01*
X8357436Y-10013643D01*
X8343150Y-10070786D01*
X8343150Y-10185072D01*
X8357436Y-10213643D01*
X8371721Y-10227929D01*
X8400293Y-10242214D01*
X8457436Y-10242214D01*
X8486007Y-10227929D01*
X8500293Y-10213643D01*
X8514578Y-10185072D01*
X8514578Y-10113643D01*
X8500293Y-10085072D01*
X8486007Y-10070786D01*
X8457436Y-10056500D01*
X8400293Y-10056500D01*
X8371721Y-10070786D01*
X8357436Y-10085072D01*
X8343150Y-10113643D01*
X8628864Y-9942214D02*
X8628864Y-9999357D01*
X8743150Y-9942214D02*
X8743150Y-9999357D01*
X9186007Y-10356500D02*
X9171721Y-10342214D01*
X9143150Y-10299357D01*
X9128864Y-10270786D01*
X9114578Y-10227929D01*
X9100293Y-10156500D01*
X9100293Y-10099357D01*
X9114578Y-10027929D01*
X9128864Y-9985072D01*
X9143150Y-9956500D01*
X9171721Y-9913643D01*
X9186007Y-9899357D01*
X9271721Y-9942214D02*
X9457436Y-9942214D01*
X9357436Y-10056500D01*
X9400293Y-10056500D01*
X9428864Y-10070786D01*
X9443150Y-10085072D01*
X9457436Y-10113643D01*
X9457436Y-10185072D01*
X9443150Y-10213643D01*
X9428864Y-10227929D01*
X9400293Y-10242214D01*
X9314578Y-10242214D01*
X9286007Y-10227929D01*
X9271721Y-10213643D01*
X9743150Y-10242214D02*
X9571721Y-10242214D01*
X9657436Y-10242214D02*
X9657436Y-9942214D01*
X9628864Y-9985072D01*
X9600293Y-10013643D01*
X9571721Y-10027929D01*
X10100293Y-10242214D02*
X10100293Y-9942214D01*
X10228864Y-10242214D02*
X10228864Y-10085072D01*
X10214578Y-10056500D01*
X10186007Y-10042214D01*
X10143150Y-10042214D01*
X10114578Y-10056500D01*
X10100293Y-10070786D01*
X10414578Y-10242214D02*
X10386007Y-10227929D01*
X10371721Y-10213643D01*
X10357436Y-10185072D01*
X10357436Y-10099357D01*
X10371721Y-10070786D01*
X10386007Y-10056500D01*
X10414578Y-10042214D01*
X10457436Y-10042214D01*
X10486007Y-10056500D01*
X10500293Y-10070786D01*
X10514578Y-10099357D01*
X10514578Y-10185072D01*
X10500293Y-10213643D01*
X10486007Y-10227929D01*
X10457436Y-10242214D01*
X10414578Y-10242214D01*
X10686007Y-10242214D02*
X10657436Y-10227929D01*
X10643150Y-10199357D01*
X10643150Y-9942214D01*
X10914578Y-10227929D02*
X10886007Y-10242214D01*
X10828864Y-10242214D01*
X10800293Y-10227929D01*
X10786007Y-10199357D01*
X10786007Y-10085072D01*
X10800293Y-10056500D01*
X10828864Y-10042214D01*
X10886007Y-10042214D01*
X10914578Y-10056500D01*
X10928864Y-10085072D01*
X10928864Y-10113643D01*
X10786007Y-10142214D01*
X11043150Y-10227929D02*
X11071721Y-10242214D01*
X11128864Y-10242214D01*
X11157436Y-10227929D01*
X11171721Y-10199357D01*
X11171721Y-10185072D01*
X11157436Y-10156500D01*
X11128864Y-10142214D01*
X11086007Y-10142214D01*
X11057436Y-10127929D01*
X11043150Y-10099357D01*
X11043150Y-10085072D01*
X11057436Y-10056500D01*
X11086007Y-10042214D01*
X11128864Y-10042214D01*
X11157436Y-10056500D01*
X11271721Y-10356500D02*
X11286007Y-10342214D01*
X11314578Y-10299357D01*
X11328864Y-10270786D01*
X11343150Y-10227929D01*
X11357436Y-10156500D01*
X11357436Y-10099357D01*
X11343150Y-10027929D01*
X11328864Y-9985072D01*
X11314578Y-9956500D01*
X11286007Y-9913643D01*
X11271721Y-9899357D01*
X3928150Y-10502500D02*
G75*
G03*
X3928150Y-10502500I-40000J0D01*
G01*
X4271721Y-10338214D02*
X4300293Y-10338214D01*
X4328864Y-10352500D01*
X4343150Y-10366786D01*
X4357436Y-10395357D01*
X4371721Y-10452500D01*
X4371721Y-10523929D01*
X4357436Y-10581072D01*
X4343150Y-10609643D01*
X4328864Y-10623929D01*
X4300293Y-10638214D01*
X4271721Y-10638214D01*
X4243150Y-10623929D01*
X4228864Y-10609643D01*
X4214578Y-10581072D01*
X4200293Y-10523929D01*
X4200293Y-10452500D01*
X4214578Y-10395357D01*
X4228864Y-10366786D01*
X4243150Y-10352500D01*
X4271721Y-10338214D01*
X4500293Y-10609643D02*
X4514578Y-10623929D01*
X4500293Y-10638214D01*
X4486007Y-10623929D01*
X4500293Y-10609643D01*
X4500293Y-10638214D01*
X4686007Y-10466786D02*
X4657436Y-10452500D01*
X4643150Y-10438214D01*
X4628864Y-10409643D01*
X4628864Y-10395357D01*
X4643150Y-10366786D01*
X4657436Y-10352500D01*
X4686007Y-10338214D01*
X4743150Y-10338214D01*
X4771721Y-10352500D01*
X4786007Y-10366786D01*
X4800293Y-10395357D01*
X4800293Y-10409643D01*
X4786007Y-10438214D01*
X4771721Y-10452500D01*
X4743150Y-10466786D01*
X4686007Y-10466786D01*
X4657436Y-10481072D01*
X4643150Y-10495357D01*
X4628864Y-10523929D01*
X4628864Y-10581072D01*
X4643150Y-10609643D01*
X4657436Y-10623929D01*
X4686007Y-10638214D01*
X4743150Y-10638214D01*
X4771721Y-10623929D01*
X4786007Y-10609643D01*
X4800293Y-10581072D01*
X4800293Y-10523929D01*
X4786007Y-10495357D01*
X4771721Y-10481072D01*
X4743150Y-10466786D01*
X4986007Y-10338214D02*
X5014578Y-10338214D01*
X5043150Y-10352500D01*
X5057436Y-10366786D01*
X5071721Y-10395357D01*
X5086007Y-10452500D01*
X5086007Y-10523929D01*
X5071721Y-10581072D01*
X5057436Y-10609643D01*
X5043150Y-10623929D01*
X5014578Y-10638214D01*
X4986007Y-10638214D01*
X4957436Y-10623929D01*
X4943150Y-10609643D01*
X4928864Y-10581072D01*
X4914578Y-10523929D01*
X4914578Y-10452500D01*
X4928864Y-10395357D01*
X4943150Y-10366786D01*
X4957436Y-10352500D01*
X4986007Y-10338214D01*
X5271721Y-10338214D02*
X5300293Y-10338214D01*
X5328864Y-10352500D01*
X5343150Y-10366786D01*
X5357436Y-10395357D01*
X5371721Y-10452500D01*
X5371721Y-10523929D01*
X5357436Y-10581072D01*
X5343150Y-10609643D01*
X5328864Y-10623929D01*
X5300293Y-10638214D01*
X5271721Y-10638214D01*
X5243150Y-10623929D01*
X5228864Y-10609643D01*
X5214578Y-10581072D01*
X5200293Y-10523929D01*
X5200293Y-10452500D01*
X5214578Y-10395357D01*
X5228864Y-10366786D01*
X5243150Y-10352500D01*
X5271721Y-10338214D01*
X5500293Y-10638214D02*
X5500293Y-10438214D01*
X5500293Y-10466786D02*
X5514578Y-10452500D01*
X5543150Y-10438214D01*
X5586007Y-10438214D01*
X5614578Y-10452500D01*
X5628864Y-10481072D01*
X5628864Y-10638214D01*
X5628864Y-10481072D02*
X5643150Y-10452500D01*
X5671721Y-10438214D01*
X5714578Y-10438214D01*
X5743150Y-10452500D01*
X5757436Y-10481072D01*
X5757436Y-10638214D01*
X5900293Y-10638214D02*
X5900293Y-10438214D01*
X5900293Y-10466786D02*
X5914578Y-10452500D01*
X5943150Y-10438214D01*
X5986007Y-10438214D01*
X6014578Y-10452500D01*
X6028864Y-10481072D01*
X6028864Y-10638214D01*
X6028864Y-10481072D02*
X6043150Y-10452500D01*
X6071721Y-10438214D01*
X6114578Y-10438214D01*
X6143150Y-10452500D01*
X6157436Y-10481072D01*
X6157436Y-10638214D01*
X6743150Y-10323929D02*
X6486007Y-10709643D01*
X7128864Y-10338214D02*
X7157436Y-10338214D01*
X7186007Y-10352500D01*
X7200293Y-10366786D01*
X7214578Y-10395357D01*
X7228864Y-10452500D01*
X7228864Y-10523929D01*
X7214578Y-10581072D01*
X7200293Y-10609643D01*
X7186007Y-10623929D01*
X7157436Y-10638214D01*
X7128864Y-10638214D01*
X7100293Y-10623929D01*
X7086007Y-10609643D01*
X7071721Y-10581072D01*
X7057436Y-10523929D01*
X7057436Y-10452500D01*
X7071721Y-10395357D01*
X7086007Y-10366786D01*
X7100293Y-10352500D01*
X7128864Y-10338214D01*
X7357436Y-10609643D02*
X7371721Y-10623929D01*
X7357436Y-10638214D01*
X7343150Y-10623929D01*
X7357436Y-10609643D01*
X7357436Y-10638214D01*
X7557436Y-10338214D02*
X7586007Y-10338214D01*
X7614578Y-10352500D01*
X7628864Y-10366786D01*
X7643150Y-10395357D01*
X7657436Y-10452500D01*
X7657436Y-10523929D01*
X7643150Y-10581072D01*
X7628864Y-10609643D01*
X7614578Y-10623929D01*
X7586007Y-10638214D01*
X7557436Y-10638214D01*
X7528864Y-10623929D01*
X7514578Y-10609643D01*
X7500293Y-10581072D01*
X7486007Y-10523929D01*
X7486007Y-10452500D01*
X7500293Y-10395357D01*
X7514578Y-10366786D01*
X7528864Y-10352500D01*
X7557436Y-10338214D01*
X7757436Y-10338214D02*
X7943150Y-10338214D01*
X7843150Y-10452500D01*
X7886007Y-10452500D01*
X7914578Y-10466786D01*
X7928864Y-10481072D01*
X7943150Y-10509643D01*
X7943150Y-10581072D01*
X7928864Y-10609643D01*
X7914578Y-10623929D01*
X7886007Y-10638214D01*
X7800293Y-10638214D01*
X7771721Y-10623929D01*
X7757436Y-10609643D01*
X8228864Y-10638214D02*
X8057436Y-10638214D01*
X8143150Y-10638214D02*
X8143150Y-10338214D01*
X8114578Y-10381072D01*
X8086007Y-10409643D01*
X8057436Y-10423929D01*
X8500293Y-10338214D02*
X8357436Y-10338214D01*
X8343150Y-10481072D01*
X8357436Y-10466786D01*
X8386007Y-10452500D01*
X8457436Y-10452500D01*
X8486007Y-10466786D01*
X8500293Y-10481072D01*
X8514578Y-10509643D01*
X8514578Y-10581072D01*
X8500293Y-10609643D01*
X8486007Y-10623929D01*
X8457436Y-10638214D01*
X8386007Y-10638214D01*
X8357436Y-10623929D01*
X8343150Y-10609643D01*
X8628864Y-10338214D02*
X8628864Y-10395357D01*
X8743150Y-10338214D02*
X8743150Y-10395357D01*
X9186007Y-10752500D02*
X9171721Y-10738214D01*
X9143150Y-10695357D01*
X9128864Y-10666786D01*
X9114578Y-10623929D01*
X9100293Y-10552500D01*
X9100293Y-10495357D01*
X9114578Y-10423929D01*
X9128864Y-10381072D01*
X9143150Y-10352500D01*
X9171721Y-10309643D01*
X9186007Y-10295357D01*
X9428864Y-10438214D02*
X9428864Y-10638214D01*
X9357436Y-10323929D02*
X9286007Y-10538214D01*
X9471721Y-10538214D01*
X9728864Y-10338214D02*
X9586007Y-10338214D01*
X9571721Y-10481072D01*
X9586007Y-10466786D01*
X9614578Y-10452500D01*
X9686007Y-10452500D01*
X9714578Y-10466786D01*
X9728864Y-10481072D01*
X9743150Y-10509643D01*
X9743150Y-10581072D01*
X9728864Y-10609643D01*
X9714578Y-10623929D01*
X9686007Y-10638214D01*
X9614578Y-10638214D01*
X9586007Y-10623929D01*
X9571721Y-10609643D01*
X10100293Y-10638214D02*
X10100293Y-10338214D01*
X10228864Y-10638214D02*
X10228864Y-10481072D01*
X10214578Y-10452500D01*
X10186007Y-10438214D01*
X10143150Y-10438214D01*
X10114578Y-10452500D01*
X10100293Y-10466786D01*
X10414578Y-10638214D02*
X10386007Y-10623929D01*
X10371721Y-10609643D01*
X10357436Y-10581072D01*
X10357436Y-10495357D01*
X10371721Y-10466786D01*
X10386007Y-10452500D01*
X10414578Y-10438214D01*
X10457436Y-10438214D01*
X10486007Y-10452500D01*
X10500293Y-10466786D01*
X10514578Y-10495357D01*
X10514578Y-10581072D01*
X10500293Y-10609643D01*
X10486007Y-10623929D01*
X10457436Y-10638214D01*
X10414578Y-10638214D01*
X10686007Y-10638214D02*
X10657436Y-10623929D01*
X10643150Y-10595357D01*
X10643150Y-10338214D01*
X10914578Y-10623929D02*
X10886007Y-10638214D01*
X10828864Y-10638214D01*
X10800293Y-10623929D01*
X10786007Y-10595357D01*
X10786007Y-10481072D01*
X10800293Y-10452500D01*
X10828864Y-10438214D01*
X10886007Y-10438214D01*
X10914578Y-10452500D01*
X10928864Y-10481072D01*
X10928864Y-10509643D01*
X10786007Y-10538214D01*
X11043150Y-10623929D02*
X11071721Y-10638214D01*
X11128864Y-10638214D01*
X11157436Y-10623929D01*
X11171721Y-10595357D01*
X11171721Y-10581072D01*
X11157436Y-10552500D01*
X11128864Y-10538214D01*
X11086007Y-10538214D01*
X11057436Y-10523929D01*
X11043150Y-10495357D01*
X11043150Y-10481072D01*
X11057436Y-10452500D01*
X11086007Y-10438214D01*
X11128864Y-10438214D01*
X11157436Y-10452500D01*
X11271721Y-10752500D02*
X11286007Y-10738214D01*
X11314578Y-10695357D01*
X11328864Y-10666786D01*
X11343150Y-10623929D01*
X11357436Y-10552500D01*
X11357436Y-10495357D01*
X11343150Y-10423929D01*
X11328864Y-10381072D01*
X11314578Y-10352500D01*
X11286007Y-10309643D01*
X11271721Y-10295357D01*
X3878150Y-10848500D02*
X3878150Y-10948500D01*
X3828150Y-10898500D02*
X3928150Y-10898500D01*
X4371721Y-11034214D02*
X4200293Y-11034214D01*
X4286007Y-11034214D02*
X4286007Y-10734214D01*
X4257436Y-10777072D01*
X4228864Y-10805643D01*
X4200293Y-10819929D01*
X4500293Y-11005643D02*
X4514578Y-11019929D01*
X4500293Y-11034214D01*
X4486007Y-11019929D01*
X4500293Y-11005643D01*
X4500293Y-11034214D01*
X4700293Y-10734214D02*
X4728864Y-10734214D01*
X4757436Y-10748500D01*
X4771721Y-10762786D01*
X4786007Y-10791357D01*
X4800293Y-10848500D01*
X4800293Y-10919929D01*
X4786007Y-10977072D01*
X4771721Y-11005643D01*
X4757436Y-11019929D01*
X4728864Y-11034214D01*
X4700293Y-11034214D01*
X4671721Y-11019929D01*
X4657436Y-11005643D01*
X4643150Y-10977072D01*
X4628864Y-10919929D01*
X4628864Y-10848500D01*
X4643150Y-10791357D01*
X4657436Y-10762786D01*
X4671721Y-10748500D01*
X4700293Y-10734214D01*
X4986007Y-10734214D02*
X5014578Y-10734214D01*
X5043150Y-10748500D01*
X5057436Y-10762786D01*
X5071721Y-10791357D01*
X5086007Y-10848500D01*
X5086007Y-10919929D01*
X5071721Y-10977072D01*
X5057436Y-11005643D01*
X5043150Y-11019929D01*
X5014578Y-11034214D01*
X4986007Y-11034214D01*
X4957436Y-11019929D01*
X4943150Y-11005643D01*
X4928864Y-10977072D01*
X4914578Y-10919929D01*
X4914578Y-10848500D01*
X4928864Y-10791357D01*
X4943150Y-10762786D01*
X4957436Y-10748500D01*
X4986007Y-10734214D01*
X5271721Y-10734214D02*
X5300293Y-10734214D01*
X5328864Y-10748500D01*
X5343150Y-10762786D01*
X5357436Y-10791357D01*
X5371721Y-10848500D01*
X5371721Y-10919929D01*
X5357436Y-10977072D01*
X5343150Y-11005643D01*
X5328864Y-11019929D01*
X5300293Y-11034214D01*
X5271721Y-11034214D01*
X5243150Y-11019929D01*
X5228864Y-11005643D01*
X5214578Y-10977072D01*
X5200293Y-10919929D01*
X5200293Y-10848500D01*
X5214578Y-10791357D01*
X5228864Y-10762786D01*
X5243150Y-10748500D01*
X5271721Y-10734214D01*
X5500293Y-11034214D02*
X5500293Y-10834214D01*
X5500293Y-10862786D02*
X5514578Y-10848500D01*
X5543150Y-10834214D01*
X5586007Y-10834214D01*
X5614578Y-10848500D01*
X5628864Y-10877072D01*
X5628864Y-11034214D01*
X5628864Y-10877072D02*
X5643150Y-10848500D01*
X5671721Y-10834214D01*
X5714578Y-10834214D01*
X5743150Y-10848500D01*
X5757436Y-10877072D01*
X5757436Y-11034214D01*
X5900293Y-11034214D02*
X5900293Y-10834214D01*
X5900293Y-10862786D02*
X5914578Y-10848500D01*
X5943150Y-10834214D01*
X5986007Y-10834214D01*
X6014578Y-10848500D01*
X6028864Y-10877072D01*
X6028864Y-11034214D01*
X6028864Y-10877072D02*
X6043150Y-10848500D01*
X6071721Y-10834214D01*
X6114578Y-10834214D01*
X6143150Y-10848500D01*
X6157436Y-10877072D01*
X6157436Y-11034214D01*
X6743150Y-10719929D02*
X6486007Y-11105643D01*
X7128864Y-10734214D02*
X7157436Y-10734214D01*
X7186007Y-10748500D01*
X7200293Y-10762786D01*
X7214578Y-10791357D01*
X7228864Y-10848500D01*
X7228864Y-10919929D01*
X7214578Y-10977072D01*
X7200293Y-11005643D01*
X7186007Y-11019929D01*
X7157436Y-11034214D01*
X7128864Y-11034214D01*
X7100293Y-11019929D01*
X7086007Y-11005643D01*
X7071721Y-10977072D01*
X7057436Y-10919929D01*
X7057436Y-10848500D01*
X7071721Y-10791357D01*
X7086007Y-10762786D01*
X7100293Y-10748500D01*
X7128864Y-10734214D01*
X7357436Y-11005643D02*
X7371721Y-11019929D01*
X7357436Y-11034214D01*
X7343150Y-11019929D01*
X7357436Y-11005643D01*
X7357436Y-11034214D01*
X7557436Y-10734214D02*
X7586007Y-10734214D01*
X7614578Y-10748500D01*
X7628864Y-10762786D01*
X7643150Y-10791357D01*
X7657436Y-10848500D01*
X7657436Y-10919929D01*
X7643150Y-10977072D01*
X7628864Y-11005643D01*
X7614578Y-11019929D01*
X7586007Y-11034214D01*
X7557436Y-11034214D01*
X7528864Y-11019929D01*
X7514578Y-11005643D01*
X7500293Y-10977072D01*
X7486007Y-10919929D01*
X7486007Y-10848500D01*
X7500293Y-10791357D01*
X7514578Y-10762786D01*
X7528864Y-10748500D01*
X7557436Y-10734214D01*
X7757436Y-10734214D02*
X7943150Y-10734214D01*
X7843150Y-10848500D01*
X7886007Y-10848500D01*
X7914578Y-10862786D01*
X7928864Y-10877072D01*
X7943150Y-10905643D01*
X7943150Y-10977072D01*
X7928864Y-11005643D01*
X7914578Y-11019929D01*
X7886007Y-11034214D01*
X7800293Y-11034214D01*
X7771721Y-11019929D01*
X7757436Y-11005643D01*
X8086007Y-11034214D02*
X8143150Y-11034214D01*
X8171721Y-11019929D01*
X8186007Y-11005643D01*
X8214578Y-10962786D01*
X8228864Y-10905643D01*
X8228864Y-10791357D01*
X8214578Y-10762786D01*
X8200293Y-10748500D01*
X8171721Y-10734214D01*
X8114578Y-10734214D01*
X8086007Y-10748500D01*
X8071721Y-10762786D01*
X8057436Y-10791357D01*
X8057436Y-10862786D01*
X8071721Y-10891357D01*
X8086007Y-10905643D01*
X8114578Y-10919929D01*
X8171721Y-10919929D01*
X8200293Y-10905643D01*
X8214578Y-10891357D01*
X8228864Y-10862786D01*
X8486007Y-10834214D02*
X8486007Y-11034214D01*
X8414578Y-10719929D02*
X8343150Y-10934214D01*
X8528864Y-10934214D01*
X8628864Y-10734214D02*
X8628864Y-10791357D01*
X8743150Y-10734214D02*
X8743150Y-10791357D01*
X9186007Y-11148500D02*
X9171721Y-11134214D01*
X9143150Y-11091357D01*
X9128864Y-11062786D01*
X9114578Y-11019929D01*
X9100293Y-10948500D01*
X9100293Y-10891357D01*
X9114578Y-10819929D01*
X9128864Y-10777072D01*
X9143150Y-10748500D01*
X9171721Y-10705643D01*
X9186007Y-10691357D01*
X9457436Y-11034214D02*
X9286007Y-11034214D01*
X9371721Y-11034214D02*
X9371721Y-10734214D01*
X9343150Y-10777072D01*
X9314578Y-10805643D01*
X9286007Y-10819929D01*
X9643150Y-10734214D02*
X9671721Y-10734214D01*
X9700293Y-10748500D01*
X9714578Y-10762786D01*
X9728864Y-10791357D01*
X9743150Y-10848500D01*
X9743150Y-10919929D01*
X9728864Y-10977072D01*
X9714578Y-11005643D01*
X9700293Y-11019929D01*
X9671721Y-11034214D01*
X9643150Y-11034214D01*
X9614578Y-11019929D01*
X9600293Y-11005643D01*
X9586007Y-10977072D01*
X9571721Y-10919929D01*
X9571721Y-10848500D01*
X9586007Y-10791357D01*
X9600293Y-10762786D01*
X9614578Y-10748500D01*
X9643150Y-10734214D01*
X10100293Y-11034214D02*
X10100293Y-10734214D01*
X10228864Y-11034214D02*
X10228864Y-10877072D01*
X10214578Y-10848500D01*
X10186007Y-10834214D01*
X10143150Y-10834214D01*
X10114578Y-10848500D01*
X10100293Y-10862786D01*
X10414578Y-11034214D02*
X10386007Y-11019929D01*
X10371721Y-11005643D01*
X10357436Y-10977072D01*
X10357436Y-10891357D01*
X10371721Y-10862786D01*
X10386007Y-10848500D01*
X10414578Y-10834214D01*
X10457436Y-10834214D01*
X10486007Y-10848500D01*
X10500293Y-10862786D01*
X10514578Y-10891357D01*
X10514578Y-10977072D01*
X10500293Y-11005643D01*
X10486007Y-11019929D01*
X10457436Y-11034214D01*
X10414578Y-11034214D01*
X10686007Y-11034214D02*
X10657436Y-11019929D01*
X10643150Y-10991357D01*
X10643150Y-10734214D01*
X10914578Y-11019929D02*
X10886007Y-11034214D01*
X10828864Y-11034214D01*
X10800293Y-11019929D01*
X10786007Y-10991357D01*
X10786007Y-10877072D01*
X10800293Y-10848500D01*
X10828864Y-10834214D01*
X10886007Y-10834214D01*
X10914578Y-10848500D01*
X10928864Y-10877072D01*
X10928864Y-10905643D01*
X10786007Y-10934214D01*
X11043150Y-11019929D02*
X11071721Y-11034214D01*
X11128864Y-11034214D01*
X11157436Y-11019929D01*
X11171721Y-10991357D01*
X11171721Y-10977072D01*
X11157436Y-10948500D01*
X11128864Y-10934214D01*
X11086007Y-10934214D01*
X11057436Y-10919929D01*
X11043150Y-10891357D01*
X11043150Y-10877072D01*
X11057436Y-10848500D01*
X11086007Y-10834214D01*
X11128864Y-10834214D01*
X11157436Y-10848500D01*
X11271721Y-11148500D02*
X11286007Y-11134214D01*
X11314578Y-11091357D01*
X11328864Y-11062786D01*
X11343150Y-11019929D01*
X11357436Y-10948500D01*
X11357436Y-10891357D01*
X11343150Y-10819929D01*
X11328864Y-10777072D01*
X11314578Y-10748500D01*
X11286007Y-10705643D01*
X11271721Y-10691357D01*
X3910723Y-11336573D02*
X3910723Y-11252427D01*
X3826577Y-11252427D01*
X3826577Y-11336573D01*
X3910723Y-11336573D01*
X4371721Y-11430214D02*
X4200293Y-11430214D01*
X4286007Y-11430214D02*
X4286007Y-11130214D01*
X4257436Y-11173072D01*
X4228864Y-11201643D01*
X4200293Y-11215929D01*
X4500293Y-11401643D02*
X4514578Y-11415929D01*
X4500293Y-11430214D01*
X4486007Y-11415929D01*
X4500293Y-11401643D01*
X4500293Y-11430214D01*
X4800293Y-11430214D02*
X4628864Y-11430214D01*
X4714578Y-11430214D02*
X4714578Y-11130214D01*
X4686007Y-11173072D01*
X4657436Y-11201643D01*
X4628864Y-11215929D01*
X4943150Y-11430214D02*
X5000293Y-11430214D01*
X5028864Y-11415929D01*
X5043150Y-11401643D01*
X5071721Y-11358786D01*
X5086007Y-11301643D01*
X5086007Y-11187357D01*
X5071721Y-11158786D01*
X5057436Y-11144500D01*
X5028864Y-11130214D01*
X4971721Y-11130214D01*
X4943150Y-11144500D01*
X4928864Y-11158786D01*
X4914578Y-11187357D01*
X4914578Y-11258786D01*
X4928864Y-11287357D01*
X4943150Y-11301643D01*
X4971721Y-11315929D01*
X5028864Y-11315929D01*
X5057436Y-11301643D01*
X5071721Y-11287357D01*
X5086007Y-11258786D01*
X5271721Y-11130214D02*
X5300293Y-11130214D01*
X5328864Y-11144500D01*
X5343150Y-11158786D01*
X5357436Y-11187357D01*
X5371721Y-11244500D01*
X5371721Y-11315929D01*
X5357436Y-11373071D01*
X5343150Y-11401643D01*
X5328864Y-11415929D01*
X5300293Y-11430214D01*
X5271721Y-11430214D01*
X5243150Y-11415929D01*
X5228864Y-11401643D01*
X5214578Y-11373071D01*
X5200293Y-11315929D01*
X5200293Y-11244500D01*
X5214578Y-11187357D01*
X5228864Y-11158786D01*
X5243150Y-11144500D01*
X5271721Y-11130214D01*
X5500293Y-11430214D02*
X5500293Y-11230214D01*
X5500293Y-11258786D02*
X5514578Y-11244500D01*
X5543150Y-11230214D01*
X5586007Y-11230214D01*
X5614578Y-11244500D01*
X5628864Y-11273071D01*
X5628864Y-11430214D01*
X5628864Y-11273071D02*
X5643150Y-11244500D01*
X5671721Y-11230214D01*
X5714578Y-11230214D01*
X5743150Y-11244500D01*
X5757436Y-11273071D01*
X5757436Y-11430214D01*
X5900293Y-11430214D02*
X5900293Y-11230214D01*
X5900293Y-11258786D02*
X5914578Y-11244500D01*
X5943150Y-11230214D01*
X5986007Y-11230214D01*
X6014578Y-11244500D01*
X6028864Y-11273071D01*
X6028864Y-11430214D01*
X6028864Y-11273071D02*
X6043150Y-11244500D01*
X6071721Y-11230214D01*
X6114578Y-11230214D01*
X6143150Y-11244500D01*
X6157436Y-11273071D01*
X6157436Y-11430214D01*
X6743150Y-11115929D02*
X6486007Y-11501643D01*
X7128864Y-11130214D02*
X7157436Y-11130214D01*
X7186007Y-11144500D01*
X7200293Y-11158786D01*
X7214578Y-11187357D01*
X7228864Y-11244500D01*
X7228864Y-11315929D01*
X7214578Y-11373071D01*
X7200293Y-11401643D01*
X7186007Y-11415929D01*
X7157436Y-11430214D01*
X7128864Y-11430214D01*
X7100293Y-11415929D01*
X7086007Y-11401643D01*
X7071721Y-11373071D01*
X7057436Y-11315929D01*
X7057436Y-11244500D01*
X7071721Y-11187357D01*
X7086007Y-11158786D01*
X7100293Y-11144500D01*
X7128864Y-11130214D01*
X7357436Y-11401643D02*
X7371721Y-11415929D01*
X7357436Y-11430214D01*
X7343150Y-11415929D01*
X7357436Y-11401643D01*
X7357436Y-11430214D01*
X7557436Y-11130214D02*
X7586007Y-11130214D01*
X7614578Y-11144500D01*
X7628864Y-11158786D01*
X7643150Y-11187357D01*
X7657436Y-11244500D01*
X7657436Y-11315929D01*
X7643150Y-11373071D01*
X7628864Y-11401643D01*
X7614578Y-11415929D01*
X7586007Y-11430214D01*
X7557436Y-11430214D01*
X7528864Y-11415929D01*
X7514578Y-11401643D01*
X7500293Y-11373071D01*
X7486007Y-11315929D01*
X7486007Y-11244500D01*
X7500293Y-11187357D01*
X7514578Y-11158786D01*
X7528864Y-11144500D01*
X7557436Y-11130214D01*
X7914578Y-11230214D02*
X7914578Y-11430214D01*
X7843150Y-11115929D02*
X7771721Y-11330214D01*
X7957436Y-11330214D01*
X8200293Y-11130214D02*
X8143150Y-11130214D01*
X8114578Y-11144500D01*
X8100293Y-11158786D01*
X8071721Y-11201643D01*
X8057436Y-11258786D01*
X8057436Y-11373071D01*
X8071721Y-11401643D01*
X8086007Y-11415929D01*
X8114578Y-11430214D01*
X8171721Y-11430214D01*
X8200293Y-11415929D01*
X8214578Y-11401643D01*
X8228864Y-11373071D01*
X8228864Y-11301643D01*
X8214578Y-11273071D01*
X8200293Y-11258786D01*
X8171721Y-11244500D01*
X8114578Y-11244500D01*
X8086007Y-11258786D01*
X8071721Y-11273071D01*
X8057436Y-11301643D01*
X8371721Y-11430214D02*
X8428864Y-11430214D01*
X8457436Y-11415929D01*
X8471721Y-11401643D01*
X8500293Y-11358786D01*
X8514578Y-11301643D01*
X8514578Y-11187357D01*
X8500293Y-11158786D01*
X8486007Y-11144500D01*
X8457436Y-11130214D01*
X8400293Y-11130214D01*
X8371721Y-11144500D01*
X8357436Y-11158786D01*
X8343150Y-11187357D01*
X8343150Y-11258786D01*
X8357436Y-11287357D01*
X8371721Y-11301643D01*
X8400293Y-11315929D01*
X8457436Y-11315929D01*
X8486007Y-11301643D01*
X8500293Y-11287357D01*
X8514578Y-11258786D01*
X8628864Y-11130214D02*
X8628864Y-11187357D01*
X8743150Y-11130214D02*
X8743150Y-11187357D01*
X9186007Y-11544500D02*
X9171721Y-11530214D01*
X9143150Y-11487357D01*
X9128864Y-11458786D01*
X9114578Y-11415929D01*
X9100293Y-11344500D01*
X9100293Y-11287357D01*
X9114578Y-11215929D01*
X9128864Y-11173072D01*
X9143150Y-11144500D01*
X9171721Y-11101643D01*
X9186007Y-11087357D01*
X9428864Y-11230214D02*
X9428864Y-11430214D01*
X9357436Y-11115929D02*
X9286007Y-11330214D01*
X9471721Y-11330214D01*
X9814578Y-11430214D02*
X9814578Y-11130214D01*
X9943150Y-11430214D02*
X9943150Y-11273071D01*
X9928864Y-11244500D01*
X9900293Y-11230214D01*
X9857436Y-11230214D01*
X9828864Y-11244500D01*
X9814578Y-11258786D01*
X10128864Y-11430214D02*
X10100293Y-11415929D01*
X10086007Y-11401643D01*
X10071721Y-11373071D01*
X10071721Y-11287357D01*
X10086007Y-11258786D01*
X10100293Y-11244500D01*
X10128864Y-11230214D01*
X10171721Y-11230214D01*
X10200293Y-11244500D01*
X10214578Y-11258786D01*
X10228864Y-11287357D01*
X10228864Y-11373071D01*
X10214578Y-11401643D01*
X10200293Y-11415929D01*
X10171721Y-11430214D01*
X10128864Y-11430214D01*
X10400293Y-11430214D02*
X10371721Y-11415929D01*
X10357436Y-11387357D01*
X10357436Y-11130214D01*
X10628864Y-11415929D02*
X10600293Y-11430214D01*
X10543150Y-11430214D01*
X10514578Y-11415929D01*
X10500293Y-11387357D01*
X10500293Y-11273071D01*
X10514578Y-11244500D01*
X10543150Y-11230214D01*
X10600293Y-11230214D01*
X10628864Y-11244500D01*
X10643150Y-11273071D01*
X10643150Y-11301643D01*
X10500293Y-11330214D01*
X10757436Y-11415929D02*
X10786007Y-11430214D01*
X10843150Y-11430214D01*
X10871721Y-11415929D01*
X10886007Y-11387357D01*
X10886007Y-11373071D01*
X10871721Y-11344500D01*
X10843150Y-11330214D01*
X10800293Y-11330214D01*
X10771721Y-11315929D01*
X10757436Y-11287357D01*
X10757436Y-11273071D01*
X10771721Y-11244500D01*
X10800293Y-11230214D01*
X10843150Y-11230214D01*
X10871721Y-11244500D01*
X10986007Y-11544500D02*
X11000293Y-11530214D01*
X11028864Y-11487357D01*
X11043150Y-11458786D01*
X11057436Y-11415929D01*
X11071721Y-11344500D01*
X11071721Y-11287357D01*
X11057436Y-11215929D01*
X11043150Y-11173072D01*
X11028864Y-11144500D01*
X11000293Y-11101643D01*
X10986007Y-11087357D01*
X3863150Y-11755500D02*
X3928150Y-11690500D01*
X3863150Y-11625500D01*
X3798150Y-11690500D01*
X3863150Y-11755500D01*
X4371721Y-11826214D02*
X4200293Y-11826214D01*
X4286007Y-11826214D02*
X4286007Y-11526214D01*
X4257436Y-11569071D01*
X4228864Y-11597643D01*
X4200293Y-11611929D01*
X4500293Y-11797643D02*
X4514578Y-11811929D01*
X4500293Y-11826214D01*
X4486007Y-11811929D01*
X4500293Y-11797643D01*
X4500293Y-11826214D01*
X4614578Y-11526214D02*
X4800293Y-11526214D01*
X4700293Y-11640500D01*
X4743150Y-11640500D01*
X4771721Y-11654786D01*
X4786007Y-11669071D01*
X4800293Y-11697643D01*
X4800293Y-11769071D01*
X4786007Y-11797643D01*
X4771721Y-11811929D01*
X4743150Y-11826214D01*
X4657436Y-11826214D01*
X4628864Y-11811929D01*
X4614578Y-11797643D01*
X4986007Y-11526214D02*
X5014578Y-11526214D01*
X5043150Y-11540500D01*
X5057436Y-11554786D01*
X5071721Y-11583357D01*
X5086007Y-11640500D01*
X5086007Y-11711929D01*
X5071721Y-11769071D01*
X5057436Y-11797643D01*
X5043150Y-11811929D01*
X5014578Y-11826214D01*
X4986007Y-11826214D01*
X4957436Y-11811929D01*
X4943150Y-11797643D01*
X4928864Y-11769071D01*
X4914578Y-11711929D01*
X4914578Y-11640500D01*
X4928864Y-11583357D01*
X4943150Y-11554786D01*
X4957436Y-11540500D01*
X4986007Y-11526214D01*
X5271721Y-11526214D02*
X5300293Y-11526214D01*
X5328864Y-11540500D01*
X5343150Y-11554786D01*
X5357436Y-11583357D01*
X5371721Y-11640500D01*
X5371721Y-11711929D01*
X5357436Y-11769071D01*
X5343150Y-11797643D01*
X5328864Y-11811929D01*
X5300293Y-11826214D01*
X5271721Y-11826214D01*
X5243150Y-11811929D01*
X5228864Y-11797643D01*
X5214578Y-11769071D01*
X5200293Y-11711929D01*
X5200293Y-11640500D01*
X5214578Y-11583357D01*
X5228864Y-11554786D01*
X5243150Y-11540500D01*
X5271721Y-11526214D01*
X5500293Y-11826214D02*
X5500293Y-11626214D01*
X5500293Y-11654786D02*
X5514578Y-11640500D01*
X5543150Y-11626214D01*
X5586007Y-11626214D01*
X5614578Y-11640500D01*
X5628864Y-11669071D01*
X5628864Y-11826214D01*
X5628864Y-11669071D02*
X5643150Y-11640500D01*
X5671721Y-11626214D01*
X5714578Y-11626214D01*
X5743150Y-11640500D01*
X5757436Y-11669071D01*
X5757436Y-11826214D01*
X5900293Y-11826214D02*
X5900293Y-11626214D01*
X5900293Y-11654786D02*
X5914578Y-11640500D01*
X5943150Y-11626214D01*
X5986007Y-11626214D01*
X6014578Y-11640500D01*
X6028864Y-11669071D01*
X6028864Y-11826214D01*
X6028864Y-11669071D02*
X6043150Y-11640500D01*
X6071721Y-11626214D01*
X6114578Y-11626214D01*
X6143150Y-11640500D01*
X6157436Y-11669071D01*
X6157436Y-11826214D01*
X6743150Y-11511929D02*
X6486007Y-11897643D01*
X7128864Y-11526214D02*
X7157436Y-11526214D01*
X7186007Y-11540500D01*
X7200293Y-11554786D01*
X7214578Y-11583357D01*
X7228864Y-11640500D01*
X7228864Y-11711929D01*
X7214578Y-11769071D01*
X7200293Y-11797643D01*
X7186007Y-11811929D01*
X7157436Y-11826214D01*
X7128864Y-11826214D01*
X7100293Y-11811929D01*
X7086007Y-11797643D01*
X7071721Y-11769071D01*
X7057436Y-11711929D01*
X7057436Y-11640500D01*
X7071721Y-11583357D01*
X7086007Y-11554786D01*
X7100293Y-11540500D01*
X7128864Y-11526214D01*
X7357436Y-11797643D02*
X7371721Y-11811929D01*
X7357436Y-11826214D01*
X7343150Y-11811929D01*
X7357436Y-11797643D01*
X7357436Y-11826214D01*
X7557436Y-11526214D02*
X7586007Y-11526214D01*
X7614578Y-11540500D01*
X7628864Y-11554786D01*
X7643150Y-11583357D01*
X7657436Y-11640500D01*
X7657436Y-11711929D01*
X7643150Y-11769071D01*
X7628864Y-11797643D01*
X7614578Y-11811929D01*
X7586007Y-11826214D01*
X7557436Y-11826214D01*
X7528864Y-11811929D01*
X7514578Y-11797643D01*
X7500293Y-11769071D01*
X7486007Y-11711929D01*
X7486007Y-11640500D01*
X7500293Y-11583357D01*
X7514578Y-11554786D01*
X7528864Y-11540500D01*
X7557436Y-11526214D01*
X7928864Y-11526214D02*
X7786007Y-11526214D01*
X7771721Y-11669071D01*
X7786007Y-11654786D01*
X7814578Y-11640500D01*
X7886007Y-11640500D01*
X7914578Y-11654786D01*
X7928864Y-11669071D01*
X7943150Y-11697643D01*
X7943150Y-11769071D01*
X7928864Y-11797643D01*
X7914578Y-11811929D01*
X7886007Y-11826214D01*
X7814578Y-11826214D01*
X7786007Y-11811929D01*
X7771721Y-11797643D01*
X8228864Y-11826214D02*
X8057436Y-11826214D01*
X8143150Y-11826214D02*
X8143150Y-11526214D01*
X8114578Y-11569071D01*
X8086007Y-11597643D01*
X8057436Y-11611929D01*
X8343150Y-11554786D02*
X8357436Y-11540500D01*
X8386007Y-11526214D01*
X8457436Y-11526214D01*
X8486007Y-11540500D01*
X8500293Y-11554786D01*
X8514578Y-11583357D01*
X8514578Y-11611929D01*
X8500293Y-11654786D01*
X8328864Y-11826214D01*
X8514578Y-11826214D01*
X8628864Y-11526214D02*
X8628864Y-11583357D01*
X8743150Y-11526214D02*
X8743150Y-11583357D01*
X9186007Y-11940500D02*
X9171721Y-11926214D01*
X9143150Y-11883357D01*
X9128864Y-11854786D01*
X9114578Y-11811929D01*
X9100293Y-11740500D01*
X9100293Y-11683357D01*
X9114578Y-11611929D01*
X9128864Y-11569071D01*
X9143150Y-11540500D01*
X9171721Y-11497643D01*
X9186007Y-11483357D01*
X9343150Y-11654786D02*
X9314578Y-11640500D01*
X9300293Y-11626214D01*
X9286007Y-11597643D01*
X9286007Y-11583357D01*
X9300293Y-11554786D01*
X9314578Y-11540500D01*
X9343150Y-11526214D01*
X9400293Y-11526214D01*
X9428864Y-11540500D01*
X9443150Y-11554786D01*
X9457436Y-11583357D01*
X9457436Y-11597643D01*
X9443150Y-11626214D01*
X9428864Y-11640500D01*
X9400293Y-11654786D01*
X9343150Y-11654786D01*
X9314578Y-11669071D01*
X9300293Y-11683357D01*
X9286007Y-11711929D01*
X9286007Y-11769071D01*
X9300293Y-11797643D01*
X9314578Y-11811929D01*
X9343150Y-11826214D01*
X9400293Y-11826214D01*
X9428864Y-11811929D01*
X9443150Y-11797643D01*
X9457436Y-11769071D01*
X9457436Y-11711929D01*
X9443150Y-11683357D01*
X9428864Y-11669071D01*
X9400293Y-11654786D01*
X9814578Y-11826214D02*
X9814578Y-11526214D01*
X9943150Y-11826214D02*
X9943150Y-11669071D01*
X9928864Y-11640500D01*
X9900293Y-11626214D01*
X9857436Y-11626214D01*
X9828864Y-11640500D01*
X9814578Y-11654786D01*
X10128864Y-11826214D02*
X10100293Y-11811929D01*
X10086007Y-11797643D01*
X10071721Y-11769071D01*
X10071721Y-11683357D01*
X10086007Y-11654786D01*
X10100293Y-11640500D01*
X10128864Y-11626214D01*
X10171721Y-11626214D01*
X10200293Y-11640500D01*
X10214578Y-11654786D01*
X10228864Y-11683357D01*
X10228864Y-11769071D01*
X10214578Y-11797643D01*
X10200293Y-11811929D01*
X10171721Y-11826214D01*
X10128864Y-11826214D01*
X10400293Y-11826214D02*
X10371721Y-11811929D01*
X10357436Y-11783357D01*
X10357436Y-11526214D01*
X10628864Y-11811929D02*
X10600293Y-11826214D01*
X10543150Y-11826214D01*
X10514578Y-11811929D01*
X10500293Y-11783357D01*
X10500293Y-11669071D01*
X10514578Y-11640500D01*
X10543150Y-11626214D01*
X10600293Y-11626214D01*
X10628864Y-11640500D01*
X10643150Y-11669071D01*
X10643150Y-11697643D01*
X10500293Y-11726214D01*
X10757436Y-11811929D02*
X10786007Y-11826214D01*
X10843150Y-11826214D01*
X10871721Y-11811929D01*
X10886007Y-11783357D01*
X10886007Y-11769071D01*
X10871721Y-11740500D01*
X10843150Y-11726214D01*
X10800293Y-11726214D01*
X10771721Y-11711929D01*
X10757436Y-11683357D01*
X10757436Y-11669071D01*
X10771721Y-11640500D01*
X10800293Y-11626214D01*
X10843150Y-11626214D01*
X10871721Y-11640500D01*
X10986007Y-11940500D02*
X11000293Y-11926214D01*
X11028864Y-11883357D01*
X11043150Y-11854786D01*
X11057436Y-11811929D01*
X11071721Y-11740500D01*
X11071721Y-11683357D01*
X11057436Y-11611929D01*
X11043150Y-11569071D01*
X11028864Y-11540500D01*
X11000293Y-11497643D01*
X10986007Y-11483357D01*
M02*
