M48
; DRILL file {KiCad (5.1.10)-1} date 05/23/22 16:09:31
; FORMAT={-:-/ absolute / metric / decimal}
; #@! TF.CreationDate,2022-05-23T16:09:31+02:00
; #@! TF.GenerationSoftware,Kicad,Pcbnew,(5.1.10)-1
; #@! TF.FileFunction,Plated,1,2,PTH
FMAT,2
METRIC
T1C0.700
T2C0.800
T3C1.000
T4C1.190
T5C1.300
%
G90
G05
T1
X68.326Y-32.766
X75.501Y-34.227
X79.883Y-50.355
X84.074Y-37.084
X86.741Y-42.672
X86.741Y-43.942
X86.741Y-45.212
X89.281Y-41.402
X89.281Y-42.672
X89.281Y-43.942
X89.281Y-45.212
X89.281Y-46.482
X91.186Y-52.578
X91.821Y-41.402
X91.821Y-42.672
X91.821Y-43.942
X91.821Y-45.212
X91.821Y-46.482
X91.948Y-35.339
X91.948Y-55.245
X92.202Y-32.639
X94.361Y-41.402
X94.361Y-42.672
X94.361Y-43.942
X94.361Y-45.212
X94.361Y-46.482
X96.774Y-57.15
X96.837Y-29.909
X96.901Y-42.672
X96.901Y-43.942
X96.901Y-45.212
T2
X43.752Y-60.134
X43.752Y-67.754
X45.148Y-41.084
X45.148Y-48.704
X46.291Y-60.134
X46.291Y-67.754
X47.688Y-41.084
X47.688Y-48.704
X48.831Y-60.134
X48.831Y-67.754
X51.371Y-60.134
X51.371Y-67.754
X53.911Y-60.134
X53.911Y-67.754
X54.8Y-37.274
X56.451Y-60.134
X56.451Y-67.754
X57.34Y-37.274
X58.991Y-60.134
X58.991Y-67.754
X59.88Y-37.274
X60.706Y-78.613
X61.531Y-60.134
X61.531Y-67.754
X64.072Y-60.134
X64.072Y-67.754
X65.586Y-78.613
X66.611Y-60.134
X66.611Y-67.754
X69.151Y-60.134
X69.151Y-67.754
X71.691Y-60.134
X71.691Y-67.754
X72.707Y-77.406
X72.707Y-85.026
X74.231Y-60.134
X74.231Y-67.754
X75.248Y-77.406
X75.248Y-85.026
X76.772Y-60.134
X76.772Y-67.754
X77.787Y-77.406
X77.787Y-85.026
X80.328Y-77.406
X80.328Y-85.026
T3
X50.292Y-74.993
X50.292Y-77.533
X50.292Y-80.073
X50.292Y-82.614
X50.292Y-85.153
X50.609Y-30.035
X61.087Y-87.376
X94.107Y-73.533
X94.107Y-76.073
X94.107Y-78.613
T4
X91.504Y-85.852
X91.504Y-88.392
X101.092Y-85.852
X101.092Y-88.392
T5
X109.728Y-36.322
X109.728Y-41.402
X109.728Y-46.482
X109.728Y-51.562
X109.728Y-61.976
X109.728Y-67.056
X109.728Y-74.168
X109.728Y-79.248
T0
M30
