%FSLAX45Y45*%
G04 Gerber Fmt 4.5, Leading zero omitted, Abs format (unit mm)*
G04 Created by KiCad (PCBNEW (5.1.10)-1) date 2022-05-23 16:09:33*
%MOMM*%
%LPD*%
G01*
G04 APERTURE LIST*
%TA.AperFunction,Profile*%
%ADD10C,0.050000*%
%TD*%
%ADD11C,0.200000*%
%ADD12C,0.300000*%
G04 APERTURE END LIST*
D10*
X3930650Y-2495550D02*
X3930650Y-2520950D01*
X11595100Y-2495550D02*
X3930650Y-2495550D01*
X3930650Y-2552700D02*
X3930650Y-2520950D01*
X3930650Y-9144000D02*
X3930650Y-2552700D01*
X11595100Y-9144000D02*
X3930650Y-9144000D01*
X11595100Y-2495550D02*
X11595100Y-9144000D01*
D11*
X4145300Y-2761000D02*
X4465300Y-3081000D01*
X4465300Y-2761000D02*
X4145300Y-3081000D01*
X4151650Y-8590300D02*
X4471650Y-8910300D01*
X4471650Y-8590300D02*
X4151650Y-8910300D01*
X10927100Y-2780050D02*
X11247100Y-3100050D01*
X11247100Y-2780050D02*
X10927100Y-3100050D01*
X10927100Y-8590300D02*
X11247100Y-8910300D01*
X11247100Y-8590300D02*
X10927100Y-8910300D01*
D12*
X4214578Y-9612214D02*
X4214578Y-9312214D01*
X4286007Y-9312214D01*
X4328864Y-9326500D01*
X4357436Y-9355072D01*
X4371721Y-9383643D01*
X4386007Y-9440786D01*
X4386007Y-9483643D01*
X4371721Y-9540786D01*
X4357436Y-9569357D01*
X4328864Y-9597929D01*
X4286007Y-9612214D01*
X4214578Y-9612214D01*
X4514578Y-9612214D02*
X4514578Y-9412214D01*
X4514578Y-9469357D02*
X4528864Y-9440786D01*
X4543150Y-9426500D01*
X4571721Y-9412214D01*
X4600293Y-9412214D01*
X4700293Y-9612214D02*
X4700293Y-9412214D01*
X4700293Y-9312214D02*
X4686007Y-9326500D01*
X4700293Y-9340786D01*
X4714578Y-9326500D01*
X4700293Y-9312214D01*
X4700293Y-9340786D01*
X4886007Y-9612214D02*
X4857436Y-9597929D01*
X4843150Y-9569357D01*
X4843150Y-9312214D01*
X5043150Y-9612214D02*
X5014578Y-9597929D01*
X5000293Y-9569357D01*
X5000293Y-9312214D01*
X5386007Y-9612214D02*
X5386007Y-9312214D01*
X5486007Y-9526500D01*
X5586007Y-9312214D01*
X5586007Y-9612214D01*
X5857436Y-9612214D02*
X5857436Y-9455072D01*
X5843150Y-9426500D01*
X5814578Y-9412214D01*
X5757436Y-9412214D01*
X5728864Y-9426500D01*
X5857436Y-9597929D02*
X5828864Y-9612214D01*
X5757436Y-9612214D01*
X5728864Y-9597929D01*
X5714578Y-9569357D01*
X5714578Y-9540786D01*
X5728864Y-9512214D01*
X5757436Y-9497929D01*
X5828864Y-9497929D01*
X5857436Y-9483643D01*
X6000293Y-9412214D02*
X6000293Y-9712214D01*
X6000293Y-9426500D02*
X6028864Y-9412214D01*
X6086007Y-9412214D01*
X6114578Y-9426500D01*
X6128864Y-9440786D01*
X6143150Y-9469357D01*
X6143150Y-9555072D01*
X6128864Y-9583643D01*
X6114578Y-9597929D01*
X6086007Y-9612214D01*
X6028864Y-9612214D01*
X6000293Y-9597929D01*
X6271721Y-9583643D02*
X6286007Y-9597929D01*
X6271721Y-9612214D01*
X6257436Y-9597929D01*
X6271721Y-9583643D01*
X6271721Y-9612214D01*
X6271721Y-9426500D02*
X6286007Y-9440786D01*
X6271721Y-9455072D01*
X6257436Y-9440786D01*
X6271721Y-9426500D01*
X6271721Y-9455072D01*
X3608150Y-9946500D02*
X3928150Y-10266500D01*
X3928150Y-9946500D02*
X3608150Y-10266500D01*
X4186007Y-9942214D02*
X4371721Y-9942214D01*
X4271721Y-10056500D01*
X4314578Y-10056500D01*
X4343150Y-10070786D01*
X4357436Y-10085072D01*
X4371721Y-10113643D01*
X4371721Y-10185072D01*
X4357436Y-10213643D01*
X4343150Y-10227929D01*
X4314578Y-10242214D01*
X4228864Y-10242214D01*
X4200293Y-10227929D01*
X4186007Y-10213643D01*
X4500293Y-10213643D02*
X4514578Y-10227929D01*
X4500293Y-10242214D01*
X4486007Y-10227929D01*
X4500293Y-10213643D01*
X4500293Y-10242214D01*
X4628864Y-9970786D02*
X4643150Y-9956500D01*
X4671721Y-9942214D01*
X4743150Y-9942214D01*
X4771721Y-9956500D01*
X4786007Y-9970786D01*
X4800293Y-9999357D01*
X4800293Y-10027929D01*
X4786007Y-10070786D01*
X4614578Y-10242214D01*
X4800293Y-10242214D01*
X4986007Y-9942214D02*
X5014578Y-9942214D01*
X5043150Y-9956500D01*
X5057436Y-9970786D01*
X5071721Y-9999357D01*
X5086007Y-10056500D01*
X5086007Y-10127929D01*
X5071721Y-10185072D01*
X5057436Y-10213643D01*
X5043150Y-10227929D01*
X5014578Y-10242214D01*
X4986007Y-10242214D01*
X4957436Y-10227929D01*
X4943150Y-10213643D01*
X4928864Y-10185072D01*
X4914578Y-10127929D01*
X4914578Y-10056500D01*
X4928864Y-9999357D01*
X4943150Y-9970786D01*
X4957436Y-9956500D01*
X4986007Y-9942214D01*
X5271721Y-9942214D02*
X5300293Y-9942214D01*
X5328864Y-9956500D01*
X5343150Y-9970786D01*
X5357436Y-9999357D01*
X5371721Y-10056500D01*
X5371721Y-10127929D01*
X5357436Y-10185072D01*
X5343150Y-10213643D01*
X5328864Y-10227929D01*
X5300293Y-10242214D01*
X5271721Y-10242214D01*
X5243150Y-10227929D01*
X5228864Y-10213643D01*
X5214578Y-10185072D01*
X5200293Y-10127929D01*
X5200293Y-10056500D01*
X5214578Y-9999357D01*
X5228864Y-9970786D01*
X5243150Y-9956500D01*
X5271721Y-9942214D01*
X5500293Y-10242214D02*
X5500293Y-10042214D01*
X5500293Y-10070786D02*
X5514578Y-10056500D01*
X5543150Y-10042214D01*
X5586007Y-10042214D01*
X5614578Y-10056500D01*
X5628864Y-10085072D01*
X5628864Y-10242214D01*
X5628864Y-10085072D02*
X5643150Y-10056500D01*
X5671721Y-10042214D01*
X5714578Y-10042214D01*
X5743150Y-10056500D01*
X5757436Y-10085072D01*
X5757436Y-10242214D01*
X5900293Y-10242214D02*
X5900293Y-10042214D01*
X5900293Y-10070786D02*
X5914578Y-10056500D01*
X5943150Y-10042214D01*
X5986007Y-10042214D01*
X6014578Y-10056500D01*
X6028864Y-10085072D01*
X6028864Y-10242214D01*
X6028864Y-10085072D02*
X6043150Y-10056500D01*
X6071721Y-10042214D01*
X6114578Y-10042214D01*
X6143150Y-10056500D01*
X6157436Y-10085072D01*
X6157436Y-10242214D01*
X6743150Y-9927929D02*
X6486007Y-10313643D01*
X7128864Y-9942214D02*
X7157436Y-9942214D01*
X7186007Y-9956500D01*
X7200293Y-9970786D01*
X7214578Y-9999357D01*
X7228864Y-10056500D01*
X7228864Y-10127929D01*
X7214578Y-10185072D01*
X7200293Y-10213643D01*
X7186007Y-10227929D01*
X7157436Y-10242214D01*
X7128864Y-10242214D01*
X7100293Y-10227929D01*
X7086007Y-10213643D01*
X7071721Y-10185072D01*
X7057436Y-10127929D01*
X7057436Y-10056500D01*
X7071721Y-9999357D01*
X7086007Y-9970786D01*
X7100293Y-9956500D01*
X7128864Y-9942214D01*
X7357436Y-10213643D02*
X7371721Y-10227929D01*
X7357436Y-10242214D01*
X7343150Y-10227929D01*
X7357436Y-10213643D01*
X7357436Y-10242214D01*
X7657436Y-10242214D02*
X7486007Y-10242214D01*
X7571721Y-10242214D02*
X7571721Y-9942214D01*
X7543150Y-9985072D01*
X7514578Y-10013643D01*
X7486007Y-10027929D01*
X7771721Y-9970786D02*
X7786007Y-9956500D01*
X7814578Y-9942214D01*
X7886007Y-9942214D01*
X7914578Y-9956500D01*
X7928864Y-9970786D01*
X7943150Y-9999357D01*
X7943150Y-10027929D01*
X7928864Y-10070786D01*
X7757436Y-10242214D01*
X7943150Y-10242214D01*
X8200293Y-9942214D02*
X8143150Y-9942214D01*
X8114578Y-9956500D01*
X8100293Y-9970786D01*
X8071721Y-10013643D01*
X8057436Y-10070786D01*
X8057436Y-10185072D01*
X8071721Y-10213643D01*
X8086007Y-10227929D01*
X8114578Y-10242214D01*
X8171721Y-10242214D01*
X8200293Y-10227929D01*
X8214578Y-10213643D01*
X8228864Y-10185072D01*
X8228864Y-10113643D01*
X8214578Y-10085072D01*
X8200293Y-10070786D01*
X8171721Y-10056500D01*
X8114578Y-10056500D01*
X8086007Y-10070786D01*
X8071721Y-10085072D01*
X8057436Y-10113643D01*
X8414578Y-9942214D02*
X8443150Y-9942214D01*
X8471721Y-9956500D01*
X8486007Y-9970786D01*
X8500293Y-9999357D01*
X8514578Y-10056500D01*
X8514578Y-10127929D01*
X8500293Y-10185072D01*
X8486007Y-10213643D01*
X8471721Y-10227929D01*
X8443150Y-10242214D01*
X8414578Y-10242214D01*
X8386007Y-10227929D01*
X8371721Y-10213643D01*
X8357436Y-10185072D01*
X8343150Y-10127929D01*
X8343150Y-10056500D01*
X8357436Y-9999357D01*
X8371721Y-9970786D01*
X8386007Y-9956500D01*
X8414578Y-9942214D01*
X8628864Y-9942214D02*
X8628864Y-9999357D01*
X8743150Y-9942214D02*
X8743150Y-9999357D01*
X9186007Y-10356500D02*
X9171721Y-10342214D01*
X9143150Y-10299357D01*
X9128864Y-10270786D01*
X9114578Y-10227929D01*
X9100293Y-10156500D01*
X9100293Y-10099357D01*
X9114578Y-10027929D01*
X9128864Y-9985072D01*
X9143150Y-9956500D01*
X9171721Y-9913643D01*
X9186007Y-9899357D01*
X9428864Y-10042214D02*
X9428864Y-10242214D01*
X9357436Y-9927929D02*
X9286007Y-10142214D01*
X9471721Y-10142214D01*
X9814578Y-10242214D02*
X9814578Y-9942214D01*
X9943150Y-10242214D02*
X9943150Y-10085072D01*
X9928864Y-10056500D01*
X9900293Y-10042214D01*
X9857436Y-10042214D01*
X9828864Y-10056500D01*
X9814578Y-10070786D01*
X10128864Y-10242214D02*
X10100293Y-10227929D01*
X10086007Y-10213643D01*
X10071721Y-10185072D01*
X10071721Y-10099357D01*
X10086007Y-10070786D01*
X10100293Y-10056500D01*
X10128864Y-10042214D01*
X10171721Y-10042214D01*
X10200293Y-10056500D01*
X10214578Y-10070786D01*
X10228864Y-10099357D01*
X10228864Y-10185072D01*
X10214578Y-10213643D01*
X10200293Y-10227929D01*
X10171721Y-10242214D01*
X10128864Y-10242214D01*
X10400293Y-10242214D02*
X10371721Y-10227929D01*
X10357436Y-10199357D01*
X10357436Y-9942214D01*
X10628864Y-10227929D02*
X10600293Y-10242214D01*
X10543150Y-10242214D01*
X10514578Y-10227929D01*
X10500293Y-10199357D01*
X10500293Y-10085072D01*
X10514578Y-10056500D01*
X10543150Y-10042214D01*
X10600293Y-10042214D01*
X10628864Y-10056500D01*
X10643150Y-10085072D01*
X10643150Y-10113643D01*
X10500293Y-10142214D01*
X10757436Y-10227929D02*
X10786007Y-10242214D01*
X10843150Y-10242214D01*
X10871721Y-10227929D01*
X10886007Y-10199357D01*
X10886007Y-10185072D01*
X10871721Y-10156500D01*
X10843150Y-10142214D01*
X10800293Y-10142214D01*
X10771721Y-10127929D01*
X10757436Y-10099357D01*
X10757436Y-10085072D01*
X10771721Y-10056500D01*
X10800293Y-10042214D01*
X10843150Y-10042214D01*
X10871721Y-10056500D01*
X10986007Y-10356500D02*
X11000293Y-10342214D01*
X11028864Y-10299357D01*
X11043150Y-10270786D01*
X11057436Y-10227929D01*
X11071721Y-10156500D01*
X11071721Y-10099357D01*
X11057436Y-10027929D01*
X11043150Y-9985072D01*
X11028864Y-9956500D01*
X11000293Y-9913643D01*
X10986007Y-9899357D01*
X11528864Y-10356500D02*
X11514578Y-10342214D01*
X11486007Y-10299357D01*
X11471721Y-10270786D01*
X11457436Y-10227929D01*
X11443150Y-10156500D01*
X11443150Y-10099357D01*
X11457436Y-10027929D01*
X11471721Y-9985072D01*
X11486007Y-9956500D01*
X11514578Y-9913643D01*
X11528864Y-9899357D01*
X11643150Y-10042214D02*
X11643150Y-10242214D01*
X11643150Y-10070786D02*
X11657436Y-10056500D01*
X11686007Y-10042214D01*
X11728864Y-10042214D01*
X11757436Y-10056500D01*
X11771721Y-10085072D01*
X11771721Y-10242214D01*
X11957436Y-10242214D02*
X11928864Y-10227929D01*
X11914578Y-10213643D01*
X11900293Y-10185072D01*
X11900293Y-10099357D01*
X11914578Y-10070786D01*
X11928864Y-10056500D01*
X11957436Y-10042214D01*
X12000293Y-10042214D01*
X12028864Y-10056500D01*
X12043150Y-10070786D01*
X12057436Y-10099357D01*
X12057436Y-10185072D01*
X12043150Y-10213643D01*
X12028864Y-10227929D01*
X12000293Y-10242214D01*
X11957436Y-10242214D01*
X12143150Y-10042214D02*
X12257436Y-10042214D01*
X12186007Y-9942214D02*
X12186007Y-10199357D01*
X12200293Y-10227929D01*
X12228864Y-10242214D01*
X12257436Y-10242214D01*
X12586007Y-10042214D02*
X12586007Y-10342214D01*
X12586007Y-10056500D02*
X12614578Y-10042214D01*
X12671721Y-10042214D01*
X12700293Y-10056500D01*
X12714578Y-10070786D01*
X12728864Y-10099357D01*
X12728864Y-10185072D01*
X12714578Y-10213643D01*
X12700293Y-10227929D01*
X12671721Y-10242214D01*
X12614578Y-10242214D01*
X12586007Y-10227929D01*
X12900293Y-10242214D02*
X12871721Y-10227929D01*
X12857436Y-10199357D01*
X12857436Y-9942214D01*
X13143150Y-10242214D02*
X13143150Y-10085072D01*
X13128864Y-10056500D01*
X13100293Y-10042214D01*
X13043150Y-10042214D01*
X13014578Y-10056500D01*
X13143150Y-10227929D02*
X13114578Y-10242214D01*
X13043150Y-10242214D01*
X13014578Y-10227929D01*
X13000293Y-10199357D01*
X13000293Y-10170786D01*
X13014578Y-10142214D01*
X13043150Y-10127929D01*
X13114578Y-10127929D01*
X13143150Y-10113643D01*
X13243150Y-10042214D02*
X13357436Y-10042214D01*
X13286007Y-9942214D02*
X13286007Y-10199357D01*
X13300293Y-10227929D01*
X13328864Y-10242214D01*
X13357436Y-10242214D01*
X13571721Y-10227929D02*
X13543150Y-10242214D01*
X13486007Y-10242214D01*
X13457436Y-10227929D01*
X13443150Y-10199357D01*
X13443150Y-10085072D01*
X13457436Y-10056500D01*
X13486007Y-10042214D01*
X13543150Y-10042214D01*
X13571721Y-10056500D01*
X13586007Y-10085072D01*
X13586007Y-10113643D01*
X13443150Y-10142214D01*
X13843150Y-10242214D02*
X13843150Y-9942214D01*
X13843150Y-10227929D02*
X13814578Y-10242214D01*
X13757436Y-10242214D01*
X13728864Y-10227929D01*
X13714578Y-10213643D01*
X13700293Y-10185072D01*
X13700293Y-10099357D01*
X13714578Y-10070786D01*
X13728864Y-10056500D01*
X13757436Y-10042214D01*
X13814578Y-10042214D01*
X13843150Y-10056500D01*
X13957436Y-10356500D02*
X13971721Y-10342214D01*
X14000293Y-10299357D01*
X14014578Y-10270786D01*
X14028864Y-10227929D01*
X14043150Y-10156500D01*
X14043150Y-10099357D01*
X14028864Y-10027929D01*
X14014578Y-9985072D01*
X14000293Y-9956500D01*
X13971721Y-9913643D01*
X13957436Y-9899357D01*
M02*
